<?xml version="1.0" encoding="UTF-8" standalone="no"?><svg xmlns="http://www.w3.org/2000/svg" xmlns:xlink="http://www.w3.org/1999/xlink" contentStyleType="text/css" height="233px" preserveAspectRatio="none" style="width:703px;height:233px;background:#FFFFFF;" version="1.1" viewBox="0 0 703 233" width="703px" zoomAndPan="magnify"><defs/><g><!--MD5=[7d0e5ddd73bd8fec86b8967827845935]
class Empresa--><g id="elem_Empresa"><rect codeLine="1" fill="#F1F1F1" height="48" id="Empresa" rx="2.5" ry="2.5" style="stroke:#181818;stroke-width:0.5;" width="91" x="279.5" y="93"/><ellipse cx="294.5" cy="109" fill="#ADD1B2" rx="11" ry="11" style="stroke:#181818;stroke-width:1.0;"/><path d="M293.9688,115.9219 Q292.2188,115.9219 291.0781,115.1875 Q289.9531,114.4375 289.3906,113.0938 Q288.8438,111.7344 288.8438,109.9375 Q288.8438,107.9063 289.5,106.4531 Q290.1563,105 291.4375,104.2188 Q292.7188,103.4375 294.5938,103.4375 Q295.4844,103.4375 296.1563,103.625 Q296.8281,103.7969 297.5156,104.1406 L296.7031,106.1563 Q296.0781,105.8438 295.5313,105.7188 Q295,105.5938 294.5156,105.5938 Q293.3438,105.5938 292.6406,106.125 Q291.9375,106.6563 291.6406,107.6094 Q291.3438,108.5625 291.3438,109.8281 Q291.3438,111.8438 292.0625,112.8125 Q292.7813,113.7656 294.375,113.7656 Q294.9688,113.7656 295.5938,113.6094 Q296.2188,113.4531 297.0469,113.0781 L297.0469,115.2969 Q296.3125,115.6094 295.5156,115.7656 Q294.7344,115.9219 293.9688,115.9219 Z " fill="#000000"/><text fill="#000000" font-family="sans-serif" font-size="14" lengthAdjust="spacing" textLength="59" x="308.5" y="114.432">Empresa</text><line style="stroke:#181818;stroke-width:0.5;" x1="280.5" x2="369.5" y1="125" y2="125"/><line style="stroke:#181818;stroke-width:0.5;" x1="280.5" x2="369.5" y1="133" y2="133"/></g><!--MD5=[8b24f5a8f8af46f7b7b165e59b045d19]
class Estrategia--><g id="elem_Estrategia"><rect codeLine="3" fill="#F1F1F1" height="219.6113" id="Estrategia" rx="2.5" ry="2.5" style="stroke:#181818;stroke-width:0.5;" width="208" x="7" y="7"/><ellipse cx="72.75" cy="23" fill="#ADD1B2" rx="11" ry="11" style="stroke:#181818;stroke-width:1.0;"/><path d="M72.2188,29.9219 Q70.4688,29.9219 69.3281,29.1875 Q68.2031,28.4375 67.6406,27.0938 Q67.0938,25.7344 67.0938,23.9375 Q67.0938,21.9063 67.75,20.4531 Q68.4063,19 69.6875,18.2188 Q70.9688,17.4375 72.8438,17.4375 Q73.7344,17.4375 74.4063,17.625 Q75.0781,17.7969 75.7656,18.1406 L74.9531,20.1563 Q74.3281,19.8438 73.7813,19.7188 Q73.25,19.5938 72.7656,19.5938 Q71.5938,19.5938 70.8906,20.125 Q70.1875,20.6563 69.8906,21.6094 Q69.5938,22.5625 69.5938,23.8281 Q69.5938,25.8438 70.3125,26.8125 Q71.0313,27.7656 72.625,27.7656 Q73.2188,27.7656 73.8438,27.6094 Q74.4688,27.4531 75.2969,27.0781 L75.2969,29.2969 Q74.5625,29.6094 73.7656,29.7656 Q72.9844,29.9219 72.2188,29.9219 Z " fill="#000000"/><text fill="#000000" font-family="sans-serif" font-size="14" lengthAdjust="spacing" textLength="68" x="93.25" y="28.432">Estrategia</text><line style="stroke:#181818;stroke-width:0.5;" x1="8" x2="214" y1="39" y2="39"/><text fill="#000000" font-family="sans-serif" font-size="14" lengthAdjust="spacing" textLength="100" x="13" y="57.9659">Dirección clara</text><text fill="#000000" font-family="sans-serif" font-size="14" lengthAdjust="spacing" textLength="4" x="13" y="77.0339"> </text><text fill="#000000" font-family="sans-serif" font-size="14" lengthAdjust="spacing" textLength="196" x="13" y="96.1018">Gestión de recursos eficiente</text><text fill="#000000" font-family="sans-serif" font-size="14" lengthAdjust="spacing" textLength="4" x="13" y="115.1697"> </text><text fill="#000000" font-family="sans-serif" font-size="14" lengthAdjust="spacing" textLength="97" x="13" y="134.2376">Diferenciación</text><text fill="#000000" font-family="sans-serif" font-size="14" lengthAdjust="spacing" textLength="4" x="13" y="153.3055"> </text><text fill="#000000" font-family="sans-serif" font-size="14" lengthAdjust="spacing" textLength="77" x="13" y="172.3734">Flexibilidad</text><text fill="#000000" font-family="sans-serif" font-size="14" lengthAdjust="spacing" textLength="4" x="13" y="191.4414"> </text><text fill="#000000" font-family="sans-serif" font-size="14" lengthAdjust="spacing" textLength="110" x="13" y="210.5093">Mejora continua</text><line style="stroke:#181818;stroke-width:0.5;" x1="8" x2="214" y1="218.6113" y2="218.6113"/></g><!--MD5=[7771e62474b0382ee524a29783486a31]
class Planificación--><g id="elem_Planificación"><rect codeLine="15" fill="#F1F1F1" height="219.6113" id="Planificación" rx="2.5" ry="2.5" style="stroke:#181818;stroke-width:0.5;" width="231" x="465.5" y="7"/><ellipse cx="534.25" cy="23" fill="#ADD1B2" rx="11" ry="11" style="stroke:#181818;stroke-width:1.0;"/><path d="M533.7188,29.9219 Q531.9688,29.9219 530.8281,29.1875 Q529.7031,28.4375 529.1406,27.0938 Q528.5938,25.7344 528.5938,23.9375 Q528.5938,21.9063 529.25,20.4531 Q529.9063,19 531.1875,18.2188 Q532.4688,17.4375 534.3438,17.4375 Q535.2344,17.4375 535.9063,17.625 Q536.5781,17.7969 537.2656,18.1406 L536.4531,20.1563 Q535.8281,19.8438 535.2813,19.7188 Q534.75,19.5938 534.2656,19.5938 Q533.0938,19.5938 532.3906,20.125 Q531.6875,20.6563 531.3906,21.6094 Q531.0938,22.5625 531.0938,23.8281 Q531.0938,25.8438 531.8125,26.8125 Q532.5313,27.7656 534.125,27.7656 Q534.7188,27.7656 535.3438,27.6094 Q535.9688,27.4531 536.7969,27.0781 L536.7969,29.2969 Q536.0625,29.6094 535.2656,29.7656 Q534.4844,29.9219 533.7188,29.9219 Z " fill="#000000"/><text fill="#000000" font-family="sans-serif" font-size="14" lengthAdjust="spacing" textLength="85" x="554.75" y="28.432">Planificación</text><line style="stroke:#181818;stroke-width:0.5;" x1="466.5" x2="695.5" y1="39" y2="39"/><text fill="#000000" font-family="sans-serif" font-size="14" lengthAdjust="spacing" textLength="107" x="471.5" y="57.9659">Objetivos claros</text><text fill="#000000" font-family="sans-serif" font-size="14" lengthAdjust="spacing" textLength="4" x="471.5" y="77.0339"> </text><text fill="#000000" font-family="sans-serif" font-size="14" lengthAdjust="spacing" textLength="219" x="471.5" y="96.1018">Asignación de recursos eficiente</text><text fill="#000000" font-family="sans-serif" font-size="14" lengthAdjust="spacing" textLength="4" x="471.5" y="115.1697"> </text><text fill="#000000" font-family="sans-serif" font-size="14" lengthAdjust="spacing" textLength="194" x="471.5" y="134.2376">Anticipación a los problemas</text><text fill="#000000" font-family="sans-serif" font-size="14" lengthAdjust="spacing" textLength="4" x="471.5" y="153.3055"> </text><text fill="#000000" font-family="sans-serif" font-size="14" lengthAdjust="spacing" textLength="152" x="471.5" y="172.3734">Mejora de la eficiencia</text><text fill="#000000" font-family="sans-serif" font-size="14" lengthAdjust="spacing" textLength="4" x="471.5" y="191.4414"> </text><text fill="#000000" font-family="sans-serif" font-size="14" lengthAdjust="spacing" textLength="173" x="471.5" y="210.5093">Mejor toma de decisiones</text><line style="stroke:#181818;stroke-width:0.5;" x1="466.5" x2="695.5" y1="218.6113" y2="218.6113"/></g><!--MD5=[e84d49905efe192c0fbfcf2d67c5cc9a]
link Estrategia to Empresa--><g id="link_Estrategia_Empresa"><path codeLine="29" d="M215.18,117 C235.6,117 256.16,117 273.88,117 " fill="none" id="Estrategia-to-Empresa" style="stroke:#181818;stroke-width:1.0;stroke-dasharray:7.0,7.0;"/><polygon fill="#181818" points="279.28,117,270.28,113,274.28,117,270.28,121,279.28,117" style="stroke:#181818;stroke-width:1.0;"/><text fill="#000000" font-family="sans-serif" font-size="13" lengthAdjust="spacing" textLength="28" x="233.25" y="109.897">clara</text></g><!--MD5=[9852ca93c35272debaea89851a6ddae6]
reverse link Empresa to Planificación--><g id="link_Empresa_Planificación"><path codeLine="30" d="M375.82,117 C401.55,117 433.92,117 465.29,117 " fill="none" id="Empresa-backto-Planificación" style="stroke:#181818;stroke-width:1.0;stroke-dasharray:7.0,7.0;"/><polygon fill="#181818" points="370.77,117,379.77,121,375.77,117,379.77,113,370.77,117" style="stroke:#181818;stroke-width:1.0;"/><text fill="#000000" font-family="sans-serif" font-size="13" lengthAdjust="spacing" textLength="58" x="389" y="109.897">adecuada</text></g><!--MD5=[f3dcdf0f17729fc27bfe258f673377cd]
@startuml
class Empresa

class Estrategia {
    Dirección clara

    Gestión de recursos eficiente

    Diferenciación

    Flexibilidad

    Mejora continua
}

class Planificación{

    Objetivos claros

    Asignación de recursos eficiente
    
    Anticipación a los problemas
    
    Mejora de la eficiencia
    
    Mejor toma de decisiones

}

Estrategia ..r.> Empresa:clara
Planificación ..l.> Empresa:adecuada
@enduml

PlantUML version 1.2022.7(Mon Aug 22 19:01:30 CEST 2022)
(GPL source distribution)
Java Runtime: OpenJDK Runtime Environment
JVM: OpenJDK 64-Bit Server VM
Default Encoding: UTF-8
Language: es
Country: ES
--></g></svg>