<?xml version="1.0" encoding="UTF-8" standalone="no"?><svg xmlns="http://www.w3.org/2000/svg" xmlns:xlink="http://www.w3.org/1999/xlink" contentStyleType="text/css" height="356px" preserveAspectRatio="none" style="width:645px;height:356px;background:#FFFFFF;" version="1.1" viewBox="0 0 645 356" width="645px" zoomAndPan="magnify"><defs/><g><!--MD5=[1ec02a56cfdb0fb8691cbdccdb3560c9]
cluster Empresa--><g id="cluster_Empresa"><path d="M8.5,102 L69.5,102 A3.75,3.75 0 0 1 72,104.5 L79,127.0679 L450.5,127.0679 A2.5,2.5 0 0 1 453,129.5679 L453,346.5 A2.5,2.5 0 0 1 450.5,349 L8.5,349 A2.5,2.5 0 0 1 6,346.5 L6,104.5 A2.5,2.5 0 0 1 8.5,102 " fill="none" style="stroke:#000000;stroke-width:1.5;"/><line style="stroke:#000000;stroke-width:1.5;" x1="6" x2="79" y1="127.0679" y2="127.0679"/><text fill="#000000" font-family="sans-serif" font-size="14" font-weight="bold" lengthAdjust="spacing" textLength="60" x="10" y="118.9659">Empresa</text></g><!--MD5=[7d0e5ddd73bd8fec86b8967827845935]
class Empresa--><g id="elem_Empresa"><rect codeLine="2" fill="#F1F1F1" height="48" id="Empresa" rx="2.5" ry="2.5" style="stroke:#181818;stroke-width:0.5;" width="178" x="259" y="140"/><ellipse cx="274" cy="156" fill="#ADD1B2" rx="11" ry="11" style="stroke:#181818;stroke-width:1.0;"/><path d="M273.4688,162.9219 Q271.7188,162.9219 270.5781,162.1875 Q269.4531,161.4375 268.8906,160.0938 Q268.3438,158.7344 268.3438,156.9375 Q268.3438,154.9063 269,153.4531 Q269.6563,152 270.9375,151.2188 Q272.2188,150.4375 274.0938,150.4375 Q274.9844,150.4375 275.6563,150.625 Q276.3281,150.7969 277.0156,151.1406 L276.2031,153.1563 Q275.5781,152.8438 275.0313,152.7188 Q274.5,152.5938 274.0156,152.5938 Q272.8438,152.5938 272.1406,153.125 Q271.4375,153.6563 271.1406,154.6094 Q270.8438,155.5625 270.8438,156.8281 Q270.8438,158.8438 271.5625,159.8125 Q272.2813,160.7656 273.875,160.7656 Q274.4688,160.7656 275.0938,160.6094 Q275.7188,160.4531 276.5469,160.0781 L276.5469,162.2969 Q275.8125,162.6094 275.0156,162.7656 Q274.2344,162.9219 273.4688,162.9219 Z " fill="#000000"/><text fill="#000000" font-family="sans-serif" font-size="14" lengthAdjust="spacing" textLength="146" x="288" y="161.432">Iniciativa Empresarial</text><line style="stroke:#181818;stroke-width:0.5;" x1="260" x2="436" y1="172" y2="172"/><line style="stroke:#181818;stroke-width:0.5;" x1="260" x2="436" y1="180" y2="180"/></g><!--MD5=[78b72863b59ffa18eada8fec2f96cb5a]
class Ganancias--><g id="elem_Ganancias"><rect fill="#F1F1F1" height="48" id="Ganancias" rx="2.5" ry="2.5" style="stroke:#181818;stroke-width:0.5;" width="102" x="22" y="140"/><ellipse cx="37" cy="156" fill="#ADD1B2" rx="11" ry="11" style="stroke:#181818;stroke-width:1.0;"/><path d="M36.4688,162.9219 Q34.7188,162.9219 33.5781,162.1875 Q32.4531,161.4375 31.8906,160.0938 Q31.3438,158.7344 31.3438,156.9375 Q31.3438,154.9063 32,153.4531 Q32.6563,152 33.9375,151.2188 Q35.2188,150.4375 37.0938,150.4375 Q37.9844,150.4375 38.6563,150.625 Q39.3281,150.7969 40.0156,151.1406 L39.2031,153.1563 Q38.5781,152.8438 38.0313,152.7188 Q37.5,152.5938 37.0156,152.5938 Q35.8438,152.5938 35.1406,153.125 Q34.4375,153.6563 34.1406,154.6094 Q33.8438,155.5625 33.8438,156.8281 Q33.8438,158.8438 34.5625,159.8125 Q35.2813,160.7656 36.875,160.7656 Q37.4688,160.7656 38.0938,160.6094 Q38.7188,160.4531 39.5469,160.0781 L39.5469,162.2969 Q38.8125,162.6094 38.0156,162.7656 Q37.2344,162.9219 36.4688,162.9219 Z " fill="#000000"/><text fill="#000000" font-family="sans-serif" font-size="14" lengthAdjust="spacing" textLength="70" x="51" y="161.432">Ganancias</text><line style="stroke:#181818;stroke-width:0.5;" x1="23" x2="123" y1="172" y2="172"/><line style="stroke:#181818;stroke-width:0.5;" x1="23" x2="123" y1="180" y2="180"/></g><!--MD5=[e43593a76b6933288e377c0958382165]
class Accionistas--><g id="elem_Accionistas"><rect fill="#F1F1F1" height="48" id="Accionistas" rx="2.5" ry="2.5" style="stroke:#181818;stroke-width:0.5;" width="107" x="21.5" y="285"/><ellipse cx="36.5" cy="301" fill="#ADD1B2" rx="11" ry="11" style="stroke:#181818;stroke-width:1.0;"/><path d="M35.9688,307.9219 Q34.2188,307.9219 33.0781,307.1875 Q31.9531,306.4375 31.3906,305.0938 Q30.8438,303.7344 30.8438,301.9375 Q30.8438,299.9063 31.5,298.4531 Q32.1563,297 33.4375,296.2188 Q34.7188,295.4375 36.5938,295.4375 Q37.4844,295.4375 38.1563,295.625 Q38.8281,295.7969 39.5156,296.1406 L38.7031,298.1563 Q38.0781,297.8438 37.5313,297.7188 Q37,297.5938 36.5156,297.5938 Q35.3438,297.5938 34.6406,298.125 Q33.9375,298.6563 33.6406,299.6094 Q33.3438,300.5625 33.3438,301.8281 Q33.3438,303.8438 34.0625,304.8125 Q34.7813,305.7656 36.375,305.7656 Q36.9688,305.7656 37.5938,305.6094 Q38.2188,305.4531 39.0469,305.0781 L39.0469,307.2969 Q38.3125,307.6094 37.5156,307.7656 Q36.7344,307.9219 35.9688,307.9219 Z " fill="#000000"/><text fill="#000000" font-family="sans-serif" font-size="14" lengthAdjust="spacing" textLength="75" x="50.5" y="306.432">Accionistas</text><line style="stroke:#181818;stroke-width:0.5;" x1="22.5" x2="127.5" y1="317" y2="317"/><line style="stroke:#181818;stroke-width:0.5;" x1="22.5" x2="127.5" y1="325" y2="325"/></g><!--MD5=[90cbd1fbe3b97ffbe5ad30348823c0ca]
class Bienes o Servicios--><g id="elem_Bienes o Servicios"><rect fill="#F1F1F1" height="48" id="Bienes o Servicios" rx="2.5" ry="2.5" style="stroke:#181818;stroke-width:0.5;" width="152" x="272" y="285"/><ellipse cx="287" cy="301" fill="#ADD1B2" rx="11" ry="11" style="stroke:#181818;stroke-width:1.0;"/><path d="M286.4688,307.9219 Q284.7188,307.9219 283.5781,307.1875 Q282.4531,306.4375 281.8906,305.0938 Q281.3438,303.7344 281.3438,301.9375 Q281.3438,299.9063 282,298.4531 Q282.6563,297 283.9375,296.2188 Q285.2188,295.4375 287.0938,295.4375 Q287.9844,295.4375 288.6563,295.625 Q289.3281,295.7969 290.0156,296.1406 L289.2031,298.1563 Q288.5781,297.8438 288.0313,297.7188 Q287.5,297.5938 287.0156,297.5938 Q285.8438,297.5938 285.1406,298.125 Q284.4375,298.6563 284.1406,299.6094 Q283.8438,300.5625 283.8438,301.8281 Q283.8438,303.8438 284.5625,304.8125 Q285.2813,305.7656 286.875,305.7656 Q287.4688,305.7656 288.0938,305.6094 Q288.7188,305.4531 289.5469,305.0781 L289.5469,307.2969 Q288.8125,307.6094 288.0156,307.7656 Q287.2344,307.9219 286.4688,307.9219 Z " fill="#000000"/><text fill="#000000" font-family="sans-serif" font-size="14" lengthAdjust="spacing" textLength="120" x="301" y="306.432">Bienes o Servicios</text><line style="stroke:#181818;stroke-width:0.5;" x1="273" x2="423" y1="317" y2="317"/><line style="stroke:#181818;stroke-width:0.5;" x1="273" x2="423" y1="325" y2="325"/></g><!--MD5=[d00d34812ce7333c7bcaef496f56baf0]
class Valor--><g id="elem_Valor"><rect fill="#F1F1F1" height="48" id="Valor" rx="2.5" ry="2.5" style="stroke:#181818;stroke-width:0.5;" width="66" x="572" y="140"/><ellipse cx="587" cy="156" fill="#ADD1B2" rx="11" ry="11" style="stroke:#181818;stroke-width:1.0;"/><path d="M586.4688,162.9219 Q584.7188,162.9219 583.5781,162.1875 Q582.4531,161.4375 581.8906,160.0938 Q581.3438,158.7344 581.3438,156.9375 Q581.3438,154.9063 582,153.4531 Q582.6563,152 583.9375,151.2188 Q585.2188,150.4375 587.0938,150.4375 Q587.9844,150.4375 588.6563,150.625 Q589.3281,150.7969 590.0156,151.1406 L589.2031,153.1563 Q588.5781,152.8438 588.0313,152.7188 Q587.5,152.5938 587.0156,152.5938 Q585.8438,152.5938 585.1406,153.125 Q584.4375,153.6563 584.1406,154.6094 Q583.8438,155.5625 583.8438,156.8281 Q583.8438,158.8438 584.5625,159.8125 Q585.2813,160.7656 586.875,160.7656 Q587.4688,160.7656 588.0938,160.6094 Q588.7188,160.4531 589.5469,160.0781 L589.5469,162.2969 Q588.8125,162.6094 588.0156,162.7656 Q587.2344,162.9219 586.4688,162.9219 Z " fill="#000000"/><text fill="#000000" font-family="sans-serif" font-size="14" lengthAdjust="spacing" textLength="34" x="601" y="161.432">Valor</text><line style="stroke:#181818;stroke-width:0.5;" x1="573" x2="637" y1="172" y2="172"/><line style="stroke:#181818;stroke-width:0.5;" x1="573" x2="637" y1="180" y2="180"/></g><!--MD5=[1f6735a51315150a0a643a1ac05195e0]
class Organización--><g id="elem_Organización"><rect fill="#F1F1F1" height="48" id="Organización" rx="2.5" ry="2.5" style="stroke:#181818;stroke-width:0.5;" width="122" x="287" y="7"/><ellipse cx="302" cy="23" fill="#ADD1B2" rx="11" ry="11" style="stroke:#181818;stroke-width:1.0;"/><path d="M301.4688,29.9219 Q299.7188,29.9219 298.5781,29.1875 Q297.4531,28.4375 296.8906,27.0938 Q296.3438,25.7344 296.3438,23.9375 Q296.3438,21.9063 297,20.4531 Q297.6563,19 298.9375,18.2188 Q300.2188,17.4375 302.0938,17.4375 Q302.9844,17.4375 303.6563,17.625 Q304.3281,17.7969 305.0156,18.1406 L304.2031,20.1563 Q303.5781,19.8438 303.0313,19.7188 Q302.5,19.5938 302.0156,19.5938 Q300.8438,19.5938 300.1406,20.125 Q299.4375,20.6563 299.1406,21.6094 Q298.8438,22.5625 298.8438,23.8281 Q298.8438,25.8438 299.5625,26.8125 Q300.2813,27.7656 301.875,27.7656 Q302.4688,27.7656 303.0938,27.6094 Q303.7188,27.4531 304.5469,27.0781 L304.5469,29.2969 Q303.8125,29.6094 303.0156,29.7656 Q302.2344,29.9219 301.4688,29.9219 Z " fill="#000000"/><text fill="#000000" font-family="sans-serif" font-size="14" lengthAdjust="spacing" textLength="90" x="316" y="28.432">Organización</text><line style="stroke:#181818;stroke-width:0.5;" x1="288" x2="408" y1="39" y2="39"/><line style="stroke:#181818;stroke-width:0.5;" x1="288" x2="408" y1="47" y2="47"/></g><!--MD5=[abd2c9c6ce46269cbe00cfe900c26e5c]
class Clientes--><g id="elem_Clientes"><rect fill="#F1F1F1" height="48" id="Clientes" rx="2.5" ry="2.5" style="stroke:#181818;stroke-width:0.5;" width="86" x="515" y="285"/><ellipse cx="530" cy="301" fill="#ADD1B2" rx="11" ry="11" style="stroke:#181818;stroke-width:1.0;"/><path d="M529.4688,307.9219 Q527.7188,307.9219 526.5781,307.1875 Q525.4531,306.4375 524.8906,305.0938 Q524.3438,303.7344 524.3438,301.9375 Q524.3438,299.9063 525,298.4531 Q525.6563,297 526.9375,296.2188 Q528.2188,295.4375 530.0938,295.4375 Q530.9844,295.4375 531.6563,295.625 Q532.3281,295.7969 533.0156,296.1406 L532.2031,298.1563 Q531.5781,297.8438 531.0313,297.7188 Q530.5,297.5938 530.0156,297.5938 Q528.8438,297.5938 528.1406,298.125 Q527.4375,298.6563 527.1406,299.6094 Q526.8438,300.5625 526.8438,301.8281 Q526.8438,303.8438 527.5625,304.8125 Q528.2813,305.7656 529.875,305.7656 Q530.4688,305.7656 531.0938,305.6094 Q531.7188,305.4531 532.5469,305.0781 L532.5469,307.2969 Q531.8125,307.6094 531.0156,307.7656 Q530.2344,307.9219 529.4688,307.9219 Z " fill="#000000"/><text fill="#000000" font-family="sans-serif" font-size="14" lengthAdjust="spacing" textLength="54" x="544" y="306.432">Clientes</text><line style="stroke:#181818;stroke-width:0.5;" x1="516" x2="600" y1="317" y2="317"/><line style="stroke:#181818;stroke-width:0.5;" x1="516" x2="600" y1="325" y2="325"/></g><!--MD5=[a307834582407f0a12949affd15509a9]
link Ganancias to Empresa--><g id="link_Ganancias_Empresa"><path codeLine="3" d="M124.08,164 C161.83,164 214.18,164 258.78,164 " fill="none" id="Ganancias-Empresa" style="stroke:#181818;stroke-width:1.0;"/><polygon fill="#000000" points="141.5,151.853,150.5451,154.7919,150.5451,148.9141,141.5,151.853" style="stroke:#000000;stroke-width:1.0;"/><text fill="#000000" font-family="sans-serif" font-size="13" lengthAdjust="spacing" textLength="85" x="155.5" y="156.897">Busca generar</text></g><!--MD5=[7e6b3df97924c121aab672024a188f13]
link Ganancias to Accionistas--><g id="link_Ganancias_Accionistas"><path codeLine="4" d="M73.33,188.29 C73.7,214.89 74.3,258.13 74.67,284.72 " fill="none" id="Ganancias-Accionistas" style="stroke:#181818;stroke-width:1.0;"/></g><!--MD5=[3ac78f5e61d70761bca8dd83151ee405]
link Empresa to Bienes o Servicios--><g id="link_Empresa_Bienes o Servicios"><path codeLine="7" d="M348,188.29 C348,214.89 348,258.13 348,284.72 " fill="none" id="Empresa-Bienes o Servicios" style="stroke:#181818;stroke-width:1.0;"/><text fill="#000000" font-family="sans-serif" font-size="13" lengthAdjust="spacing" textLength="88" x="353.5" y="232.897">Produciendo o</text><polygon fill="#000000" points="354,250.559,356.9389,241.5139,351.0611,241.5139,354,250.559" style="stroke:#000000;stroke-width:1.0;"/><text fill="#000000" font-family="sans-serif" font-size="13" lengthAdjust="spacing" textLength="84" x="362" y="250.603">distribuyendo</text></g><!--MD5=[04421ecd9d2ee93961504e273cdc7378]
link Empresa to Valor--><g id="link_Empresa_Valor"><path codeLine="10" d="M437.16,164 C483.7,164 537.86,164 571.79,164 " fill="none" id="Empresa-Valor" style="stroke:#181818;stroke-width:1.0;"/><polygon fill="#000000" points="464.5,151.853,455.4549,148.9141,455.4549,154.7919,464.5,151.853" style="stroke:#000000;stroke-width:1.0;"/><text fill="#000000" font-family="sans-serif" font-size="13" lengthAdjust="spacing" textLength="85" x="468.5" y="156.897">Busca generar</text></g><!--MD5=[5b9a4a426cc74fb7baa4a27d47d1c0c1]
reverse link Organización to Empresa--><g id="link_Organización_Empresa"><path codeLine="11" d="M348,75.35 C348,96.81 348,121.86 348,139.67 " fill="none" id="Organización-backto-Empresa" style="stroke:#181818;stroke-width:1.0;"/><polygon fill="none" points="341,75.12,348,55.12,355,75.12,341,75.12" style="stroke:#181818;stroke-width:1.0;"/></g><!--MD5=[16284afe644169860b17c3a177e8b916]
link Bienes o Servicios to Clientes--><g id="link_Bienes o Servicios_Clientes"><path codeLine="12" d="M424.29,309 C454.5,309 484.7,309 514.91,309 " fill="none" id="Bienes o Servicios-Clientes" style="stroke:#181818;stroke-width:1.0;stroke-dasharray:7.0,7.0;"/></g><!--MD5=[0a690f44910ad2fb128c9071af32f3fe]
link Valor to Clientes--><g id="link_Valor_Clientes"><path codeLine="13" d="M597.34,188.29 C588.6,214.89 574.39,258.13 565.65,284.72 " fill="none" id="Valor-Clientes" style="stroke:#181818;stroke-width:1.0;"/></g><!--MD5=[a4c0404a3a5ddfd7d3909ab4366e544f]
@startuml
package Empresa {
    class "Iniciativa Empresarial" as Empresa 
    Empresa -l- Ganancias: Busca generar >
    Ganancias -d- Accionistas

    
    Empresa -d- "Bienes o Servicios": Produciendo o\n distribuyendo >
}

    Empresa -r- Valor: Busca generar >
Organización <|- - Empresa
"Bienes o Servicios" .r.. Clientes
Valor -d- Clientes

' hide class circle
' hide empty members
@enduml

@startuml
package Empresa {
    class "Iniciativa Empresarial" as Empresa 
    Empresa -l- Ganancias: Busca generar >
    Ganancias -d- Accionistas

    
    Empresa -d- "Bienes o Servicios": Produciendo o\n distribuyendo >
}

    Empresa -r- Valor: Busca generar >
Organización <|- - Empresa
"Bienes o Servicios" .r.. Clientes
Valor -d- Clientes

@enduml

PlantUML version 1.2022.7(Mon Aug 22 19:01:30 CEST 2022)
(GPL source distribution)
Java Runtime: OpenJDK Runtime Environment
JVM: OpenJDK 64-Bit Server VM
Default Encoding: UTF-8
Language: es
Country: ES
--></g></svg>