<?xml version="1.0" encoding="UTF-8" standalone="no"?><svg xmlns="http://www.w3.org/2000/svg" xmlns:xlink="http://www.w3.org/1999/xlink" contentStyleType="text/css" height="190px" preserveAspectRatio="none" style="width:404px;height:190px;background:#FFFFFF;" version="1.1" viewBox="0 0 404 190" width="404px" zoomAndPan="magnify"><defs/><g><!--MD5=[8b24f5a8f8af46f7b7b165e59b045d19]
class Estrategia--><g id="elem_Estrategia"><rect fill="#F1F1F1" height="48" id="Estrategia" rx="2.5" ry="2.5" style="stroke:#181818;stroke-width:0.5;" width="100" x="7" y="134"/><ellipse cx="22" cy="150" fill="#ADD1B2" rx="11" ry="11" style="stroke:#181818;stroke-width:1.0;"/><path d="M21.4688,156.9219 Q19.7188,156.9219 18.5781,156.1875 Q17.4531,155.4375 16.8906,154.0938 Q16.3438,152.7344 16.3438,150.9375 Q16.3438,148.9063 17,147.4531 Q17.6563,146 18.9375,145.2188 Q20.2188,144.4375 22.0938,144.4375 Q22.9844,144.4375 23.6563,144.625 Q24.3281,144.7969 25.0156,145.1406 L24.2031,147.1563 Q23.5781,146.8438 23.0313,146.7188 Q22.5,146.5938 22.0156,146.5938 Q20.8438,146.5938 20.1406,147.125 Q19.4375,147.6563 19.1406,148.6094 Q18.8438,149.5625 18.8438,150.8281 Q18.8438,152.8438 19.5625,153.8125 Q20.2813,154.7656 21.875,154.7656 Q22.4688,154.7656 23.0938,154.6094 Q23.7188,154.4531 24.5469,154.0781 L24.5469,156.2969 Q23.8125,156.6094 23.0156,156.7656 Q22.2344,156.9219 21.4688,156.9219 Z " fill="#000000"/><text fill="#000000" font-family="sans-serif" font-size="14" lengthAdjust="spacing" textLength="68" x="36" y="155.432">Estrategia</text><line style="stroke:#181818;stroke-width:0.5;" x1="8" x2="106" y1="166" y2="166"/><line style="stroke:#181818;stroke-width:0.5;" x1="8" x2="106" y1="174" y2="174"/></g><!--MD5=[7d0e5ddd73bd8fec86b8967827845935]
class Empresa--><g id="elem_Empresa"><rect fill="#F1F1F1" height="48" id="Empresa" rx="2.5" ry="2.5" style="stroke:#181818;stroke-width:0.5;" width="91" x="151.5" y="7"/><ellipse cx="166.5" cy="23" fill="#ADD1B2" rx="11" ry="11" style="stroke:#181818;stroke-width:1.0;"/><path d="M165.9688,29.9219 Q164.2188,29.9219 163.0781,29.1875 Q161.9531,28.4375 161.3906,27.0938 Q160.8438,25.7344 160.8438,23.9375 Q160.8438,21.9063 161.5,20.4531 Q162.1563,19 163.4375,18.2188 Q164.7188,17.4375 166.5938,17.4375 Q167.4844,17.4375 168.1563,17.625 Q168.8281,17.7969 169.5156,18.1406 L168.7031,20.1563 Q168.0781,19.8438 167.5313,19.7188 Q167,19.5938 166.5156,19.5938 Q165.3438,19.5938 164.6406,20.125 Q163.9375,20.6563 163.6406,21.6094 Q163.3438,22.5625 163.3438,23.8281 Q163.3438,25.8438 164.0625,26.8125 Q164.7813,27.7656 166.375,27.7656 Q166.9688,27.7656 167.5938,27.6094 Q168.2188,27.4531 169.0469,27.0781 L169.0469,29.2969 Q168.3125,29.6094 167.5156,29.7656 Q166.7344,29.9219 165.9688,29.9219 Z " fill="#000000"/><text fill="#000000" font-family="sans-serif" font-size="14" lengthAdjust="spacing" textLength="59" x="180.5" y="28.432">Empresa</text><line style="stroke:#181818;stroke-width:0.5;" x1="152.5" x2="241.5" y1="39" y2="39"/><line style="stroke:#181818;stroke-width:0.5;" x1="152.5" x2="241.5" y1="47" y2="47"/></g><!--MD5=[7771e62474b0382ee524a29783486a31]
class Planificación--><g id="elem_Planificación"><rect fill="#F1F1F1" height="48" id="Planificación" rx="2.5" ry="2.5" style="stroke:#181818;stroke-width:0.5;" width="117" x="280.5" y="134"/><ellipse cx="295.5" cy="150" fill="#ADD1B2" rx="11" ry="11" style="stroke:#181818;stroke-width:1.0;"/><path d="M294.9688,156.9219 Q293.2188,156.9219 292.0781,156.1875 Q290.9531,155.4375 290.3906,154.0938 Q289.8438,152.7344 289.8438,150.9375 Q289.8438,148.9063 290.5,147.4531 Q291.1563,146 292.4375,145.2188 Q293.7188,144.4375 295.5938,144.4375 Q296.4844,144.4375 297.1563,144.625 Q297.8281,144.7969 298.5156,145.1406 L297.7031,147.1563 Q297.0781,146.8438 296.5313,146.7188 Q296,146.5938 295.5156,146.5938 Q294.3438,146.5938 293.6406,147.125 Q292.9375,147.6563 292.6406,148.6094 Q292.3438,149.5625 292.3438,150.8281 Q292.3438,152.8438 293.0625,153.8125 Q293.7813,154.7656 295.375,154.7656 Q295.9688,154.7656 296.5938,154.6094 Q297.2188,154.4531 298.0469,154.0781 L298.0469,156.2969 Q297.3125,156.6094 296.5156,156.7656 Q295.7344,156.9219 294.9688,156.9219 Z " fill="#000000"/><text fill="#000000" font-family="sans-serif" font-size="14" lengthAdjust="spacing" textLength="85" x="309.5" y="155.432">Planificación</text><line style="stroke:#181818;stroke-width:0.5;" x1="281.5" x2="396.5" y1="166" y2="166"/><line style="stroke:#181818;stroke-width:0.5;" x1="281.5" x2="396.5" y1="174" y2="174"/></g><!--MD5=[3c335ff79f0fdc4b26d58479f66b684c]
link Empresa to Estrategia--><g id="link_Empresa_Estrategia"><path codeLine="1" d="M171,55.22 C145.85,77.67 107.96,111.5 82.87,133.91 " fill="none" id="Empresa-Estrategia" style="stroke:#181818;stroke-width:1.0;"/><polygon fill="#000000" points="144.7296,91.5229,136.0253,95.3549,139.9401,99.7394,144.7296,91.5229" style="stroke:#000000;stroke-width:1.0;"/><text fill="#000000" font-family="sans-serif" font-size="13" lengthAdjust="spacing" textLength="28" x="150" y="99.897">clara</text></g><!--MD5=[f01ddb3bb788e7ad58457e869a21cba9]
link Empresa to Planificación--><g id="link_Empresa_Planificación"><path codeLine="2" d="M223.38,55.22 C248.88,77.67 287.31,111.5 312.76,133.91 " fill="none" id="Empresa-Planificación" style="stroke:#181818;stroke-width:1.0;"/><polygon fill="#000000" points="277.2472,91.549,282.0941,99.7318,285.9781,95.3201,277.2472,91.549" style="stroke:#000000;stroke-width:1.0;"/><text fill="#000000" font-family="sans-serif" font-size="13" lengthAdjust="spacing" textLength="58" x="290" y="99.897">adecuada</text></g><!--MD5=[82815bccea1c1ca365078974f4dec8fb]
link Estrategia to Planificación--><g id="link_Estrategia_Planificación"><path codeLine="4" d="M107.21,169.54 C127.86,173.73 152.08,177.94 174.25,180 C207.66,183.11 244.71,178.85 275.19,173.28 " fill="none" id="Estrategia-to-Planificación" style="stroke:#181818;stroke-width:1.0;stroke-dasharray:7.0,7.0;"/><polygon fill="#181818" points="280.42,172.31,270.8338,170.0506,275.5069,173.2383,272.3192,177.9115,280.42,172.31" style="stroke:#181818;stroke-width:1.0;"/><text fill="#000000" font-family="sans-serif" font-size="13" lengthAdjust="spacing" textLength="37" x="175.25" y="175.897">Guía a</text></g><!--MD5=[382fac22c74cae8bc07bdc5171aea50a]
link Planificación to Estrategia--><g id="link_Planificación_Estrategia"><path codeLine="5" d="M280.36,158 C230.94,158 160.74,158 112.3,158 " fill="none" id="Planificación-to-Estrategia" style="stroke:#181818;stroke-width:1.0;stroke-dasharray:7.0,7.0;"/><polygon fill="#181818" points="107.09,158,116.09,162,112.09,158,116.09,154,107.09,158" style="stroke:#181818;stroke-width:1.0;"/><text fill="#000000" font-family="sans-serif" font-size="13" lengthAdjust="spacing" textLength="137" x="125.25" y="150.897">Ayuda a que se cumpla</text></g><!--MD5=[a478ba0132942856a39222723fc042b2]
@startuml
Estrategia -u- Empresa:> clara
Planificación -u- Empresa:> adecuada

Estrategia .r.> Planificación: Guía a
Planificación ...> Estrategia: Ayuda a que se cumpla
@enduml

PlantUML version 1.2022.7(Mon Aug 22 19:01:30 CEST 2022)
(GPL source distribution)
Java Runtime: OpenJDK Runtime Environment
JVM: OpenJDK 64-Bit Server VM
Default Encoding: UTF-8
Language: es
Country: ES
--></g></svg>