<?xml version="1.0" encoding="UTF-8" standalone="no"?><svg xmlns="http://www.w3.org/2000/svg" xmlns:xlink="http://www.w3.org/1999/xlink" contentStyleType="text/css" height="848px" preserveAspectRatio="none" style="width:1401px;height:848px;background:#FFFFFF;" version="1.1" viewBox="0 0 1401 848" width="1401px" zoomAndPan="magnify"><defs/><g><rect fill="#F1F1F1" height="39.0679" rx="12.5" ry="12.5" style="stroke:#181818;stroke-width:1.5;" width="128" x="598" y="403.9415"/><text fill="#000000" font-family="sans-serif" font-size="14" lengthAdjust="spacing" textLength="108" x="608" y="428.9074">Conceptos clave</text><rect fill="#F1F1F1" height="39.0679" rx="12.5" ry="12.5" style="stroke:#181818;stroke-width:1.5;" width="185" x="776" y="197.2038"/><text fill="#000000" font-family="sans-serif" font-size="14" lengthAdjust="spacing" textLength="165" x="786" y="222.1697">Tecnologías Emergentes</text><rect fill="#F1F1F1" height="39.0679" rx="12.5" ry="12.5" style="stroke:#181818;stroke-width:1.5;" width="77" x="1011" y="108.6019"/><text fill="#000000" font-family="sans-serif" font-size="14" lengthAdjust="spacing" textLength="57" x="1021" y="133.5678">Big Data</text><rect fill="#F1F1F1" height="39.0679" rx="12.5" ry="12.5" style="stroke:#181818;stroke-width:1.5;" width="213" x="1138" y="49.534"/><text fill="#000000" font-family="sans-serif" font-size="14" lengthAdjust="spacing" textLength="193" x="1148" y="74.4999">Inteligencia de Negocios (BI)</text><path d="M1088,128.1358 L1098,128.1358 C1113,128.1358 1113,69.0679 1128,69.0679 L1138,69.0679 " fill="none" style="stroke:#181818;stroke-width:1.0;"/><rect fill="#F1F1F1" height="39.0679" rx="12.5" ry="12.5" style="stroke:#181818;stroke-width:1.5;" width="142" x="1138" y="108.6019"/><text fill="#000000" font-family="sans-serif" font-size="14" lengthAdjust="spacing" textLength="122" x="1148" y="133.5678">Machine Learning</text><path d="M1088,128.1358 L1098,128.1358 C1113,128.1358 1113,128.1358 1128,128.1358 L1138,128.1358 " fill="none" style="stroke:#181818;stroke-width:1.0;"/><rect fill="#F1F1F1" height="39.0679" rx="12.5" ry="12.5" style="stroke:#181818;stroke-width:1.5;" width="138" x="1138" y="167.6698"/><text fill="#000000" font-family="sans-serif" font-size="14" lengthAdjust="spacing" textLength="118" x="1148" y="192.6357">Cloud Computing</text><path d="M1088,128.1358 L1098,128.1358 C1113,128.1358 1113,187.2038 1128,187.2038 L1138,187.2038 " fill="none" style="stroke:#181818;stroke-width:1.0;"/><path d="M961,216.7377 L971,216.7377 C986,216.7377 986,128.1358 1001,128.1358 L1011,128.1358 " fill="none" style="stroke:#181818;stroke-width:1.0;"/><rect fill="#F1F1F1" height="39.0679" rx="12.5" ry="12.5" style="stroke:#181818;stroke-width:1.5;" width="92" x="1011" y="226.7377"/><text fill="#000000" font-family="sans-serif" font-size="14" lengthAdjust="spacing" textLength="72" x="1021" y="251.7036">Blockchain</text><path d="M961,216.7377 L971,216.7377 C986,216.7377 986,246.2717 1001,246.2717 L1011,246.2717 " fill="none" style="stroke:#181818;stroke-width:1.0;"/><rect fill="#F1F1F1" height="39.0679" rx="12.5" ry="12.5" style="stroke:#181818;stroke-width:1.5;" width="186" x="1011" y="285.8056"/><text fill="#000000" font-family="sans-serif" font-size="14" lengthAdjust="spacing" textLength="166" x="1021" y="310.7716">Inteligencia Artificial (IA)</text><rect fill="#F1F1F1" height="39.0679" rx="12.5" ry="12.5" style="stroke:#181818;stroke-width:1.5;" width="142" x="1247" y="285.8056"/><text fill="#000000" font-family="sans-serif" font-size="14" lengthAdjust="spacing" textLength="122" x="1257" y="310.7716">Machine Learning</text><path d="M1197,305.3396 L1207,305.3396 C1222,305.3396 1222,305.3396 1237,305.3396 L1247,305.3396 " fill="none" style="stroke:#181818;stroke-width:1.0;"/><path d="M961,216.7377 L971,216.7377 C986,216.7377 986,305.3396 1001,305.3396 L1011,305.3396 " fill="none" style="stroke:#181818;stroke-width:1.0;"/><rect fill="#F1F1F1" height="39.0679" rx="12.5" ry="12.5" style="stroke:#181818;stroke-width:1.5;" width="175" x="1011" y="344.8735"/><text fill="#000000" font-family="sans-serif" font-size="14" lengthAdjust="spacing" textLength="155" x="1021" y="369.8395">Internet of Things (IoT)</text><rect fill="#F1F1F1" height="39.0679" rx="12.5" ry="12.5" style="stroke:#181818;stroke-width:1.5;" width="106" x="1236" y="344.8735"/><text fill="#000000" font-family="sans-serif" font-size="14" lengthAdjust="spacing" textLength="86" x="1246" y="369.8395">Industria 4.0</text><path d="M1186,364.4075 L1196,364.4075 C1211,364.4075 1211,364.4075 1226,364.4075 L1236,364.4075 " fill="none" style="stroke:#181818;stroke-width:1.0;"/><path d="M961,216.7377 L971,216.7377 C986,216.7377 986,364.4075 1001,364.4075 L1011,364.4075 " fill="none" style="stroke:#181818;stroke-width:1.0;"/><path d="M726,423.4754 L736,423.4754 C751,423.4754 751,216.7377 766,216.7377 L776,216.7377 " fill="none" style="stroke:#181818;stroke-width:1.0;"/><rect fill="#F1F1F1" height="39.0679" rx="12.5" ry="12.5" style="stroke:#181818;stroke-width:1.5;" width="175" x="776" y="463.0094"/><text fill="#000000" font-family="sans-serif" font-size="14" lengthAdjust="spacing" textLength="155" x="786" y="487.9753">Estrategias de Negocio</text><rect fill="#F1F1F1" height="39.0679" rx="12.5" ry="12.5" style="stroke:#181818;stroke-width:1.5;" width="174" x="1001" y="403.9415"/><text fill="#000000" font-family="sans-serif" font-size="14" lengthAdjust="spacing" textLength="154" x="1011" y="428.9074">Transformación Digital</text><path d="M951,482.5433 L961,482.5433 C976,482.5433 976,423.4754 991,423.4754 L1001,423.4754 " fill="none" style="stroke:#181818;stroke-width:1.0;"/><rect fill="#F1F1F1" height="39.0679" rx="12.5" ry="12.5" style="stroke:#181818;stroke-width:1.5;" width="104" x="1001" y="463.0094"/><text fill="#000000" font-family="sans-serif" font-size="14" lengthAdjust="spacing" textLength="84" x="1011" y="487.9753">Océano Azul</text><path d="M951,482.5433 L961,482.5433 C976,482.5433 976,482.5433 991,482.5433 L1001,482.5433 " fill="none" style="stroke:#181818;stroke-width:1.0;"/><rect fill="#F1F1F1" height="39.0679" rx="12.5" ry="12.5" style="stroke:#181818;stroke-width:1.5;" width="122" x="1001" y="522.0773"/><text fill="#000000" font-family="sans-serif" font-size="14" lengthAdjust="spacing" textLength="102" x="1011" y="547.0432">Modelo Canvas</text><path d="M951,482.5433 L961,482.5433 C976,482.5433 976,541.6113 991,541.6113 L1001,541.6113 " fill="none" style="stroke:#181818;stroke-width:1.0;"/><path d="M726,423.4754 L736,423.4754 C751,423.4754 751,482.5433 766,482.5433 L776,482.5433 " fill="none" style="stroke:#181818;stroke-width:1.0;"/><rect fill="#F1F1F1" height="39.0679" rx="12.5" ry="12.5" style="stroke:#181818;stroke-width:1.5;" width="171" x="776" y="669.7471"/><text fill="#000000" font-family="sans-serif" font-size="14" lengthAdjust="spacing" textLength="151" x="786" y="694.713">Gestión y Operaciones</text><rect fill="#F1F1F1" height="39.0679" rx="12.5" ry="12.5" style="stroke:#181818;stroke-width:1.5;" width="257" x="997" y="581.1452"/><text fill="#000000" font-family="sans-serif" font-size="14" lengthAdjust="spacing" textLength="237" x="1007" y="606.1111">ERP (Enterprise Resource Planning)</text><path d="M947,689.281 L957,689.281 C972,689.281 972,600.6792 987,600.6792 L997,600.6792 " fill="none" style="stroke:#181818;stroke-width:1.0;"/><rect fill="#F1F1F1" height="39.0679" rx="12.5" ry="12.5" style="stroke:#181818;stroke-width:1.5;" width="310" x="997" y="640.2131"/><text fill="#000000" font-family="sans-serif" font-size="14" lengthAdjust="spacing" textLength="290" x="1007" y="665.1791">CRM (Customer Relationship Management)</text><path d="M947,689.281 L957,689.281 C972,689.281 972,659.7471 987,659.7471 L997,659.7471 " fill="none" style="stroke:#181818;stroke-width:1.0;"/><rect fill="#F1F1F1" height="39.0679" rx="12.5" ry="12.5" style="stroke:#181818;stroke-width:1.5;" width="259" x="997" y="699.281"/><text fill="#000000" font-family="sans-serif" font-size="14" lengthAdjust="spacing" textLength="239" x="1007" y="724.247">Integración de Sistemas de Gestión</text><path d="M947,689.281 L957,689.281 C972,689.281 972,718.815 987,718.815 L997,718.815 " fill="none" style="stroke:#181818;stroke-width:1.0;"/><rect fill="#F1F1F1" height="39.0679" rx="12.5" ry="12.5" style="stroke:#181818;stroke-width:1.5;" width="45" x="997" y="758.349"/><text fill="#000000" font-family="sans-serif" font-size="14" lengthAdjust="spacing" textLength="25" x="1007" y="783.3149">ITIL</text><path d="M947,689.281 L957,689.281 C972,689.281 972,777.8829 987,777.8829 L997,777.8829 " fill="none" style="stroke:#181818;stroke-width:1.0;"/><path d="M726,423.4754 L736,423.4754 C751,423.4754 751,689.281 766,689.281 L776,689.281 " fill="none" style="stroke:#181818;stroke-width:1.0;"/><rect fill="#F1F1F1" height="39.0679" rx="12.5" ry="12.5" style="stroke:#181818;stroke-width:1.5;" width="175" x="373" y="49.534"/><text fill="#000000" font-family="sans-serif" font-size="14" lengthAdjust="spacing" textLength="155" x="383" y="74.4999">Seguridad y Protección</text><rect fill="#F1F1F1" height="39.0679" rx="12.5" ry="12.5" style="stroke:#181818;stroke-width:1.5;" width="125" x="198" y="20"/><text fill="#000000" font-family="sans-serif" font-size="14" lengthAdjust="spacing" textLength="105" x="208" y="44.9659">Ciberseguridad</text><path d="M373,69.0679 L363,69.0679 C348,69.0679 348,39.534 333,39.534 L323,39.534 " fill="none" style="stroke:#181818;stroke-width:1.0;"/><rect fill="#F1F1F1" height="39.0679" rx="12.5" ry="12.5" style="stroke:#181818;stroke-width:1.5;" width="138" x="185" y="79.0679"/><text fill="#000000" font-family="sans-serif" font-size="14" lengthAdjust="spacing" textLength="118" x="195" y="104.0339">Cloud Computing</text><path d="M373,69.0679 L363,69.0679 C348,69.0679 348,98.6019 333,98.6019 L323,98.6019 " fill="none" style="stroke:#181818;stroke-width:1.0;"/><path d="M598,423.4754 L588,423.4754 C573,423.4754 573,69.0679 558,69.0679 L548,69.0679 " fill="none" style="stroke:#181818;stroke-width:1.0;"/><rect fill="#F1F1F1" height="39.0679" rx="12.5" ry="12.5" style="stroke:#181818;stroke-width:1.5;" width="178" x="370" y="226.7377"/><text fill="#000000" font-family="sans-serif" font-size="14" lengthAdjust="spacing" textLength="158" x="380" y="251.7036">Innovación y Desarrollo</text><rect fill="#F1F1F1" height="39.0679" rx="12.5" ry="12.5" style="stroke:#181818;stroke-width:1.5;" width="94" x="226" y="138.1358"/><text fill="#000000" font-family="sans-serif" font-size="14" lengthAdjust="spacing" textLength="74" x="236" y="163.1018">Innovación</text><path d="M370,246.2717 L360,246.2717 C345,246.2717 345,157.6698 330,157.6698 L320,157.6698 " fill="none" style="stroke:#181818;stroke-width:1.0;"/><rect fill="#F1F1F1" height="39.0679" rx="12.5" ry="12.5" style="stroke:#181818;stroke-width:1.5;" width="118" x="202" y="197.2038"/><text fill="#000000" font-family="sans-serif" font-size="14" lengthAdjust="spacing" textLength="98" x="212" y="222.1697">Talento Digital</text><path d="M370,246.2717 L360,246.2717 C345,246.2717 345,216.7377 330,216.7377 L320,216.7377 " fill="none" style="stroke:#181818;stroke-width:1.0;"/><rect fill="#F1F1F1" height="39.0679" rx="12.5" ry="12.5" style="stroke:#181818;stroke-width:1.5;" width="111" x="209" y="256.2717"/><text fill="#000000" font-family="sans-serif" font-size="14" lengthAdjust="spacing" textLength="91" x="219" y="281.2376">Talento STEM</text><path d="M370,246.2717 L360,246.2717 C345,246.2717 345,275.8056 330,275.8056 L320,275.8056 " fill="none" style="stroke:#181818;stroke-width:1.0;"/><rect fill="#F1F1F1" height="39.0679" rx="12.5" ry="12.5" style="stroke:#181818;stroke-width:1.5;" width="151" x="169" y="315.3396"/><text fill="#000000" font-family="sans-serif" font-size="14" lengthAdjust="spacing" textLength="131" x="179" y="340.3055">Profesionales STEM</text><path d="M370,246.2717 L360,246.2717 C345,246.2717 345,334.8735 330,334.8735 L320,334.8735 " fill="none" style="stroke:#181818;stroke-width:1.0;"/><path d="M598,423.4754 L588,423.4754 C573,423.4754 573,246.2717 558,246.2717 L548,246.2717 " fill="none" style="stroke:#181818;stroke-width:1.0;"/><rect fill="#F1F1F1" height="39.0679" rx="12.5" ry="12.5" style="stroke:#181818;stroke-width:1.5;" width="171" x="377" y="433.4754"/><text fill="#000000" font-family="sans-serif" font-size="14" lengthAdjust="spacing" textLength="151" x="387" y="458.4414">Comunicación y Redes</text><rect fill="#F1F1F1" height="39.0679" rx="12.5" ry="12.5" style="stroke:#181818;stroke-width:1.5;" width="150" x="177" y="374.4075"/><text fill="#000000" font-family="sans-serif" font-size="14" lengthAdjust="spacing" textLength="130" x="187" y="399.3734">Redes Informáticas</text><rect fill="#F1F1F1" height="39.0679" rx="12.5" ry="12.5" style="stroke:#181818;stroke-width:1.5;" width="117" x="10" y="374.4075"/><text fill="#000000" font-family="sans-serif" font-size="14" lengthAdjust="spacing" textLength="97" x="20" y="399.3734">Modelo TCP/IP</text><path d="M177,393.9415 L167,393.9415 C152,393.9415 152,393.9415 137,393.9415 L127,393.9415 " fill="none" style="stroke:#181818;stroke-width:1.0;"/><path d="M377,453.0094 L367,453.0094 C352,453.0094 352,393.9415 337,393.9415 L327,393.9415 " fill="none" style="stroke:#181818;stroke-width:1.0;"/><rect fill="#F1F1F1" height="39.0679" rx="12.5" ry="12.5" style="stroke:#181818;stroke-width:1.5;" width="47" x="280" y="433.4754"/><text fill="#000000" font-family="sans-serif" font-size="14" lengthAdjust="spacing" textLength="27" x="290" y="458.4414">NFC</text><path d="M377,453.0094 L367,453.0094 C352,453.0094 352,453.0094 337,453.0094 L327,453.0094 " fill="none" style="stroke:#181818;stroke-width:1.0;"/><rect fill="#F1F1F1" height="39.0679" rx="12.5" ry="12.5" style="stroke:#181818;stroke-width:1.5;" width="76" x="251" y="492.5433"/><text fill="#000000" font-family="sans-serif" font-size="14" lengthAdjust="spacing" textLength="56" x="261" y="517.5093">Latencia</text><path d="M377,453.0094 L367,453.0094 C352,453.0094 352,512.0773 337,512.0773 L327,512.0773 " fill="none" style="stroke:#181818;stroke-width:1.0;"/><path d="M598,423.4754 L588,423.4754 C573,423.4754 573,453.0094 558,453.0094 L548,453.0094 " fill="none" style="stroke:#181818;stroke-width:1.0;"/><rect fill="#F1F1F1" height="39.0679" rx="12.5" ry="12.5" style="stroke:#181818;stroke-width:1.5;" width="168" x="380" y="581.1452"/><text fill="#000000" font-family="sans-serif" font-size="14" lengthAdjust="spacing" textLength="148" x="390" y="606.1111">Experiencias Digitales</text><rect fill="#F1F1F1" height="39.0679" rx="12.5" ry="12.5" style="stroke:#181818;stroke-width:1.5;" width="191" x="139" y="551.6113"/><text fill="#000000" font-family="sans-serif" font-size="14" lengthAdjust="spacing" textLength="171" x="149" y="576.5772">Realidad Aumentada (RA)</text><path d="M380,600.6792 L370,600.6792 C355,600.6792 355,571.1452 340,571.1452 L330,571.1452 " fill="none" style="stroke:#181818;stroke-width:1.0;"/><rect fill="#F1F1F1" height="39.0679" rx="12.5" ry="12.5" style="stroke:#181818;stroke-width:1.5;" width="156" x="174" y="610.6792"/><text fill="#000000" font-family="sans-serif" font-size="14" lengthAdjust="spacing" textLength="136" x="184" y="635.6451">Realidad Virtual (RV)</text><path d="M380,600.6792 L370,600.6792 C355,600.6792 355,630.2131 340,630.2131 L330,630.2131 " fill="none" style="stroke:#181818;stroke-width:1.0;"/><path d="M598,423.4754 L588,423.4754 C573,423.4754 573,600.6792 558,600.6792 L548,600.6792 " fill="none" style="stroke:#181818;stroke-width:1.0;"/><rect fill="#F1F1F1" height="39.0679" rx="12.5" ry="12.5" style="stroke:#181818;stroke-width:1.5;" width="154" x="394" y="728.815"/><text fill="#000000" font-family="sans-serif" font-size="14" lengthAdjust="spacing" textLength="134" x="404" y="753.7809">Métodos de Trabajo</text><rect fill="#F1F1F1" height="39.0679" rx="12.5" ry="12.5" style="stroke:#181818;stroke-width:1.5;" width="104" x="240" y="669.7471"/><text fill="#000000" font-family="sans-serif" font-size="14" lengthAdjust="spacing" textLength="84" x="250" y="694.713">Outsourcing</text><path d="M394,748.349 L384,748.349 C369,748.349 369,689.281 354,689.281 L344,689.281 " fill="none" style="stroke:#181818;stroke-width:1.0;"/><rect fill="#F1F1F1" height="39.0679" rx="12.5" ry="12.5" style="stroke:#181818;stroke-width:1.5;" width="175" x="169" y="728.815"/><text fill="#000000" font-family="sans-serif" font-size="14" lengthAdjust="spacing" textLength="155" x="179" y="753.7809">Operación de Sistemas</text><path d="M394,748.349 L384,748.349 C369,748.349 369,748.349 354,748.349 L344,748.349 " fill="none" style="stroke:#181818;stroke-width:1.0;"/><rect fill="#F1F1F1" height="39.0679" rx="12.5" ry="12.5" style="stroke:#181818;stroke-width:1.5;" width="221" x="123" y="787.8829"/><text fill="#000000" font-family="sans-serif" font-size="14" lengthAdjust="spacing" textLength="201" x="133" y="812.8489">SLA (Service Level Agreement)</text><path d="M394,748.349 L384,748.349 C369,748.349 369,807.4169 354,807.4169 L344,807.4169 " fill="none" style="stroke:#181818;stroke-width:1.0;"/><path d="M598,423.4754 L588,423.4754 C573,423.4754 573,748.349 558,748.349 L548,748.349 " fill="none" style="stroke:#181818;stroke-width:1.0;"/><!--MD5=[8355ba7f577a91c97297e0eb5680b997]
@startmindmap


+ Conceptos clave
++ Tecnologías Emergentes
+++ Big Data
++++ Inteligencia de Negocios (BI)
++++ Machine Learning
++++ Cloud Computing
+++ Blockchain
+++ Inteligencia Artificial (IA)
++++ Machine Learning
+++ Internet of Things (IoT)
++++ Industria 4.0

++ Estrategias de Negocio
+++ Transformación Digital
+++ Océano Azul
+++ Modelo Canvas

++ Gestión y Operaciones
+++ ERP (Enterprise Resource Planning)
+++ CRM (Customer Relationship Management)
+++ Integración de Sistemas de Gestión
+++ ITIL

- - Seguridad y Protección
- - - Ciberseguridad
- - - Cloud Computing

- - Innovación y Desarrollo
- - - Innovación
- - - Talento Digital
- - - Talento STEM
- - - Profesionales STEM

- - Comunicación y Redes
- - - Redes Informáticas
- - - - Modelo TCP/IP
- - - NFC
- - - Latencia

- - Experiencias Digitales
- - - Realidad Aumentada (RA)
- - - Realidad Virtual (RV)

- - Métodos de Trabajo
- - - Outsourcing
- - - Operación de Sistemas
- - - SLA (Service Level Agreement)

@endmindmap

PlantUML version 1.2022.7(Mon Aug 22 19:01:30 CEST 2022)
(GPL source distribution)
Java Runtime: OpenJDK Runtime Environment
JVM: OpenJDK 64-Bit Server VM
Default Encoding: UTF-8
Language: es
Country: ES
--></g></svg>