<?xml version="1.0" encoding="UTF-8" standalone="no"?><svg xmlns="http://www.w3.org/2000/svg" xmlns:xlink="http://www.w3.org/1999/xlink" contentStyleType="text/css" height="354px" preserveAspectRatio="none" style="width:5512px;height:354px;background:#FFFFFF;" version="1.1" viewBox="0 0 5512 354" width="5512px" zoomAndPan="magnify"><defs/><g><!--MD5=[9baa554fc1f231314262aac0d5f8dc0e]
class BigData--><g id="elem_BigData"><rect codeLine="1" fill="#F1F1F1" height="67.0679" id="BigData" rx="2.5" ry="2.5" style="stroke:#181818;stroke-width:0.5;" width="378" x="551" y="16.5"/><ellipse cx="709.25" cy="32.5" fill="#ADD1B2" rx="11" ry="11" style="stroke:#181818;stroke-width:1.0;"/><path d="M709.0469,39.2344 Q706.5625,39.2344 705.2344,37.5938 Q703.9219,35.9219 703.9219,32.8125 Q703.9219,29.6875 705.2344,28.0313 Q706.5625,26.375 709.0469,26.375 Q709.7656,26.375 710.4219,26.5313 Q711.0625,26.6875 711.625,26.9844 L711.625,29.7031 Q711.2656,29.3594 710.9688,29.1719 Q710.6719,28.9688 710.4063,28.8438 Q710.0938,28.7031 709.7813,28.6406 Q709.4844,28.5781 709.1719,28.5781 Q707.8438,28.5781 707.1563,29.6406 Q706.4688,30.7344 706.4688,32.8125 Q706.4688,34.9063 707.1563,35.9688 Q707.8438,37.0469 709.1719,37.0469 Q709.8125,37.0469 710.4063,36.7656 Q710.7031,36.6406 710.9844,36.4531 Q711.2813,36.25 711.625,35.9219 L711.625,38.6406 Q711.0469,38.9375 710.4063,39.0938 Q709.7813,39.2344 709.0469,39.2344 Z " fill="#000000"/><text fill="#000000" font-family="sans-serif" font-size="14" lengthAdjust="spacing" textLength="53" x="729.75" y="37.932">BigData</text><line style="stroke:#181818;stroke-width:0.5;" x1="552" x2="928" y1="48.5" y2="48.5"/><ellipse cx="562" cy="63.534" fill="none" rx="3" ry="3" style="stroke:#038048;stroke-width:1.0;"/><text fill="#000000" font-family="sans-serif" font-size="14" lengthAdjust="spacing" textLength="352" x="571" y="67.4659">5 Vs: Volumen, Variedad, Velocidad, Veracidad, Valor</text><line style="stroke:#181818;stroke-width:0.5;" x1="552" x2="928" y1="75.5679" y2="75.5679"/></g><!--MD5=[04d4f9b1edda2793a31ab6271d9214d1]
class Blockchain--><g id="elem_Blockchain"><rect codeLine="5" fill="#F1F1F1" height="86.1358" id="Blockchain" rx="2.5" ry="2.5" style="stroke:#181818;stroke-width:0.5;" width="215" x="1720.5" y="7"/><ellipse cx="1787.75" cy="23" fill="#ADD1B2" rx="11" ry="11" style="stroke:#181818;stroke-width:1.0;"/><path d="M1787.5469,29.7344 Q1785.0625,29.7344 1783.7344,28.0938 Q1782.4219,26.4219 1782.4219,23.3125 Q1782.4219,20.1875 1783.7344,18.5313 Q1785.0625,16.875 1787.5469,16.875 Q1788.2656,16.875 1788.9219,17.0313 Q1789.5625,17.1875 1790.125,17.4844 L1790.125,20.2031 Q1789.7656,19.8594 1789.4688,19.6719 Q1789.1719,19.4688 1788.9063,19.3438 Q1788.5938,19.2031 1788.2813,19.1406 Q1787.9844,19.0781 1787.6719,19.0781 Q1786.3438,19.0781 1785.6563,20.1406 Q1784.9688,21.2344 1784.9688,23.3125 Q1784.9688,25.4063 1785.6563,26.4688 Q1786.3438,27.5469 1787.6719,27.5469 Q1788.3125,27.5469 1788.9063,27.2656 Q1789.2031,27.1406 1789.4844,26.9531 Q1789.7813,26.75 1790.125,26.4219 L1790.125,29.1406 Q1789.5469,29.4375 1788.9063,29.5938 Q1788.2813,29.7344 1787.5469,29.7344 Z " fill="#000000"/><text fill="#000000" font-family="sans-serif" font-size="14" lengthAdjust="spacing" textLength="72" x="1808.25" y="28.432">Blockchain</text><line style="stroke:#181818;stroke-width:0.5;" x1="1721.5" x2="1934.5" y1="39" y2="39"/><ellipse cx="1731.5" cy="54.034" fill="none" rx="3" ry="3" style="stroke:#038048;stroke-width:1.0;"/><text fill="#000000" font-family="sans-serif" font-size="14" lengthAdjust="spacing" textLength="189" x="1740.5" y="57.9659">Seguridad mediante cifrado</text><ellipse cx="1731.5" cy="73.1019" fill="none" rx="3" ry="3" style="stroke:#038048;stroke-width:1.0;"/><text fill="#000000" font-family="sans-serif" font-size="14" lengthAdjust="spacing" textLength="176" x="1740.5" y="77.0339">Transacciones inmutables</text><line style="stroke:#181818;stroke-width:0.5;" x1="1721.5" x2="1934.5" y1="85.1358" y2="85.1358"/></g><!--MD5=[5edf34eb39d3b3dfde6419c044ab889f]
class Canvas--><g id="elem_Canvas"><rect codeLine="10" fill="#F1F1F1" height="67.0679" id="Canvas" rx="2.5" ry="2.5" style="stroke:#181818;stroke-width:0.5;" width="244" x="7" y="16.5"/><ellipse cx="100.75" cy="32.5" fill="#ADD1B2" rx="11" ry="11" style="stroke:#181818;stroke-width:1.0;"/><path d="M100.5469,39.2344 Q98.0625,39.2344 96.7344,37.5938 Q95.4219,35.9219 95.4219,32.8125 Q95.4219,29.6875 96.7344,28.0313 Q98.0625,26.375 100.5469,26.375 Q101.2656,26.375 101.9219,26.5313 Q102.5625,26.6875 103.125,26.9844 L103.125,29.7031 Q102.7656,29.3594 102.4688,29.1719 Q102.1719,28.9688 101.9063,28.8438 Q101.5938,28.7031 101.2813,28.6406 Q100.9844,28.5781 100.6719,28.5781 Q99.3438,28.5781 98.6563,29.6406 Q97.9688,30.7344 97.9688,32.8125 Q97.9688,34.9063 98.6563,35.9688 Q99.3438,37.0469 100.6719,37.0469 Q101.3125,37.0469 101.9063,36.7656 Q102.2031,36.6406 102.4844,36.4531 Q102.7813,36.25 103.125,35.9219 L103.125,38.6406 Q102.5469,38.9375 101.9063,39.0938 Q101.2813,39.2344 100.5469,39.2344 Z " fill="#000000"/><text fill="#000000" font-family="sans-serif" font-size="14" lengthAdjust="spacing" textLength="48" x="121.25" y="37.932">Canvas</text><line style="stroke:#181818;stroke-width:0.5;" x1="8" x2="250" y1="48.5" y2="48.5"/><ellipse cx="18" cy="63.534" fill="none" rx="3" ry="3" style="stroke:#038048;stroke-width:1.0;"/><text fill="#000000" font-family="sans-serif" font-size="14" lengthAdjust="spacing" textLength="218" x="27" y="67.4659">Modelo de negocio Lean Startup</text><line style="stroke:#181818;stroke-width:0.5;" x1="8" x2="250" y1="75.5679" y2="75.5679"/></g><!--MD5=[d9250991c951eac8159cb0a47fb53be7]
class Ciberseguridad--><g id="elem_Ciberseguridad"><rect codeLine="14" fill="#F1F1F1" height="67.0679" id="Ciberseguridad" rx="2.5" ry="2.5" style="stroke:#181818;stroke-width:0.5;" width="275" x="1690.5" y="153"/><ellipse cx="1771.25" cy="169" fill="#ADD1B2" rx="11" ry="11" style="stroke:#181818;stroke-width:1.0;"/><path d="M1771.0469,175.7344 Q1768.5625,175.7344 1767.2344,174.0938 Q1765.9219,172.4219 1765.9219,169.3125 Q1765.9219,166.1875 1767.2344,164.5313 Q1768.5625,162.875 1771.0469,162.875 Q1771.7656,162.875 1772.4219,163.0313 Q1773.0625,163.1875 1773.625,163.4844 L1773.625,166.2031 Q1773.2656,165.8594 1772.9688,165.6719 Q1772.6719,165.4688 1772.4063,165.3438 Q1772.0938,165.2031 1771.7813,165.1406 Q1771.4844,165.0781 1771.1719,165.0781 Q1769.8438,165.0781 1769.1563,166.1406 Q1768.4688,167.2344 1768.4688,169.3125 Q1768.4688,171.4063 1769.1563,172.4688 Q1769.8438,173.5469 1771.1719,173.5469 Q1771.8125,173.5469 1772.4063,173.2656 Q1772.7031,173.1406 1772.9844,172.9531 Q1773.2813,172.75 1773.625,172.4219 L1773.625,175.1406 Q1773.0469,175.4375 1772.4063,175.5938 Q1771.7813,175.7344 1771.0469,175.7344 Z " fill="#000000"/><text fill="#000000" font-family="sans-serif" font-size="14" lengthAdjust="spacing" textLength="105" x="1791.75" y="174.432">Ciberseguridad</text><line style="stroke:#181818;stroke-width:0.5;" x1="1691.5" x2="1964.5" y1="185" y2="185"/><ellipse cx="1701.5" cy="200.034" fill="none" rx="3" ry="3" style="stroke:#038048;stroke-width:1.0;"/><text fill="#000000" font-family="sans-serif" font-size="14" lengthAdjust="spacing" textLength="249" x="1710.5" y="203.9659">Protección contra ataques maliciosos</text><line style="stroke:#181818;stroke-width:0.5;" x1="1691.5" x2="1964.5" y1="212.0679" y2="212.0679"/></g><!--MD5=[d0dfe641614986a70f045bcebdd2bb4e]
class CloudComputing--><g id="elem_CloudComputing"><rect codeLine="18" fill="#F1F1F1" height="67.0679" id="CloudComputing" rx="2.5" ry="2.5" style="stroke:#181818;stroke-width:0.5;" width="222" x="2040" y="16.5"/><ellipse cx="2089.75" cy="32.5" fill="#ADD1B2" rx="11" ry="11" style="stroke:#181818;stroke-width:1.0;"/><path d="M2089.5469,39.2344 Q2087.0625,39.2344 2085.7344,37.5938 Q2084.4219,35.9219 2084.4219,32.8125 Q2084.4219,29.6875 2085.7344,28.0313 Q2087.0625,26.375 2089.5469,26.375 Q2090.2656,26.375 2090.9219,26.5313 Q2091.5625,26.6875 2092.125,26.9844 L2092.125,29.7031 Q2091.7656,29.3594 2091.4688,29.1719 Q2091.1719,28.9688 2090.9063,28.8438 Q2090.5938,28.7031 2090.2813,28.6406 Q2089.9844,28.5781 2089.6719,28.5781 Q2088.3438,28.5781 2087.6563,29.6406 Q2086.9688,30.7344 2086.9688,32.8125 Q2086.9688,34.9063 2087.6563,35.9688 Q2088.3438,37.0469 2089.6719,37.0469 Q2090.3125,37.0469 2090.9063,36.7656 Q2091.2031,36.6406 2091.4844,36.4531 Q2091.7813,36.25 2092.125,35.9219 L2092.125,38.6406 Q2091.5469,38.9375 2090.9063,39.0938 Q2090.2813,39.2344 2089.5469,39.2344 Z " fill="#000000"/><text fill="#000000" font-family="sans-serif" font-size="14" lengthAdjust="spacing" textLength="114" x="2110.25" y="37.932">CloudComputing</text><line style="stroke:#181818;stroke-width:0.5;" x1="2041" x2="2261" y1="48.5" y2="48.5"/><ellipse cx="2051" cy="63.534" fill="none" rx="3" ry="3" style="stroke:#038048;stroke-width:1.0;"/><text fill="#000000" font-family="sans-serif" font-size="14" lengthAdjust="spacing" textLength="196" x="2060" y="67.4659">Servicios a través de Internet</text><line style="stroke:#181818;stroke-width:0.5;" x1="2041" x2="2261" y1="75.5679" y2="75.5679"/></g><!--MD5=[3ef16116ccfcd073eee65e74a62069b4]
class CRM--><g id="elem_CRM"><rect codeLine="22" fill="#F1F1F1" height="67.0679" id="CRM" rx="2.5" ry="2.5" style="stroke:#181818;stroke-width:0.5;" width="301" x="2000.5" y="153"/><ellipse cx="2131.25" cy="169" fill="#ADD1B2" rx="11" ry="11" style="stroke:#181818;stroke-width:1.0;"/><path d="M2131.0469,175.7344 Q2128.5625,175.7344 2127.2344,174.0938 Q2125.9219,172.4219 2125.9219,169.3125 Q2125.9219,166.1875 2127.2344,164.5313 Q2128.5625,162.875 2131.0469,162.875 Q2131.7656,162.875 2132.4219,163.0313 Q2133.0625,163.1875 2133.625,163.4844 L2133.625,166.2031 Q2133.2656,165.8594 2132.9688,165.6719 Q2132.6719,165.4688 2132.4063,165.3438 Q2132.0938,165.2031 2131.7813,165.1406 Q2131.4844,165.0781 2131.1719,165.0781 Q2129.8438,165.0781 2129.1563,166.1406 Q2128.4688,167.2344 2128.4688,169.3125 Q2128.4688,171.4063 2129.1563,172.4688 Q2129.8438,173.5469 2131.1719,173.5469 Q2131.8125,173.5469 2132.4063,173.2656 Q2132.7031,173.1406 2132.9844,172.9531 Q2133.2813,172.75 2133.625,172.4219 L2133.625,175.1406 Q2133.0469,175.4375 2132.4063,175.5938 Q2131.7813,175.7344 2131.0469,175.7344 Z " fill="#000000"/><text fill="#000000" font-family="sans-serif" font-size="14" lengthAdjust="spacing" textLength="31" x="2151.75" y="174.432">CRM</text><line style="stroke:#181818;stroke-width:0.5;" x1="2001.5" x2="2300.5" y1="185" y2="185"/><ellipse cx="2011.5" cy="200.034" fill="none" rx="3" ry="3" style="stroke:#038048;stroke-width:1.0;"/><text fill="#000000" font-family="sans-serif" font-size="14" lengthAdjust="spacing" textLength="275" x="2020.5" y="203.9659">Gestión de las relaciones con los clientes</text><line style="stroke:#181818;stroke-width:0.5;" x1="2001.5" x2="2300.5" y1="212.0679" y2="212.0679"/></g><!--MD5=[5d9f4c09ea25f20576f422d98756d5d9]
class ECommerce--><g id="elem_ECommerce"><rect codeLine="26" fill="#F1F1F1" height="67.0679" id="ECommerce" rx="2.5" ry="2.5" style="stroke:#181818;stroke-width:0.5;" width="176" x="2666" y="153"/><ellipse cx="2709.8" cy="169" fill="#ADD1B2" rx="11" ry="11" style="stroke:#181818;stroke-width:1.0;"/><path d="M2709.5969,175.7344 Q2707.1125,175.7344 2705.7844,174.0938 Q2704.4719,172.4219 2704.4719,169.3125 Q2704.4719,166.1875 2705.7844,164.5313 Q2707.1125,162.875 2709.5969,162.875 Q2710.3156,162.875 2710.9719,163.0313 Q2711.6125,163.1875 2712.175,163.4844 L2712.175,166.2031 Q2711.8156,165.8594 2711.5188,165.6719 Q2711.2219,165.4688 2710.9563,165.3438 Q2710.6438,165.2031 2710.3313,165.1406 Q2710.0344,165.0781 2709.7219,165.0781 Q2708.3938,165.0781 2707.7063,166.1406 Q2707.0188,167.2344 2707.0188,169.3125 Q2707.0188,171.4063 2707.7063,172.4688 Q2708.3938,173.5469 2709.7219,173.5469 Q2710.3625,173.5469 2710.9563,173.2656 Q2711.2531,173.1406 2711.5344,172.9531 Q2711.8313,172.75 2712.175,172.4219 L2712.175,175.1406 Q2711.5969,175.4375 2710.9563,175.5938 Q2710.3313,175.7344 2709.5969,175.7344 Z " fill="#000000"/><text fill="#000000" font-family="sans-serif" font-size="14" lengthAdjust="spacing" textLength="80" x="2730.2" y="174.432">ECommerce</text><line style="stroke:#181818;stroke-width:0.5;" x1="2667" x2="2841" y1="185" y2="185"/><ellipse cx="2677" cy="200.034" fill="none" rx="3" ry="3" style="stroke:#038048;stroke-width:1.0;"/><text fill="#000000" font-family="sans-serif" font-size="14" lengthAdjust="spacing" textLength="150" x="2686" y="203.9659">Venta y compra online</text><line style="stroke:#181818;stroke-width:0.5;" x1="2667" x2="2841" y1="212.0679" y2="212.0679"/></g><!--MD5=[6c5f60cf6f1fe23f17f9d68fa8c7fc76]
class ERP--><g id="elem_ERP"><rect codeLine="30" fill="#F1F1F1" height="67.0679" id="ERP" rx="2.5" ry="2.5" style="stroke:#181818;stroke-width:0.5;" width="294" x="2337" y="153"/><ellipse cx="2467.25" cy="169" fill="#ADD1B2" rx="11" ry="11" style="stroke:#181818;stroke-width:1.0;"/><path d="M2467.0469,175.7344 Q2464.5625,175.7344 2463.2344,174.0938 Q2461.9219,172.4219 2461.9219,169.3125 Q2461.9219,166.1875 2463.2344,164.5313 Q2464.5625,162.875 2467.0469,162.875 Q2467.7656,162.875 2468.4219,163.0313 Q2469.0625,163.1875 2469.625,163.4844 L2469.625,166.2031 Q2469.2656,165.8594 2468.9688,165.6719 Q2468.6719,165.4688 2468.4063,165.3438 Q2468.0938,165.2031 2467.7813,165.1406 Q2467.4844,165.0781 2467.1719,165.0781 Q2465.8438,165.0781 2465.1563,166.1406 Q2464.4688,167.2344 2464.4688,169.3125 Q2464.4688,171.4063 2465.1563,172.4688 Q2465.8438,173.5469 2467.1719,173.5469 Q2467.8125,173.5469 2468.4063,173.2656 Q2468.7031,173.1406 2468.9844,172.9531 Q2469.2813,172.75 2469.625,172.4219 L2469.625,175.1406 Q2469.0469,175.4375 2468.4063,175.5938 Q2467.7813,175.7344 2467.0469,175.7344 Z " fill="#000000"/><text fill="#000000" font-family="sans-serif" font-size="14" lengthAdjust="spacing" textLength="25" x="2487.75" y="174.432">ERP</text><line style="stroke:#181818;stroke-width:0.5;" x1="2338" x2="2630" y1="185" y2="185"/><ellipse cx="2348" cy="200.034" fill="none" rx="3" ry="3" style="stroke:#038048;stroke-width:1.0;"/><text fill="#000000" font-family="sans-serif" font-size="14" lengthAdjust="spacing" textLength="268" x="2357" y="203.9659">Planificación de recursos empresariales</text><line style="stroke:#181818;stroke-width:0.5;" x1="2338" x2="2630" y1="212.0679" y2="212.0679"/></g><!--MD5=[e7bd07aa60890e7e27deb9b850f43c72]
class Industria40--><g id="elem_Industria40"><rect codeLine="34" fill="#F1F1F1" height="67.0679" id="Industria40" rx="2.5" ry="2.5" style="stroke:#181818;stroke-width:0.5;" width="277" x="1379.5" y="16.5"/><ellipse cx="1474.75" cy="32.5" fill="#ADD1B2" rx="11" ry="11" style="stroke:#181818;stroke-width:1.0;"/><path d="M1474.5469,39.2344 Q1472.0625,39.2344 1470.7344,37.5938 Q1469.4219,35.9219 1469.4219,32.8125 Q1469.4219,29.6875 1470.7344,28.0313 Q1472.0625,26.375 1474.5469,26.375 Q1475.2656,26.375 1475.9219,26.5313 Q1476.5625,26.6875 1477.125,26.9844 L1477.125,29.7031 Q1476.7656,29.3594 1476.4688,29.1719 Q1476.1719,28.9688 1475.9063,28.8438 Q1475.5938,28.7031 1475.2813,28.6406 Q1474.9844,28.5781 1474.6719,28.5781 Q1473.3438,28.5781 1472.6563,29.6406 Q1471.9688,30.7344 1471.9688,32.8125 Q1471.9688,34.9063 1472.6563,35.9688 Q1473.3438,37.0469 1474.6719,37.0469 Q1475.3125,37.0469 1475.9063,36.7656 Q1476.2031,36.6406 1476.4844,36.4531 Q1476.7813,36.25 1477.125,35.9219 L1477.125,38.6406 Q1476.5469,38.9375 1475.9063,39.0938 Q1475.2813,39.2344 1474.5469,39.2344 Z " fill="#000000"/><text fill="#000000" font-family="sans-serif" font-size="14" lengthAdjust="spacing" textLength="78" x="1495.25" y="37.932">Industria40</text><line style="stroke:#181818;stroke-width:0.5;" x1="1380.5" x2="1655.5" y1="48.5" y2="48.5"/><ellipse cx="1390.5" cy="63.534" fill="none" rx="3" ry="3" style="stroke:#038048;stroke-width:1.0;"/><text fill="#000000" font-family="sans-serif" font-size="14" lengthAdjust="spacing" textLength="251" x="1399.5" y="67.4659">Tecnologías avanzadas e inteligentes</text><line style="stroke:#181818;stroke-width:0.5;" x1="1380.5" x2="1655.5" y1="75.5679" y2="75.5679"/></g><!--MD5=[297bfc80be8726cb2e4fdd25ad34e9a1]
class Innovación--><g id="elem_Innovación"><rect codeLine="38" fill="#F1F1F1" height="67.0679" id="Innovación" rx="2.5" ry="2.5" style="stroke:#181818;stroke-width:0.5;" width="255" x="2948.5" y="16.5"/><ellipse cx="3034.75" cy="32.5" fill="#ADD1B2" rx="11" ry="11" style="stroke:#181818;stroke-width:1.0;"/><path d="M3034.5469,39.2344 Q3032.0625,39.2344 3030.7344,37.5938 Q3029.4219,35.9219 3029.4219,32.8125 Q3029.4219,29.6875 3030.7344,28.0313 Q3032.0625,26.375 3034.5469,26.375 Q3035.2656,26.375 3035.9219,26.5313 Q3036.5625,26.6875 3037.125,26.9844 L3037.125,29.7031 Q3036.7656,29.3594 3036.4688,29.1719 Q3036.1719,28.9688 3035.9063,28.8438 Q3035.5938,28.7031 3035.2813,28.6406 Q3034.9844,28.5781 3034.6719,28.5781 Q3033.3438,28.5781 3032.6563,29.6406 Q3031.9688,30.7344 3031.9688,32.8125 Q3031.9688,34.9063 3032.6563,35.9688 Q3033.3438,37.0469 3034.6719,37.0469 Q3035.3125,37.0469 3035.9063,36.7656 Q3036.2031,36.6406 3036.4844,36.4531 Q3036.7813,36.25 3037.125,35.9219 L3037.125,38.6406 Q3036.5469,38.9375 3035.9063,39.0938 Q3035.2813,39.2344 3034.5469,39.2344 Z " fill="#000000"/><text fill="#000000" font-family="sans-serif" font-size="14" lengthAdjust="spacing" textLength="74" x="3055.25" y="37.932">Innovación</text><line style="stroke:#181818;stroke-width:0.5;" x1="2949.5" x2="3202.5" y1="48.5" y2="48.5"/><ellipse cx="2959.5" cy="63.534" fill="none" rx="3" ry="3" style="stroke:#038048;stroke-width:1.0;"/><text fill="#000000" font-family="sans-serif" font-size="14" lengthAdjust="spacing" textLength="229" x="2968.5" y="67.4659">Mejora de la posición empresarial</text><line style="stroke:#181818;stroke-width:0.5;" x1="2949.5" x2="3202.5" y1="75.5679" y2="75.5679"/></g><!--MD5=[f9438d1b58032cc00cf827be6020f233]
class IntegraciónDeSistemasDeGestión--><g id="elem_IntegraciónDeSistemasDeGestión"><rect codeLine="42" fill="#F1F1F1" height="67.0679" id="IntegraciónDeSistemasDeGestión" rx="2.5" ry="2.5" style="stroke:#181818;stroke-width:0.5;" width="339" x="1348.5" y="280"/><ellipse cx="1401.25" cy="296" fill="#ADD1B2" rx="11" ry="11" style="stroke:#181818;stroke-width:1.0;"/><path d="M1401.0469,302.7344 Q1398.5625,302.7344 1397.2344,301.0938 Q1395.9219,299.4219 1395.9219,296.3125 Q1395.9219,293.1875 1397.2344,291.5313 Q1398.5625,289.875 1401.0469,289.875 Q1401.7656,289.875 1402.4219,290.0313 Q1403.0625,290.1875 1403.625,290.4844 L1403.625,293.2031 Q1403.2656,292.8594 1402.9688,292.6719 Q1402.6719,292.4688 1402.4063,292.3438 Q1402.0938,292.2031 1401.7813,292.1406 Q1401.4844,292.0781 1401.1719,292.0781 Q1399.8438,292.0781 1399.1563,293.1406 Q1398.4688,294.2344 1398.4688,296.3125 Q1398.4688,298.4063 1399.1563,299.4688 Q1399.8438,300.5469 1401.1719,300.5469 Q1401.8125,300.5469 1402.4063,300.2656 Q1402.7031,300.1406 1402.9844,299.9531 Q1403.2813,299.75 1403.625,299.4219 L1403.625,302.1406 Q1403.0469,302.4375 1402.4063,302.5938 Q1401.7813,302.7344 1401.0469,302.7344 Z " fill="#000000"/><text fill="#000000" font-family="sans-serif" font-size="14" lengthAdjust="spacing" textLength="225" x="1421.75" y="301.432">IntegraciónDeSistemasDeGestión</text><line style="stroke:#181818;stroke-width:0.5;" x1="1349.5" x2="1686.5" y1="312" y2="312"/><ellipse cx="1359.5" cy="327.034" fill="none" rx="3" ry="3" style="stroke:#038048;stroke-width:1.0;"/><text fill="#000000" font-family="sans-serif" font-size="14" lengthAdjust="spacing" textLength="313" x="1368.5" y="330.9659">Unificación de criterios y objetivos de software</text><line style="stroke:#181818;stroke-width:0.5;" x1="1349.5" x2="1686.5" y1="339.0679" y2="339.0679"/></g><!--MD5=[e540f6774be5768ae110d7d584e18dfd]
class InteligenciaArtificial--><g id="elem_InteligenciaArtificial"><rect codeLine="46" fill="#F1F1F1" height="67.0679" id="InteligenciaArtificial" rx="2.5" ry="2.5" style="stroke:#181818;stroke-width:0.5;" width="380" x="964" y="16.5"/><ellipse cx="1081.75" cy="32.5" fill="#ADD1B2" rx="11" ry="11" style="stroke:#181818;stroke-width:1.0;"/><path d="M1081.5469,39.2344 Q1079.0625,39.2344 1077.7344,37.5938 Q1076.4219,35.9219 1076.4219,32.8125 Q1076.4219,29.6875 1077.7344,28.0313 Q1079.0625,26.375 1081.5469,26.375 Q1082.2656,26.375 1082.9219,26.5313 Q1083.5625,26.6875 1084.125,26.9844 L1084.125,29.7031 Q1083.7656,29.3594 1083.4688,29.1719 Q1083.1719,28.9688 1082.9063,28.8438 Q1082.5938,28.7031 1082.2813,28.6406 Q1081.9844,28.5781 1081.6719,28.5781 Q1080.3438,28.5781 1079.6563,29.6406 Q1078.9688,30.7344 1078.9688,32.8125 Q1078.9688,34.9063 1079.6563,35.9688 Q1080.3438,37.0469 1081.6719,37.0469 Q1082.3125,37.0469 1082.9063,36.7656 Q1083.2031,36.6406 1083.4844,36.4531 Q1083.7813,36.25 1084.125,35.9219 L1084.125,38.6406 Q1083.5469,38.9375 1082.9063,39.0938 Q1082.2813,39.2344 1081.5469,39.2344 Z " fill="#000000"/><text fill="#000000" font-family="sans-serif" font-size="14" lengthAdjust="spacing" textLength="136" x="1102.25" y="37.932">InteligenciaArtificial</text><line style="stroke:#181818;stroke-width:0.5;" x1="965" x2="1343" y1="48.5" y2="48.5"/><ellipse cx="975" cy="63.534" fill="none" rx="3" ry="3" style="stroke:#038048;stroke-width:1.0;"/><text fill="#000000" font-family="sans-serif" font-size="14" lengthAdjust="spacing" textLength="354" x="984" y="67.4659">Algoritmos para simular el comportamiento humano</text><line style="stroke:#181818;stroke-width:0.5;" x1="965" x2="1343" y1="75.5679" y2="75.5679"/></g><!--MD5=[85c3f5e64f64a0500cba0498fc916c91]
class InteligenciaDeNegocios--><g id="elem_InteligenciaDeNegocios"><rect codeLine="50" fill="#F1F1F1" height="67.0679" id="InteligenciaDeNegocios" rx="2.5" ry="2.5" style="stroke:#181818;stroke-width:0.5;" width="325" x="917.5" y="280"/><ellipse cx="995.75" cy="296" fill="#ADD1B2" rx="11" ry="11" style="stroke:#181818;stroke-width:1.0;"/><path d="M995.5469,302.7344 Q993.0625,302.7344 991.7344,301.0938 Q990.4219,299.4219 990.4219,296.3125 Q990.4219,293.1875 991.7344,291.5313 Q993.0625,289.875 995.5469,289.875 Q996.2656,289.875 996.9219,290.0313 Q997.5625,290.1875 998.125,290.4844 L998.125,293.2031 Q997.7656,292.8594 997.4688,292.6719 Q997.1719,292.4688 996.9063,292.3438 Q996.5938,292.2031 996.2813,292.1406 Q995.9844,292.0781 995.6719,292.0781 Q994.3438,292.0781 993.6563,293.1406 Q992.9688,294.2344 992.9688,296.3125 Q992.9688,298.4063 993.6563,299.4688 Q994.3438,300.5469 995.6719,300.5469 Q996.3125,300.5469 996.9063,300.2656 Q997.2031,300.1406 997.4844,299.9531 Q997.7813,299.75 998.125,299.4219 L998.125,302.1406 Q997.5469,302.4375 996.9063,302.5938 Q996.2813,302.7344 995.5469,302.7344 Z " fill="#000000"/><text fill="#000000" font-family="sans-serif" font-size="14" lengthAdjust="spacing" textLength="160" x="1016.25" y="301.432">InteligenciaDeNegocios</text><line style="stroke:#181818;stroke-width:0.5;" x1="918.5" x2="1241.5" y1="312" y2="312"/><ellipse cx="928.5" cy="327.034" fill="none" rx="3" ry="3" style="stroke:#038048;stroke-width:1.0;"/><text fill="#000000" font-family="sans-serif" font-size="14" lengthAdjust="spacing" textLength="299" x="937.5" y="330.9659">Análisis de datos para la toma de decisiones</text><line style="stroke:#181818;stroke-width:0.5;" x1="918.5" x2="1241.5" y1="339.0679" y2="339.0679"/></g><!--MD5=[46db1664796d7e2b93f6c57cced84081]
class InternetOfThings--><g id="elem_InternetOfThings"><rect codeLine="54" fill="#F1F1F1" height="67.0679" id="InternetOfThings" rx="2.5" ry="2.5" style="stroke:#181818;stroke-width:0.5;" width="275" x="1380.5" y="153"/><ellipse cx="1455.25" cy="169" fill="#ADD1B2" rx="11" ry="11" style="stroke:#181818;stroke-width:1.0;"/><path d="M1455.0469,175.7344 Q1452.5625,175.7344 1451.2344,174.0938 Q1449.9219,172.4219 1449.9219,169.3125 Q1449.9219,166.1875 1451.2344,164.5313 Q1452.5625,162.875 1455.0469,162.875 Q1455.7656,162.875 1456.4219,163.0313 Q1457.0625,163.1875 1457.625,163.4844 L1457.625,166.2031 Q1457.2656,165.8594 1456.9688,165.6719 Q1456.6719,165.4688 1456.4063,165.3438 Q1456.0938,165.2031 1455.7813,165.1406 Q1455.4844,165.0781 1455.1719,165.0781 Q1453.8438,165.0781 1453.1563,166.1406 Q1452.4688,167.2344 1452.4688,169.3125 Q1452.4688,171.4063 1453.1563,172.4688 Q1453.8438,173.5469 1455.1719,173.5469 Q1455.8125,173.5469 1456.4063,173.2656 Q1456.7031,173.1406 1456.9844,172.9531 Q1457.2813,172.75 1457.625,172.4219 L1457.625,175.1406 Q1457.0469,175.4375 1456.4063,175.5938 Q1455.7813,175.7344 1455.0469,175.7344 Z " fill="#000000"/><text fill="#000000" font-family="sans-serif" font-size="14" lengthAdjust="spacing" textLength="117" x="1475.75" y="174.432">InternetOfThings</text><line style="stroke:#181818;stroke-width:0.5;" x1="1381.5" x2="1654.5" y1="185" y2="185"/><ellipse cx="1391.5" cy="200.034" fill="none" rx="3" ry="3" style="stroke:#038048;stroke-width:1.0;"/><text fill="#000000" font-family="sans-serif" font-size="14" lengthAdjust="spacing" textLength="249" x="1400.5" y="203.9659">Objetos físicos conectados a Internet</text><line style="stroke:#181818;stroke-width:0.5;" x1="1381.5" x2="1654.5" y1="212.0679" y2="212.0679"/></g><!--MD5=[2479b6ecd97a45d12a35409e9e3d5fd2]
class ITIL--><g id="elem_ITIL"><rect codeLine="58" fill="#F1F1F1" height="67.0679" id="ITIL" rx="2.5" ry="2.5" style="stroke:#181818;stroke-width:0.5;" width="288" x="4194" y="16.5"/><ellipse cx="4321.25" cy="32.5" fill="#ADD1B2" rx="11" ry="11" style="stroke:#181818;stroke-width:1.0;"/><path d="M4321.0469,39.2344 Q4318.5625,39.2344 4317.2344,37.5938 Q4315.9219,35.9219 4315.9219,32.8125 Q4315.9219,29.6875 4317.2344,28.0313 Q4318.5625,26.375 4321.0469,26.375 Q4321.7656,26.375 4322.4219,26.5313 Q4323.0625,26.6875 4323.625,26.9844 L4323.625,29.7031 Q4323.2656,29.3594 4322.9688,29.1719 Q4322.6719,28.9688 4322.4063,28.8438 Q4322.0938,28.7031 4321.7813,28.6406 Q4321.4844,28.5781 4321.1719,28.5781 Q4319.8438,28.5781 4319.1563,29.6406 Q4318.4688,30.7344 4318.4688,32.8125 Q4318.4688,34.9063 4319.1563,35.9688 Q4319.8438,37.0469 4321.1719,37.0469 Q4321.8125,37.0469 4322.4063,36.7656 Q4322.7031,36.6406 4322.9844,36.4531 Q4323.2813,36.25 4323.625,35.9219 L4323.625,38.6406 Q4323.0469,38.9375 4322.4063,39.0938 Q4321.7813,39.2344 4321.0469,39.2344 Z " fill="#000000"/><text fill="#000000" font-family="sans-serif" font-size="14" lengthAdjust="spacing" textLength="25" x="4341.75" y="37.932">ITIL</text><line style="stroke:#181818;stroke-width:0.5;" x1="4195" x2="4481" y1="48.5" y2="48.5"/><ellipse cx="4205" cy="63.534" fill="none" rx="3" ry="3" style="stroke:#038048;stroke-width:1.0;"/><text fill="#000000" font-family="sans-serif" font-size="14" lengthAdjust="spacing" textLength="262" x="4214" y="67.4659">Mejores prácticas para la gestión de IT</text><line style="stroke:#181818;stroke-width:0.5;" x1="4195" x2="4481" y1="75.5679" y2="75.5679"/></g><!--MD5=[2082385bd91c415aee60144303fb8362]
class Latencia--><g id="elem_Latencia"><rect codeLine="62" fill="#F1F1F1" height="67.0679" id="Latencia" rx="2.5" ry="2.5" style="stroke:#181818;stroke-width:0.5;" width="230" x="286" y="16.5"/><ellipse cx="368.75" cy="32.5" fill="#ADD1B2" rx="11" ry="11" style="stroke:#181818;stroke-width:1.0;"/><path d="M368.5469,39.2344 Q366.0625,39.2344 364.7344,37.5938 Q363.4219,35.9219 363.4219,32.8125 Q363.4219,29.6875 364.7344,28.0313 Q366.0625,26.375 368.5469,26.375 Q369.2656,26.375 369.9219,26.5313 Q370.5625,26.6875 371.125,26.9844 L371.125,29.7031 Q370.7656,29.3594 370.4688,29.1719 Q370.1719,28.9688 369.9063,28.8438 Q369.5938,28.7031 369.2813,28.6406 Q368.9844,28.5781 368.6719,28.5781 Q367.3438,28.5781 366.6563,29.6406 Q365.9688,30.7344 365.9688,32.8125 Q365.9688,34.9063 366.6563,35.9688 Q367.3438,37.0469 368.6719,37.0469 Q369.3125,37.0469 369.9063,36.7656 Q370.2031,36.6406 370.4844,36.4531 Q370.7813,36.25 371.125,35.9219 L371.125,38.6406 Q370.5469,38.9375 369.9063,39.0938 Q369.2813,39.2344 368.5469,39.2344 Z " fill="#000000"/><text fill="#000000" font-family="sans-serif" font-size="14" lengthAdjust="spacing" textLength="56" x="389.25" y="37.932">Latencia</text><line style="stroke:#181818;stroke-width:0.5;" x1="287" x2="515" y1="48.5" y2="48.5"/><ellipse cx="297" cy="63.534" fill="none" rx="3" ry="3" style="stroke:#038048;stroke-width:1.0;"/><text fill="#000000" font-family="sans-serif" font-size="14" lengthAdjust="spacing" textLength="204" x="306" y="67.4659">Retardos temporales en la red</text><line style="stroke:#181818;stroke-width:0.5;" x1="287" x2="515" y1="75.5679" y2="75.5679"/></g><!--MD5=[f3f9fb85a2a46ea89e1a9178b7465793]
class MachineLearning--><g id="elem_MachineLearning"><rect codeLine="66" fill="#F1F1F1" height="67.0679" id="MachineLearning" rx="2.5" ry="2.5" style="stroke:#181818;stroke-width:0.5;" width="186" x="1024" y="153"/><ellipse cx="1055.2" cy="169" fill="#ADD1B2" rx="11" ry="11" style="stroke:#181818;stroke-width:1.0;"/><path d="M1054.9969,175.7344 Q1052.5125,175.7344 1051.1844,174.0938 Q1049.8719,172.4219 1049.8719,169.3125 Q1049.8719,166.1875 1051.1844,164.5313 Q1052.5125,162.875 1054.9969,162.875 Q1055.7156,162.875 1056.3719,163.0313 Q1057.0125,163.1875 1057.575,163.4844 L1057.575,166.2031 Q1057.2156,165.8594 1056.9188,165.6719 Q1056.6219,165.4688 1056.3563,165.3438 Q1056.0438,165.2031 1055.7313,165.1406 Q1055.4344,165.0781 1055.1219,165.0781 Q1053.7938,165.0781 1053.1063,166.1406 Q1052.4188,167.2344 1052.4188,169.3125 Q1052.4188,171.4063 1053.1063,172.4688 Q1053.7938,173.5469 1055.1219,173.5469 Q1055.7625,173.5469 1056.3563,173.2656 Q1056.6531,173.1406 1056.9344,172.9531 Q1057.2313,172.75 1057.575,172.4219 L1057.575,175.1406 Q1056.9969,175.4375 1056.3563,175.5938 Q1055.7313,175.7344 1054.9969,175.7344 Z " fill="#000000"/><text fill="#000000" font-family="sans-serif" font-size="14" lengthAdjust="spacing" textLength="118" x="1072.8" y="174.432">MachineLearning</text><line style="stroke:#181818;stroke-width:0.5;" x1="1025" x2="1209" y1="185" y2="185"/><ellipse cx="1035" cy="200.034" fill="none" rx="3" ry="3" style="stroke:#038048;stroke-width:1.0;"/><text fill="#000000" font-family="sans-serif" font-size="14" lengthAdjust="spacing" textLength="160" x="1044" y="203.9659">Aprendizaje automático</text><line style="stroke:#181818;stroke-width:0.5;" x1="1025" x2="1209" y1="212.0679" y2="212.0679"/></g><!--MD5=[e399c88c83dddc32d7075cc6586229b4]
class ModeloTCPIP--><g id="elem_ModeloTCPIP"><rect codeLine="70" fill="#F1F1F1" height="67.0679" id="ModeloTCPIP" rx="2.5" ry="2.5" style="stroke:#181818;stroke-width:0.5;" width="306" x="4743" y="16.5"/><ellipse cx="4847.75" cy="32.5" fill="#ADD1B2" rx="11" ry="11" style="stroke:#181818;stroke-width:1.0;"/><path d="M4847.5469,39.2344 Q4845.0625,39.2344 4843.7344,37.5938 Q4842.4219,35.9219 4842.4219,32.8125 Q4842.4219,29.6875 4843.7344,28.0313 Q4845.0625,26.375 4847.5469,26.375 Q4848.2656,26.375 4848.9219,26.5313 Q4849.5625,26.6875 4850.125,26.9844 L4850.125,29.7031 Q4849.7656,29.3594 4849.4688,29.1719 Q4849.1719,28.9688 4848.9063,28.8438 Q4848.5938,28.7031 4848.2813,28.6406 Q4847.9844,28.5781 4847.6719,28.5781 Q4846.3438,28.5781 4845.6563,29.6406 Q4844.9688,30.7344 4844.9688,32.8125 Q4844.9688,34.9063 4845.6563,35.9688 Q4846.3438,37.0469 4847.6719,37.0469 Q4848.3125,37.0469 4848.9063,36.7656 Q4849.2031,36.6406 4849.4844,36.4531 Q4849.7813,36.25 4850.125,35.9219 L4850.125,38.6406 Q4849.5469,38.9375 4848.9063,39.0938 Q4848.2813,39.2344 4847.5469,39.2344 Z " fill="#000000"/><text fill="#000000" font-family="sans-serif" font-size="14" lengthAdjust="spacing" textLength="88" x="4868.25" y="37.932">ModeloTCPIP</text><line style="stroke:#181818;stroke-width:0.5;" x1="4744" x2="5048" y1="48.5" y2="48.5"/><ellipse cx="4754" cy="63.534" fill="none" rx="3" ry="3" style="stroke:#038048;stroke-width:1.0;"/><text fill="#000000" font-family="sans-serif" font-size="14" lengthAdjust="spacing" textLength="280" x="4763" y="67.4659">Protocolos para la comunicación en redes</text><line style="stroke:#181818;stroke-width:0.5;" x1="4744" x2="5048" y1="75.5679" y2="75.5679"/></g><!--MD5=[f1a1e677e9bce0b894f5565e447ed312]
class NFC--><g id="elem_NFC"><rect codeLine="74" fill="#F1F1F1" height="67.0679" id="NFC" rx="2.5" ry="2.5" style="stroke:#181818;stroke-width:0.5;" width="319" x="2594.5" y="16.5"/><ellipse cx="2736.25" cy="32.5" fill="#ADD1B2" rx="11" ry="11" style="stroke:#181818;stroke-width:1.0;"/><path d="M2736.0469,39.2344 Q2733.5625,39.2344 2732.2344,37.5938 Q2730.9219,35.9219 2730.9219,32.8125 Q2730.9219,29.6875 2732.2344,28.0313 Q2733.5625,26.375 2736.0469,26.375 Q2736.7656,26.375 2737.4219,26.5313 Q2738.0625,26.6875 2738.625,26.9844 L2738.625,29.7031 Q2738.2656,29.3594 2737.9688,29.1719 Q2737.6719,28.9688 2737.4063,28.8438 Q2737.0938,28.7031 2736.7813,28.6406 Q2736.4844,28.5781 2736.1719,28.5781 Q2734.8438,28.5781 2734.1563,29.6406 Q2733.4688,30.7344 2733.4688,32.8125 Q2733.4688,34.9063 2734.1563,35.9688 Q2734.8438,37.0469 2736.1719,37.0469 Q2736.8125,37.0469 2737.4063,36.7656 Q2737.7031,36.6406 2737.9844,36.4531 Q2738.2813,36.25 2738.625,35.9219 L2738.625,38.6406 Q2738.0469,38.9375 2737.4063,39.0938 Q2736.7813,39.2344 2736.0469,39.2344 Z " fill="#000000"/><text fill="#000000" font-family="sans-serif" font-size="14" lengthAdjust="spacing" textLength="27" x="2756.75" y="37.932">NFC</text><line style="stroke:#181818;stroke-width:0.5;" x1="2595.5" x2="2912.5" y1="48.5" y2="48.5"/><ellipse cx="2605.5" cy="63.534" fill="none" rx="3" ry="3" style="stroke:#038048;stroke-width:1.0;"/><text fill="#000000" font-family="sans-serif" font-size="14" lengthAdjust="spacing" textLength="293" x="2614.5" y="67.4659">Comunicación inalámbrica de corto alcance</text><line style="stroke:#181818;stroke-width:0.5;" x1="2595.5" x2="2912.5" y1="75.5679" y2="75.5679"/></g><!--MD5=[f9e49f9f16059cf4c2b3819ea5686c42]
class OcéanoAzul--><g id="elem_OcéanoAzul"><rect codeLine="78" fill="#F1F1F1" height="67.0679" id="OcéanoAzul" rx="2.5" ry="2.5" style="stroke:#181818;stroke-width:0.5;" width="228" x="15" y="153"/><ellipse cx="84.75" cy="169" fill="#ADD1B2" rx="11" ry="11" style="stroke:#181818;stroke-width:1.0;"/><path d="M84.5469,175.7344 Q82.0625,175.7344 80.7344,174.0938 Q79.4219,172.4219 79.4219,169.3125 Q79.4219,166.1875 80.7344,164.5313 Q82.0625,162.875 84.5469,162.875 Q85.2656,162.875 85.9219,163.0313 Q86.5625,163.1875 87.125,163.4844 L87.125,166.2031 Q86.7656,165.8594 86.4688,165.6719 Q86.1719,165.4688 85.9063,165.3438 Q85.5938,165.2031 85.2813,165.1406 Q84.9844,165.0781 84.6719,165.0781 Q83.3438,165.0781 82.6563,166.1406 Q81.9688,167.2344 81.9688,169.3125 Q81.9688,171.4063 82.6563,172.4688 Q83.3438,173.5469 84.6719,173.5469 Q85.3125,173.5469 85.9063,173.2656 Q86.2031,173.1406 86.4844,172.9531 Q86.7813,172.75 87.125,172.4219 L87.125,175.1406 Q86.5469,175.4375 85.9063,175.5938 Q85.2813,175.7344 84.5469,175.7344 Z " fill="#000000"/><text fill="#000000" font-family="sans-serif" font-size="14" lengthAdjust="spacing" textLength="80" x="105.25" y="174.432">OcéanoAzul</text><line style="stroke:#181818;stroke-width:0.5;" x1="16" x2="242" y1="185" y2="185"/><ellipse cx="26" cy="200.034" fill="none" rx="3" ry="3" style="stroke:#038048;stroke-width:1.0;"/><text fill="#000000" font-family="sans-serif" font-size="14" lengthAdjust="spacing" textLength="202" x="35" y="203.9659">Creación de nuevos mercados</text><line style="stroke:#181818;stroke-width:0.5;" x1="16" x2="242" y1="212.0679" y2="212.0679"/></g><!--MD5=[9db363039cc133d655d8d4442fff2ad0]
class OperaciónDeSistemas--><g id="elem_OperaciónDeSistemas"><rect codeLine="82" fill="#F1F1F1" height="67.0679" id="OperaciónDeSistemas" rx="2.5" ry="2.5" style="stroke:#181818;stroke-width:0.5;" width="291" x="4192.5" y="153"/><ellipse cx="4259.75" cy="169" fill="#ADD1B2" rx="11" ry="11" style="stroke:#181818;stroke-width:1.0;"/><path d="M4259.5469,175.7344 Q4257.0625,175.7344 4255.7344,174.0938 Q4254.4219,172.4219 4254.4219,169.3125 Q4254.4219,166.1875 4255.7344,164.5313 Q4257.0625,162.875 4259.5469,162.875 Q4260.2656,162.875 4260.9219,163.0313 Q4261.5625,163.1875 4262.125,163.4844 L4262.125,166.2031 Q4261.7656,165.8594 4261.4688,165.6719 Q4261.1719,165.4688 4260.9063,165.3438 Q4260.5938,165.2031 4260.2813,165.1406 Q4259.9844,165.0781 4259.6719,165.0781 Q4258.3438,165.0781 4257.6563,166.1406 Q4256.9688,167.2344 4256.9688,169.3125 Q4256.9688,171.4063 4257.6563,172.4688 Q4258.3438,173.5469 4259.6719,173.5469 Q4260.3125,173.5469 4260.9063,173.2656 Q4261.2031,173.1406 4261.4844,172.9531 Q4261.7813,172.75 4262.125,172.4219 L4262.125,175.1406 Q4261.5469,175.4375 4260.9063,175.5938 Q4260.2813,175.7344 4259.5469,175.7344 Z " fill="#000000"/><text fill="#000000" font-family="sans-serif" font-size="14" lengthAdjust="spacing" textLength="148" x="4280.25" y="174.432">OperaciónDeSistemas</text><line style="stroke:#181818;stroke-width:0.5;" x1="4193.5" x2="4482.5" y1="185" y2="185"/><ellipse cx="4203.5" cy="200.034" fill="none" rx="3" ry="3" style="stroke:#038048;stroke-width:1.0;"/><text fill="#000000" font-family="sans-serif" font-size="14" lengthAdjust="spacing" textLength="265" x="4212.5" y="203.9659">Administración de software y hardware</text><line style="stroke:#181818;stroke-width:0.5;" x1="4193.5" x2="4482.5" y1="212.0679" y2="212.0679"/></g><!--MD5=[f9ce8e38920b1ce6e9c8d3e90263a38a]
class Outsourcing--><g id="elem_Outsourcing"><rect codeLine="86" fill="#F1F1F1" height="67.0679" id="Outsourcing" rx="2.5" ry="2.5" style="stroke:#181818;stroke-width:0.5;" width="318" x="4323" y="280"/><ellipse cx="4435.75" cy="296" fill="#ADD1B2" rx="11" ry="11" style="stroke:#181818;stroke-width:1.0;"/><path d="M4435.5469,302.7344 Q4433.0625,302.7344 4431.7344,301.0938 Q4430.4219,299.4219 4430.4219,296.3125 Q4430.4219,293.1875 4431.7344,291.5313 Q4433.0625,289.875 4435.5469,289.875 Q4436.2656,289.875 4436.9219,290.0313 Q4437.5625,290.1875 4438.125,290.4844 L4438.125,293.2031 Q4437.7656,292.8594 4437.4688,292.6719 Q4437.1719,292.4688 4436.9063,292.3438 Q4436.5938,292.2031 4436.2813,292.1406 Q4435.9844,292.0781 4435.6719,292.0781 Q4434.3438,292.0781 4433.6563,293.1406 Q4432.9688,294.2344 4432.9688,296.3125 Q4432.9688,298.4063 4433.6563,299.4688 Q4434.3438,300.5469 4435.6719,300.5469 Q4436.3125,300.5469 4436.9063,300.2656 Q4437.2031,300.1406 4437.4844,299.9531 Q4437.7813,299.75 4438.125,299.4219 L4438.125,302.1406 Q4437.5469,302.4375 4436.9063,302.5938 Q4436.2813,302.7344 4435.5469,302.7344 Z " fill="#000000"/><text fill="#000000" font-family="sans-serif" font-size="14" lengthAdjust="spacing" textLength="84" x="4456.25" y="301.432">Outsourcing</text><line style="stroke:#181818;stroke-width:0.5;" x1="4324" x2="4640" y1="312" y2="312"/><ellipse cx="4334" cy="327.034" fill="none" rx="3" ry="3" style="stroke:#038048;stroke-width:1.0;"/><text fill="#000000" font-family="sans-serif" font-size="14" lengthAdjust="spacing" textLength="292" x="4343" y="330.9659">Externalización de sistemas de información</text><line style="stroke:#181818;stroke-width:0.5;" x1="4324" x2="4640" y1="339.0679" y2="339.0679"/></g><!--MD5=[814255163c0fc2a55628f8f7804de91b]
class RealidadAumentada--><g id="elem_RealidadAumentada"><rect codeLine="90" fill="#F1F1F1" height="67.0679" id="RealidadAumentada" rx="2.5" ry="2.5" style="stroke:#181818;stroke-width:0.5;" width="279" x="3238.5" y="16.5"/><ellipse cx="3305.25" cy="32.5" fill="#ADD1B2" rx="11" ry="11" style="stroke:#181818;stroke-width:1.0;"/><path d="M3305.0469,39.2344 Q3302.5625,39.2344 3301.2344,37.5938 Q3299.9219,35.9219 3299.9219,32.8125 Q3299.9219,29.6875 3301.2344,28.0313 Q3302.5625,26.375 3305.0469,26.375 Q3305.7656,26.375 3306.4219,26.5313 Q3307.0625,26.6875 3307.625,26.9844 L3307.625,29.7031 Q3307.2656,29.3594 3306.9688,29.1719 Q3306.6719,28.9688 3306.4063,28.8438 Q3306.0938,28.7031 3305.7813,28.6406 Q3305.4844,28.5781 3305.1719,28.5781 Q3303.8438,28.5781 3303.1563,29.6406 Q3302.4688,30.7344 3302.4688,32.8125 Q3302.4688,34.9063 3303.1563,35.9688 Q3303.8438,37.0469 3305.1719,37.0469 Q3305.8125,37.0469 3306.4063,36.7656 Q3306.7031,36.6406 3306.9844,36.4531 Q3307.2813,36.25 3307.625,35.9219 L3307.625,38.6406 Q3307.0469,38.9375 3306.4063,39.0938 Q3305.7813,39.2344 3305.0469,39.2344 Z " fill="#000000"/><text fill="#000000" font-family="sans-serif" font-size="14" lengthAdjust="spacing" textLength="137" x="3325.75" y="37.932">RealidadAumentada</text><line style="stroke:#181818;stroke-width:0.5;" x1="3239.5" x2="3516.5" y1="48.5" y2="48.5"/><ellipse cx="3249.5" cy="63.534" fill="none" rx="3" ry="3" style="stroke:#038048;stroke-width:1.0;"/><text fill="#000000" font-family="sans-serif" font-size="14" lengthAdjust="spacing" textLength="253" x="3258.5" y="67.4659">Información virtual en el entorno real</text><line style="stroke:#181818;stroke-width:0.5;" x1="3239.5" x2="3516.5" y1="75.5679" y2="75.5679"/></g><!--MD5=[b98497e5dbe6a1d7cccc3ae140215e7c]
class RealidadVirtual--><g id="elem_RealidadVirtual"><rect codeLine="94" fill="#F1F1F1" height="67.0679" id="RealidadVirtual" rx="2.5" ry="2.5" style="stroke:#181818;stroke-width:0.5;" width="241" x="3552.5" y="16.5"/><ellipse cx="3617.25" cy="32.5" fill="#ADD1B2" rx="11" ry="11" style="stroke:#181818;stroke-width:1.0;"/><path d="M3617.0469,39.2344 Q3614.5625,39.2344 3613.2344,37.5938 Q3611.9219,35.9219 3611.9219,32.8125 Q3611.9219,29.6875 3613.2344,28.0313 Q3614.5625,26.375 3617.0469,26.375 Q3617.7656,26.375 3618.4219,26.5313 Q3619.0625,26.6875 3619.625,26.9844 L3619.625,29.7031 Q3619.2656,29.3594 3618.9688,29.1719 Q3618.6719,28.9688 3618.4063,28.8438 Q3618.0938,28.7031 3617.7813,28.6406 Q3617.4844,28.5781 3617.1719,28.5781 Q3615.8438,28.5781 3615.1563,29.6406 Q3614.4688,30.7344 3614.4688,32.8125 Q3614.4688,34.9063 3615.1563,35.9688 Q3615.8438,37.0469 3617.1719,37.0469 Q3617.8125,37.0469 3618.4063,36.7656 Q3618.7031,36.6406 3618.9844,36.4531 Q3619.2813,36.25 3619.625,35.9219 L3619.625,38.6406 Q3619.0469,38.9375 3618.4063,39.0938 Q3617.7813,39.2344 3617.0469,39.2344 Z " fill="#000000"/><text fill="#000000" font-family="sans-serif" font-size="14" lengthAdjust="spacing" textLength="103" x="3637.75" y="37.932">RealidadVirtual</text><line style="stroke:#181818;stroke-width:0.5;" x1="3553.5" x2="3792.5" y1="48.5" y2="48.5"/><ellipse cx="3563.5" cy="63.534" fill="none" rx="3" ry="3" style="stroke:#038048;stroke-width:1.0;"/><text fill="#000000" font-family="sans-serif" font-size="14" lengthAdjust="spacing" textLength="215" x="3572.5" y="67.4659">Entornos simulados interactivos</text><line style="stroke:#181818;stroke-width:0.5;" x1="3553.5" x2="3792.5" y1="75.5679" y2="75.5679"/></g><!--MD5=[05a37cc0ba93cd7f6908c1943ed53ccd]
class RedesInformáticas--><g id="elem_RedesInformáticas"><rect codeLine="98" fill="#F1F1F1" height="67.0679" id="RedesInformáticas" rx="2.5" ry="2.5" style="stroke:#181818;stroke-width:0.5;" width="255" x="4768.5" y="153"/><ellipse cx="4828.75" cy="169" fill="#ADD1B2" rx="11" ry="11" style="stroke:#181818;stroke-width:1.0;"/><path d="M4828.5469,175.7344 Q4826.0625,175.7344 4824.7344,174.0938 Q4823.4219,172.4219 4823.4219,169.3125 Q4823.4219,166.1875 4824.7344,164.5313 Q4826.0625,162.875 4828.5469,162.875 Q4829.2656,162.875 4829.9219,163.0313 Q4830.5625,163.1875 4831.125,163.4844 L4831.125,166.2031 Q4830.7656,165.8594 4830.4688,165.6719 Q4830.1719,165.4688 4829.9063,165.3438 Q4829.5938,165.2031 4829.2813,165.1406 Q4828.9844,165.0781 4828.6719,165.0781 Q4827.3438,165.0781 4826.6563,166.1406 Q4825.9688,167.2344 4825.9688,169.3125 Q4825.9688,171.4063 4826.6563,172.4688 Q4827.3438,173.5469 4828.6719,173.5469 Q4829.3125,173.5469 4829.9063,173.2656 Q4830.2031,173.1406 4830.4844,172.9531 Q4830.7813,172.75 4831.125,172.4219 L4831.125,175.1406 Q4830.5469,175.4375 4829.9063,175.5938 Q4829.2813,175.7344 4828.5469,175.7344 Z " fill="#000000"/><text fill="#000000" font-family="sans-serif" font-size="14" lengthAdjust="spacing" textLength="126" x="4849.25" y="174.432">RedesInformáticas</text><line style="stroke:#181818;stroke-width:0.5;" x1="4769.5" x2="5022.5" y1="185" y2="185"/><ellipse cx="4779.5" cy="200.034" fill="none" rx="3" ry="3" style="stroke:#038048;stroke-width:1.0;"/><text fill="#000000" font-family="sans-serif" font-size="14" lengthAdjust="spacing" textLength="229" x="4788.5" y="203.9659">Conexión de equipos informáticos</text><line style="stroke:#181818;stroke-width:0.5;" x1="4769.5" x2="5022.5" y1="212.0679" y2="212.0679"/></g><!--MD5=[b03c8d2c79ff946436dec46a889b7268]
class SLA--><g id="elem_SLA"><rect codeLine="102" fill="#F1F1F1" height="67.0679" id="SLA" rx="2.5" ry="2.5" style="stroke:#181818;stroke-width:0.5;" width="215" x="4518.5" y="153"/><ellipse cx="4609.75" cy="169" fill="#ADD1B2" rx="11" ry="11" style="stroke:#181818;stroke-width:1.0;"/><path d="M4609.5469,175.7344 Q4607.0625,175.7344 4605.7344,174.0938 Q4604.4219,172.4219 4604.4219,169.3125 Q4604.4219,166.1875 4605.7344,164.5313 Q4607.0625,162.875 4609.5469,162.875 Q4610.2656,162.875 4610.9219,163.0313 Q4611.5625,163.1875 4612.125,163.4844 L4612.125,166.2031 Q4611.7656,165.8594 4611.4688,165.6719 Q4611.1719,165.4688 4610.9063,165.3438 Q4610.5938,165.2031 4610.2813,165.1406 Q4609.9844,165.0781 4609.6719,165.0781 Q4608.3438,165.0781 4607.6563,166.1406 Q4606.9688,167.2344 4606.9688,169.3125 Q4606.9688,171.4063 4607.6563,172.4688 Q4608.3438,173.5469 4609.6719,173.5469 Q4610.3125,173.5469 4610.9063,173.2656 Q4611.2031,173.1406 4611.4844,172.9531 Q4611.7813,172.75 4612.125,172.4219 L4612.125,175.1406 Q4611.5469,175.4375 4610.9063,175.5938 Q4610.2813,175.7344 4609.5469,175.7344 Z " fill="#000000"/><text fill="#000000" font-family="sans-serif" font-size="14" lengthAdjust="spacing" textLength="24" x="4630.25" y="174.432">SLA</text><line style="stroke:#181818;stroke-width:0.5;" x1="4519.5" x2="4732.5" y1="185" y2="185"/><ellipse cx="4529.5" cy="200.034" fill="none" rx="3" ry="3" style="stroke:#038048;stroke-width:1.0;"/><text fill="#000000" font-family="sans-serif" font-size="14" lengthAdjust="spacing" textLength="189" x="4538.5" y="203.9659">Acuerdo de nivel de servicio</text><line style="stroke:#181818;stroke-width:0.5;" x1="4519.5" x2="4732.5" y1="212.0679" y2="212.0679"/></g><!--MD5=[fd7c0a344714ab8fd35c545ef3357a0c]
class ProfesionalesSTEM--><g id="elem_ProfesionalesSTEM"><rect codeLine="106" fill="#F1F1F1" height="67.0679" id="ProfesionalesSTEM" rx="2.5" ry="2.5" style="stroke:#181818;stroke-width:0.5;" width="446" x="5059" y="153"/><ellipse cx="5214.25" cy="169" fill="#ADD1B2" rx="11" ry="11" style="stroke:#181818;stroke-width:1.0;"/><path d="M5214.0469,175.7344 Q5211.5625,175.7344 5210.2344,174.0938 Q5208.9219,172.4219 5208.9219,169.3125 Q5208.9219,166.1875 5210.2344,164.5313 Q5211.5625,162.875 5214.0469,162.875 Q5214.7656,162.875 5215.4219,163.0313 Q5216.0625,163.1875 5216.625,163.4844 L5216.625,166.2031 Q5216.2656,165.8594 5215.9688,165.6719 Q5215.6719,165.4688 5215.4063,165.3438 Q5215.0938,165.2031 5214.7813,165.1406 Q5214.4844,165.0781 5214.1719,165.0781 Q5212.8438,165.0781 5212.1563,166.1406 Q5211.4688,167.2344 5211.4688,169.3125 Q5211.4688,171.4063 5212.1563,172.4688 Q5212.8438,173.5469 5214.1719,173.5469 Q5214.8125,173.5469 5215.4063,173.2656 Q5215.7031,173.1406 5215.9844,172.9531 Q5216.2813,172.75 5216.625,172.4219 L5216.625,175.1406 Q5216.0469,175.4375 5215.4063,175.5938 Q5214.7813,175.7344 5214.0469,175.7344 Z " fill="#000000"/><text fill="#000000" font-family="sans-serif" font-size="14" lengthAdjust="spacing" textLength="127" x="5234.75" y="174.432">ProfesionalesSTEM</text><line style="stroke:#181818;stroke-width:0.5;" x1="5060" x2="5504" y1="185" y2="185"/><ellipse cx="5070" cy="200.034" fill="none" rx="3" ry="3" style="stroke:#038048;stroke-width:1.0;"/><text fill="#000000" font-family="sans-serif" font-size="14" lengthAdjust="spacing" textLength="420" x="5079" y="203.9659">Conocimientos en ciencia, tecnología, ingeniería, matemáticas</text><line style="stroke:#181818;stroke-width:0.5;" x1="5060" x2="5504" y1="212.0679" y2="212.0679"/></g><!--MD5=[23b1cce68e550c0486ae0b7993616b1a]
class TalentoDigital--><g id="elem_TalentoDigital"><rect codeLine="110" fill="#F1F1F1" height="67.0679" id="TalentoDigital" rx="2.5" ry="2.5" style="stroke:#181818;stroke-width:0.5;" width="330" x="3829" y="16.5"/><ellipse cx="3942.75" cy="32.5" fill="#ADD1B2" rx="11" ry="11" style="stroke:#181818;stroke-width:1.0;"/><path d="M3942.5469,39.2344 Q3940.0625,39.2344 3938.7344,37.5938 Q3937.4219,35.9219 3937.4219,32.8125 Q3937.4219,29.6875 3938.7344,28.0313 Q3940.0625,26.375 3942.5469,26.375 Q3943.2656,26.375 3943.9219,26.5313 Q3944.5625,26.6875 3945.125,26.9844 L3945.125,29.7031 Q3944.7656,29.3594 3944.4688,29.1719 Q3944.1719,28.9688 3943.9063,28.8438 Q3943.5938,28.7031 3943.2813,28.6406 Q3942.9844,28.5781 3942.6719,28.5781 Q3941.3438,28.5781 3940.6563,29.6406 Q3939.9688,30.7344 3939.9688,32.8125 Q3939.9688,34.9063 3940.6563,35.9688 Q3941.3438,37.0469 3942.6719,37.0469 Q3943.3125,37.0469 3943.9063,36.7656 Q3944.2031,36.6406 3944.4844,36.4531 Q3944.7813,36.25 3945.125,35.9219 L3945.125,38.6406 Q3944.5469,38.9375 3943.9063,39.0938 Q3943.2813,39.2344 3942.5469,39.2344 Z " fill="#000000"/><text fill="#000000" font-family="sans-serif" font-size="14" lengthAdjust="spacing" textLength="94" x="3963.25" y="37.932">TalentoDigital</text><line style="stroke:#181818;stroke-width:0.5;" x1="3830" x2="4158" y1="48.5" y2="48.5"/><ellipse cx="3840" cy="63.534" fill="none" rx="3" ry="3" style="stroke:#038048;stroke-width:1.0;"/><text fill="#000000" font-family="sans-serif" font-size="14" lengthAdjust="spacing" textLength="304" x="3849" y="67.4659">Habilidades en tecnologías de la información</text><line style="stroke:#181818;stroke-width:0.5;" x1="3830" x2="4158" y1="75.5679" y2="75.5679"/></g><!--MD5=[c369c7d981ee5af3db4fdbd3ada72a97]
class TalentoSTEM--><g id="elem_TalentoSTEM"><rect codeLine="114" fill="#F1F1F1" height="67.0679" id="TalentoSTEM" rx="2.5" ry="2.5" style="stroke:#181818;stroke-width:0.5;" width="260" x="5152" y="16.5"/><ellipse cx="5234.25" cy="32.5" fill="#ADD1B2" rx="11" ry="11" style="stroke:#181818;stroke-width:1.0;"/><path d="M5234.0469,39.2344 Q5231.5625,39.2344 5230.2344,37.5938 Q5228.9219,35.9219 5228.9219,32.8125 Q5228.9219,29.6875 5230.2344,28.0313 Q5231.5625,26.375 5234.0469,26.375 Q5234.7656,26.375 5235.4219,26.5313 Q5236.0625,26.6875 5236.625,26.9844 L5236.625,29.7031 Q5236.2656,29.3594 5235.9688,29.1719 Q5235.6719,28.9688 5235.4063,28.8438 Q5235.0938,28.7031 5234.7813,28.6406 Q5234.4844,28.5781 5234.1719,28.5781 Q5232.8438,28.5781 5232.1563,29.6406 Q5231.4688,30.7344 5231.4688,32.8125 Q5231.4688,34.9063 5232.1563,35.9688 Q5232.8438,37.0469 5234.1719,37.0469 Q5234.8125,37.0469 5235.4063,36.7656 Q5235.7031,36.6406 5235.9844,36.4531 Q5236.2813,36.25 5236.625,35.9219 L5236.625,38.6406 Q5236.0469,38.9375 5235.4063,39.0938 Q5234.7813,39.2344 5234.0469,39.2344 Z " fill="#000000"/><text fill="#000000" font-family="sans-serif" font-size="14" lengthAdjust="spacing" textLength="87" x="5254.75" y="37.932">TalentoSTEM</text><line style="stroke:#181818;stroke-width:0.5;" x1="5153" x2="5411" y1="48.5" y2="48.5"/><ellipse cx="5163" cy="63.534" fill="none" rx="3" ry="3" style="stroke:#038048;stroke-width:1.0;"/><text fill="#000000" font-family="sans-serif" font-size="14" lengthAdjust="spacing" textLength="234" x="5172" y="67.4659">Perfil profesional interdisciplinario</text><line style="stroke:#181818;stroke-width:0.5;" x1="5153" x2="5411" y1="75.5679" y2="75.5679"/></g><!--MD5=[802d2b52a51e5d0bd4856541e4fd5e94]
class TransformaciónDigital--><g id="elem_TransformaciónDigital"><rect codeLine="118" fill="#F1F1F1" height="67.0679" id="TransformaciónDigital" rx="2.5" ry="2.5" style="stroke:#181818;stroke-width:0.5;" width="250" x="3400" y="153"/><ellipse cx="3445.75" cy="169" fill="#ADD1B2" rx="11" ry="11" style="stroke:#181818;stroke-width:1.0;"/><path d="M3445.5469,175.7344 Q3443.0625,175.7344 3441.7344,174.0938 Q3440.4219,172.4219 3440.4219,169.3125 Q3440.4219,166.1875 3441.7344,164.5313 Q3443.0625,162.875 3445.5469,162.875 Q3446.2656,162.875 3446.9219,163.0313 Q3447.5625,163.1875 3448.125,163.4844 L3448.125,166.2031 Q3447.7656,165.8594 3447.4688,165.6719 Q3447.1719,165.4688 3446.9063,165.3438 Q3446.5938,165.2031 3446.2813,165.1406 Q3445.9844,165.0781 3445.6719,165.0781 Q3444.3438,165.0781 3443.6563,166.1406 Q3442.9688,167.2344 3442.9688,169.3125 Q3442.9688,171.4063 3443.6563,172.4688 Q3444.3438,173.5469 3445.6719,173.5469 Q3446.3125,173.5469 3446.9063,173.2656 Q3447.2031,173.1406 3447.4844,172.9531 Q3447.7813,172.75 3448.125,172.4219 L3448.125,175.1406 Q3447.5469,175.4375 3446.9063,175.5938 Q3446.2813,175.7344 3445.5469,175.7344 Z " fill="#000000"/><text fill="#000000" font-family="sans-serif" font-size="14" lengthAdjust="spacing" textLength="150" x="3466.25" y="174.432">TransformaciónDigital</text><line style="stroke:#181818;stroke-width:0.5;" x1="3401" x2="3649" y1="185" y2="185"/><ellipse cx="3411" cy="200.034" fill="none" rx="3" ry="3" style="stroke:#038048;stroke-width:1.0;"/><text fill="#000000" font-family="sans-serif" font-size="14" lengthAdjust="spacing" textLength="224" x="3420" y="203.9659">Digitalización y enfoque en datos</text><line style="stroke:#181818;stroke-width:0.5;" x1="3401" x2="3649" y1="212.0679" y2="212.0679"/></g><!--MD5=[341983d1bf04a119463486f1a3f4f07b]
link BigData to InteligenciaDeNegocios--><g id="link_BigData_InteligenciaDeNegocios"><path codeLine="122" d="M782.37,83.59 C846.3,132.76 966.97,225.57 1033.34,276.61 " fill="none" id="BigData-to-InteligenciaDeNegocios" style="stroke:#181818;stroke-width:1.0;"/><polygon fill="#181818" points="1037.63,279.91,1032.9337,271.2529,1033.6663,276.8621,1028.0571,277.5948,1037.63,279.91" style="stroke:#181818;stroke-width:1.0;"/></g><!--MD5=[c88124fa698f6f1c3cb9bc12d9955b2b]
link BigData to MachineLearning--><g id="link_BigData_MachineLearning"><path codeLine="123" d="M831.26,83.56 C888.6,104.01 962.46,130.37 1020.72,151.15 " fill="none" id="BigData-to-MachineLearning" style="stroke:#181818;stroke-width:1.0;"/><polygon fill="#181818" points="1025.6,152.89,1018.4723,146.0933,1020.8919,151.2065,1015.7787,153.6262,1025.6,152.89" style="stroke:#181818;stroke-width:1.0;"/></g><!--MD5=[f27b372256717017d93b20e0486f2afb]
link Blockchain to Ciberseguridad--><g id="link_Blockchain_Ciberseguridad"><path codeLine="124" d="M1828,93.19 C1828,110.64 1828,130.72 1828,147.69 " fill="none" id="Blockchain-to-Ciberseguridad" style="stroke:#181818;stroke-width:1.0;"/><polygon fill="#181818" points="1828,152.85,1832,143.85,1828,147.85,1824,143.85,1828,152.85" style="stroke:#181818;stroke-width:1.0;"/></g><!--MD5=[0d2759c02bd334a5f567cb2ed1f4a8b0]
link CloudComputing to Ciberseguridad--><g id="link_CloudComputing_Ciberseguridad"><path codeLine="125" d="M2072.81,83.56 C2023.89,103.93 1960.91,130.15 1911.09,150.9 " fill="none" id="CloudComputing-to-Ciberseguridad" style="stroke:#181818;stroke-width:1.0;"/><polygon fill="#181818" points="1906.31,152.89,1916.1562,153.1208,1910.9254,150.9669,1913.0792,145.7362,1906.31,152.89" style="stroke:#181818;stroke-width:1.0;"/></g><!--MD5=[f6007a90b2a4db22c380a5b1f1dff609]
link CloudComputing to CRM--><g id="link_CloudComputing_CRM"><path codeLine="126" d="M2151,83.56 C2151,102.91 2151,127.54 2151,147.74 " fill="none" id="CloudComputing-to-CRM" style="stroke:#181818;stroke-width:1.0;"/><polygon fill="#181818" points="2151,152.77,2155,143.77,2151,147.77,2147,143.77,2151,152.77" style="stroke:#181818;stroke-width:1.0;"/></g><!--MD5=[a3f77e1ee6fe711f65cacc84c2e83f88]
link CloudComputing to ERP--><g id="link_CloudComputing_ERP"><path codeLine="127" d="M2231.61,83.56 C2282.05,103.93 2346.97,130.15 2398.34,150.9 " fill="none" id="CloudComputing-to-ERP" style="stroke:#181818;stroke-width:1.0;"/><polygon fill="#181818" points="2403.27,152.89,2396.4256,145.8081,2398.6346,151.0158,2393.4268,153.2248,2403.27,152.89" style="stroke:#181818;stroke-width:1.0;"/></g><!--MD5=[2e6b4ecacf4f3700da098c8d1e93b49e]
link Industria40 to InternetOfThings--><g id="link_Industria40_InternetOfThings"><path codeLine="128" d="M1518,83.56 C1518,102.91 1518,127.54 1518,147.74 " fill="none" id="Industria40-to-InternetOfThings" style="stroke:#181818;stroke-width:1.0;"/><polygon fill="#181818" points="1518,152.77,1522,143.77,1518,147.77,1514,143.77,1518,152.77" style="stroke:#181818;stroke-width:1.0;"/></g><!--MD5=[98140c19b421d5b9d752ef3ed08968bf]
link Industria40 to MachineLearning--><g id="link_Industria40_MachineLearning"><path codeLine="129" d="M1420.93,83.56 C1358.47,104.51 1277.56,131.65 1214.93,152.65 " fill="none" id="Industria40-to-MachineLearning" style="stroke:#181818;stroke-width:1.0;"/><polygon fill="#181818" points="1210.07,154.28,1219.8739,155.2198,1214.812,152.6946,1217.3372,147.6326,1210.07,154.28" style="stroke:#181818;stroke-width:1.0;"/></g><!--MD5=[266c0000ad4ece1bdadbbd3bcc0a340a]
link Innovación to TransformaciónDigital--><g id="link_Innovación_TransformaciónDigital"><path codeLine="130" d="M3184.69,83.56 C3253.25,104.1 3341.65,130.58 3411.17,151.4 " fill="none" id="Innovación-to-TransformaciónDigital" style="stroke:#181818;stroke-width:1.0;"/><polygon fill="#181818" points="3416.14,152.89,3408.6777,146.4623,3411.3528,151.4467,3406.3685,154.1218,3416.14,152.89" style="stroke:#181818;stroke-width:1.0;"/></g><!--MD5=[73d464d18949ec618877b441835872ed]
link InteligenciaArtificial to MachineLearning--><g id="link_InteligenciaArtificial_MachineLearning"><path codeLine="131" d="M1145.04,83.56 C1139.72,102.91 1132.94,127.54 1127.39,147.74 " fill="none" id="InteligenciaArtificial-to-MachineLearning" style="stroke:#181818;stroke-width:1.0;"/><polygon fill="#181818" points="1126,152.77,1132.2443,145.1536,1127.3264,147.9492,1124.5309,143.0313,1126,152.77" style="stroke:#181818;stroke-width:1.0;"/></g><!--MD5=[cd3c7328d9a1e51cf58bde6f8dfad362]
link InternetOfThings to IntegraciónDeSistemasDeGestión--><g id="link_InternetOfThings_IntegraciónDeSistemasDeGestión"><path codeLine="132" d="M1518,220.02 C1518,236.67 1518,257.04 1518,274.42 " fill="none" id="InternetOfThings-to-IntegraciónDeSistemasDeGestión" style="stroke:#181818;stroke-width:1.0;"/><polygon fill="#181818" points="1518,279.71,1522,270.71,1518,274.71,1514,270.71,1518,279.71" style="stroke:#181818;stroke-width:1.0;"/></g><!--MD5=[efcbacab31975db6ca92866a4a265352]
link ITIL to OperaciónDeSistemas--><g id="link_ITIL_OperaciónDeSistemas"><path codeLine="133" d="M4338,83.56 C4338,102.91 4338,127.54 4338,147.74 " fill="none" id="ITIL-to-OperaciónDeSistemas" style="stroke:#181818;stroke-width:1.0;"/><polygon fill="#181818" points="4338,152.77,4342,143.77,4338,147.77,4334,143.77,4338,152.77" style="stroke:#181818;stroke-width:1.0;"/></g><!--MD5=[1d2512c68ad772c5e474ed5b5cb29664]
link MachineLearning to InteligenciaDeNegocios--><g id="link_MachineLearning_InteligenciaDeNegocios"><path codeLine="134" d="M1107.38,220.02 C1102.4,236.81 1096.31,257.39 1091.14,274.87 " fill="none" id="MachineLearning-to-InteligenciaDeNegocios" style="stroke:#181818;stroke-width:1.0;"/><polygon fill="#181818" points="1089.71,279.71,1096.0967,272.2126,1091.127,274.915,1088.4247,269.9454,1089.71,279.71" style="stroke:#181818;stroke-width:1.0;"/></g><!--MD5=[a1f4c55a13be30a8c07207abb7b707e2]
link ModeloTCPIP to RedesInformáticas--><g id="link_ModeloTCPIP_RedesInformáticas"><path codeLine="135" d="M4884.9,83.56 C4882.88,102.91 4882.72,127.54 4884.41,147.74 " fill="none" id="ModeloTCPIP-to-RedesInformáticas" style="stroke:#181818;stroke-width:1.0;"/><polygon fill="#181818" points="4884.88,152.77,4888.015,143.4334,4884.4093,147.7922,4880.0505,144.1865,4884.88,152.77" style="stroke:#181818;stroke-width:1.0;"/></g><!--MD5=[cf396632f44bf0ec21b1b46ebd1cd9b8]
link RedesInformáticas to ModeloTCPIP--><g id="link_RedesInformáticas_ModeloTCPIP"><path codeLine="140" d="M4907.77,152.77 C4909.9,133.39 4910.06,108.76 4908.26,88.59 " fill="none" id="RedesInformáticas-to-ModeloTCPIP" style="stroke:#181818;stroke-width:1.0;"/><polygon fill="#181818" points="4907.76,83.56,4904.6807,92.9151,4908.2603,88.5349,4912.6406,92.1145,4907.76,83.56" style="stroke:#181818;stroke-width:1.0;"/></g><!--MD5=[8a81547c70c73e5366414931d2a15db4]
link NFC to ECommerce--><g id="link_NFC_ECommerce"><path codeLine="136" d="M2754,83.56 C2754,102.91 2754,127.54 2754,147.74 " fill="none" id="NFC-to-ECommerce" style="stroke:#181818;stroke-width:1.0;"/><polygon fill="#181818" points="2754,152.77,2758,143.77,2754,147.77,2750,143.77,2754,152.77" style="stroke:#181818;stroke-width:1.0;"/></g><!--MD5=[52ad2478e6b19ed2342cbdbd1de72ba1]
link OperaciónDeSistemas to Outsourcing--><g id="link_OperaciónDeSistemas_Outsourcing"><path codeLine="137" d="M4375.46,220.02 C4395.46,237.38 4420.13,258.79 4440.69,276.64 " fill="none" id="OperaciónDeSistemas-to-Outsourcing" style="stroke:#181818;stroke-width:1.0;"/><polygon fill="#181818" points="4444.48,279.93,4440.3024,271.0111,4440.703,276.6537,4435.0603,277.0543,4444.48,279.93" style="stroke:#181818;stroke-width:1.0;"/></g><!--MD5=[12bef93fff0e8772fe4cae1b220508f1]
link RealidadAumentada to TransformaciónDigital--><g id="link_RealidadAumentada_TransformaciónDigital"><path codeLine="138" d="M3413.58,83.56 C3435.27,103.4 3463.02,128.79 3485.41,149.27 " fill="none" id="RealidadAumentada-to-TransformaciónDigital" style="stroke:#181818;stroke-width:1.0;"/><polygon fill="#181818" points="3489.23,152.77,3485.308,143.7357,3485.5478,149.3875,3479.896,149.6273,3489.23,152.77" style="stroke:#181818;stroke-width:1.0;"/></g><!--MD5=[e7a61128ee57c9ff82a7380d04a0a7c7]
link RealidadVirtual to TransformaciónDigital--><g id="link_RealidadVirtual_TransformaciónDigital"><path codeLine="139" d="M3637.17,83.56 C3615.34,103.4 3587.4,128.79 3564.86,149.27 " fill="none" id="RealidadVirtual-to-TransformaciónDigital" style="stroke:#181818;stroke-width:1.0;"/><polygon fill="#181818" points="3561.01,152.77,3570.3566,149.6649,3564.7058,149.4024,3564.9684,143.7516,3561.01,152.77" style="stroke:#181818;stroke-width:1.0;"/></g><!--MD5=[ac840089625dde19dc985b49b94b5380]
link SLA to Outsourcing--><g id="link_SLA_Outsourcing"><path codeLine="141" d="M4588.54,220.02 C4568.54,237.38 4543.87,258.79 4523.31,276.64 " fill="none" id="SLA-to-Outsourcing" style="stroke:#181818;stroke-width:1.0;"/><polygon fill="#181818" points="4519.52,279.93,4528.9397,277.0543,4523.297,276.6537,4523.6976,271.0111,4519.52,279.93" style="stroke:#181818;stroke-width:1.0;"/></g><!--MD5=[bd4052e50b3bb90aecbca5498a44356e]
link TalentoDigital to TransformaciónDigital--><g id="link_TalentoDigital_TransformaciónDigital"><path codeLine="142" d="M3880.47,83.56 C3808.86,104.1 3716.52,130.58 3643.9,151.4 " fill="none" id="TalentoDigital-to-TransformaciónDigital" style="stroke:#181818;stroke-width:1.0;"/><polygon fill="#181818" points="3638.7,152.89,3648.4515,154.2713,3643.5087,151.5202,3646.2598,146.5773,3638.7,152.89" style="stroke:#181818;stroke-width:1.0;"/></g><!--MD5=[3906ffc5c26f6861e106bd02ec2786cc]
link TalentoSTEM to ProfesionalesSTEM--><g id="link_TalentoSTEM_ProfesionalesSTEM"><path codeLine="143" d="M5282,83.56 C5282,102.91 5282,127.54 5282,147.74 " fill="none" id="TalentoSTEM-to-ProfesionalesSTEM" style="stroke:#181818;stroke-width:1.0;"/><polygon fill="#181818" points="5282,152.77,5286,143.77,5282,147.77,5278,143.77,5282,152.77" style="stroke:#181818;stroke-width:1.0;"/></g><!--MD5=[a539584c7591b6169c405d44f086c7af]
@startuml
class BigData {
    +5 Vs: Volumen, Variedad, Velocidad, Veracidad, Valor
}

class Blockchain {
    +Seguridad mediante cifrado
    +Transacciones inmutables
}

class Canvas {
    +Modelo de negocio Lean Startup
}

class Ciberseguridad {
    +Protección contra ataques maliciosos
}

class CloudComputing {
    +Servicios a través de Internet
}

class CRM {
    +Gestión de las relaciones con los clientes
}

class ECommerce {
    +Venta y compra online
}

class ERP {
    +Planificación de recursos empresariales
}

class Industria40 {
    +Tecnologías avanzadas e inteligentes
}

class Innovación {
    +Mejora de la posición empresarial
}

class IntegraciónDeSistemasDeGestión {
    +Unificación de criterios y objetivos de software
}

class InteligenciaArtificial {
    +Algoritmos para simular el comportamiento humano
}

class InteligenciaDeNegocios {
    +Análisis de datos para la toma de decisiones
}

class InternetOfThings {
    +Objetos físicos conectados a Internet
}

class ITIL {
    +Mejores prácticas para la gestión de IT
}

class Latencia {
    +Retardos temporales en la red
}

class MachineLearning {
    +Aprendizaje automático
}

class ModeloTCPIP {
    +Protocolos para la comunicación en redes
}

class NFC {
    +Comunicación inalámbrica de corto alcance
}

class OcéanoAzul {
    +Creación de nuevos mercados
}

class OperaciónDeSistemas {
    +Administración de software y hardware
}

class Outsourcing {
    +Externalización de sistemas de información
}

class RealidadAumentada {
    +Información virtual en el entorno real
}

class RealidadVirtual {
    +Entornos simulados interactivos
}

class RedesInformáticas {
    +Conexión de equipos informáticos
}

class SLA {
    +Acuerdo de nivel de servicio
}

class ProfesionalesSTEM {
    +Conocimientos en ciencia, tecnología, ingeniería, matemáticas
}

class TalentoDigital {
    +Habilidades en tecnologías de la información
}

class TalentoSTEM {
    +Perfil profesional interdisciplinario
}

class TransformaciónDigital {
    +Digitalización y enfoque en datos
}

BigData - -> InteligenciaDeNegocios
BigData - -> MachineLearning
Blockchain - -> Ciberseguridad
CloudComputing - -> Ciberseguridad
CloudComputing - -> CRM
CloudComputing - -> ERP
Industria40 - -> InternetOfThings
Industria40 - -> MachineLearning
Innovación - -> TransformaciónDigital
InteligenciaArtificial - -> MachineLearning
InternetOfThings - -> IntegraciónDeSistemasDeGestión
ITIL - -> OperaciónDeSistemas
MachineLearning - -> InteligenciaDeNegocios
ModeloTCPIP - -> RedesInformáticas
NFC - -> ECommerce
OperaciónDeSistemas - -> Outsourcing
RealidadAumentada - -> TransformaciónDigital
RealidadVirtual - -> TransformaciónDigital
RedesInformáticas - -> ModeloTCPIP
SLA - -> Outsourcing
TalentoDigital - -> TransformaciónDigital
TalentoSTEM - -> ProfesionalesSTEM

@enduml

PlantUML version 1.2022.7(Mon Aug 22 19:01:30 CEST 2022)
(GPL source distribution)
Java Runtime: OpenJDK Runtime Environment
JVM: OpenJDK 64-Bit Server VM
Default Encoding: UTF-8
Language: es
Country: ES
--></g></svg>