<?xml version="1.0" encoding="UTF-8" standalone="no"?><svg xmlns="http://www.w3.org/2000/svg" xmlns:xlink="http://www.w3.org/1999/xlink" contentStyleType="text/css" height="365px" preserveAspectRatio="none" style="width:485px;height:365px;background:#FFFFFF;" version="1.1" viewBox="0 0 485 365" width="485px" zoomAndPan="magnify"><defs/><g><!--MD5=[1ec02a56cfdb0fb8691cbdccdb3560c9]
cluster Empresa--><g id="cluster_Empresa"><path d="M8.5,38.309 L69.5,38.309 A3.75,3.75 0 0 1 72,40.809 L79,63.3769 L475.5,63.3769 A2.5,2.5 0 0 1 478,65.8769 L478,355.809 A2.5,2.5 0 0 1 475.5,358.309 L8.5,358.309 A2.5,2.5 0 0 1 6,355.809 L6,40.809 A2.5,2.5 0 0 1 8.5,38.309 " fill="none" style="stroke:#000000;stroke-width:1.5;"/><line style="stroke:#000000;stroke-width:1.5;" x1="6" x2="79" y1="63.3769" y2="63.3769"/><text fill="#000000" font-family="sans-serif" font-size="14" font-weight="bold" lengthAdjust="spacing" textLength="60" x="10" y="55.2749">Empresa</text></g><!--MD5=[a2a1c5208c625434b186fb231d976767]
class Empresav001--><g id="elem_Empresav001"><rect fill="#F1F1F1" height="48" id="Empresav001" rx="2.5" ry="2.5" style="stroke:#181818;stroke-width:0.5;" width="122" x="36" y="76.309"/><ellipse cx="51" cy="92.309" fill="#ADD1B2" rx="11" ry="11" style="stroke:#181818;stroke-width:1.0;"/><path d="M50.4688,99.2309 Q48.7188,99.2309 47.5781,98.4965 Q46.4531,97.7465 45.8906,96.4028 Q45.3438,95.0434 45.3438,93.2465 Q45.3438,91.2153 46,89.7621 Q46.6563,88.309 47.9375,87.5278 Q49.2188,86.7465 51.0938,86.7465 Q51.9844,86.7465 52.6563,86.934 Q53.3281,87.1059 54.0156,87.4496 L53.2031,89.4653 Q52.5781,89.1528 52.0313,89.0278 Q51.5,88.9028 51.0156,88.9028 Q49.8438,88.9028 49.1406,89.434 Q48.4375,89.9653 48.1406,90.9184 Q47.8438,91.8715 47.8438,93.1371 Q47.8438,95.1528 48.5625,96.1215 Q49.2813,97.0746 50.875,97.0746 Q51.4688,97.0746 52.0938,96.9184 Q52.7188,96.7621 53.5469,96.3871 L53.5469,98.6059 Q52.8125,98.9184 52.0156,99.0746 Q51.2344,99.2309 50.4688,99.2309 Z " fill="#000000"/><text fill="#000000" font-family="sans-serif" font-size="14" lengthAdjust="spacing" textLength="90" x="65" y="97.741">Empresav001</text><line style="stroke:#181818;stroke-width:0.5;" x1="37" x2="157" y1="108.309" y2="108.309"/><line style="stroke:#181818;stroke-width:0.5;" x1="37" x2="157" y1="116.309" y2="116.309"/></g><!--MD5=[e7c2338fe9efbeac863cc7a617d42309]
class Empresav002--><g id="elem_Empresav002"><rect fill="#F1F1F1" height="48" id="Empresav002" rx="2.5" ry="2.5" style="stroke:#181818;stroke-width:0.5;" width="122" x="332" y="76.309"/><ellipse cx="347" cy="92.309" fill="#ADD1B2" rx="11" ry="11" style="stroke:#181818;stroke-width:1.0;"/><path d="M346.4688,99.2309 Q344.7188,99.2309 343.5781,98.4965 Q342.4531,97.7465 341.8906,96.4028 Q341.3438,95.0434 341.3438,93.2465 Q341.3438,91.2153 342,89.7621 Q342.6563,88.309 343.9375,87.5278 Q345.2188,86.7465 347.0938,86.7465 Q347.9844,86.7465 348.6563,86.934 Q349.3281,87.1059 350.0156,87.4496 L349.2031,89.4653 Q348.5781,89.1528 348.0313,89.0278 Q347.5,88.9028 347.0156,88.9028 Q345.8438,88.9028 345.1406,89.434 Q344.4375,89.9653 344.1406,90.9184 Q343.8438,91.8715 343.8438,93.1371 Q343.8438,95.1528 344.5625,96.1215 Q345.2813,97.0746 346.875,97.0746 Q347.4688,97.0746 348.0938,96.9184 Q348.7188,96.7621 349.5469,96.3871 L349.5469,98.6059 Q348.8125,98.9184 348.0156,99.0746 Q347.2344,99.2309 346.4688,99.2309 Z " fill="#000000"/><text fill="#000000" font-family="sans-serif" font-size="14" lengthAdjust="spacing" textLength="90" x="361" y="97.741">Empresav002</text><line style="stroke:#181818;stroke-width:0.5;" x1="333" x2="453" y1="108.309" y2="108.309"/><line style="stroke:#181818;stroke-width:0.5;" x1="333" x2="453" y1="116.309" y2="116.309"/></g><!--MD5=[88acaf8c66b51908a5d7e43479c0bec4]
class Estrategiav001--><g id="elem_Estrategiav001"><rect fill="#F1F1F1" height="48" id="Estrategiav001" rx="2.5" ry="2.5" style="stroke:#181818;stroke-width:0.5;" width="131" x="22.5" y="185.309"/><ellipse cx="37.5" cy="201.309" fill="#ADD1B2" rx="11" ry="11" style="stroke:#181818;stroke-width:1.0;"/><path d="M36.9688,208.2309 Q35.2188,208.2309 34.0781,207.4965 Q32.9531,206.7465 32.3906,205.4028 Q31.8438,204.0434 31.8438,202.2465 Q31.8438,200.2153 32.5,198.7621 Q33.1563,197.309 34.4375,196.5278 Q35.7188,195.7465 37.5938,195.7465 Q38.4844,195.7465 39.1563,195.934 Q39.8281,196.1059 40.5156,196.4496 L39.7031,198.4653 Q39.0781,198.1528 38.5313,198.0278 Q38,197.9028 37.5156,197.9028 Q36.3438,197.9028 35.6406,198.434 Q34.9375,198.9653 34.6406,199.9184 Q34.3438,200.8715 34.3438,202.1371 Q34.3438,204.1528 35.0625,205.1215 Q35.7813,206.0746 37.375,206.0746 Q37.9688,206.0746 38.5938,205.9184 Q39.2188,205.7621 40.0469,205.3871 L40.0469,207.6059 Q39.3125,207.9184 38.5156,208.0746 Q37.7344,208.2309 36.9688,208.2309 Z " fill="#000000"/><text fill="#000000" font-family="sans-serif" font-size="14" lengthAdjust="spacing" textLength="99" x="51.5" y="206.741">Estrategiav001</text><line style="stroke:#181818;stroke-width:0.5;" x1="23.5" x2="152.5" y1="217.309" y2="217.309"/><line style="stroke:#181818;stroke-width:0.5;" x1="23.5" x2="152.5" y1="225.309" y2="225.309"/></g><!--MD5=[d387694e8ec4a12d249be9ffa956b7d8]
class Planificacionv001--><g id="elem_Planificacionv001"><rect fill="#F1F1F1" height="48" id="Planificacionv001" rx="2.5" ry="2.5" style="stroke:#181818;stroke-width:0.5;" width="148" x="22" y="294.309"/><ellipse cx="37" cy="310.309" fill="#ADD1B2" rx="11" ry="11" style="stroke:#181818;stroke-width:1.0;"/><path d="M36.4688,317.2309 Q34.7188,317.2309 33.5781,316.4965 Q32.4531,315.7465 31.8906,314.4028 Q31.3438,313.0434 31.3438,311.2465 Q31.3438,309.2153 32,307.7621 Q32.6563,306.309 33.9375,305.5278 Q35.2188,304.7465 37.0938,304.7465 Q37.9844,304.7465 38.6563,304.934 Q39.3281,305.1059 40.0156,305.4496 L39.2031,307.4653 Q38.5781,307.1528 38.0313,307.0278 Q37.5,306.9028 37.0156,306.9028 Q35.8438,306.9028 35.1406,307.434 Q34.4375,307.9653 34.1406,308.9184 Q33.8438,309.8715 33.8438,311.1371 Q33.8438,313.1528 34.5625,314.1215 Q35.2813,315.0746 36.875,315.0746 Q37.4688,315.0746 38.0938,314.9184 Q38.7188,314.7621 39.5469,314.3871 L39.5469,316.6059 Q38.8125,316.9184 38.0156,317.0746 Q37.2344,317.2309 36.4688,317.2309 Z " fill="#000000"/><text fill="#000000" font-family="sans-serif" font-size="14" lengthAdjust="spacing" textLength="116" x="51" y="315.741">Planificacionv001</text><line style="stroke:#181818;stroke-width:0.5;" x1="23" x2="169" y1="326.309" y2="326.309"/><line style="stroke:#181818;stroke-width:0.5;" x1="23" x2="169" y1="334.309" y2="334.309"/></g><!--MD5=[9b3203d03270e708acc3d0bbdd79b0f0]
class Estrategiav002--><g id="elem_Estrategiav002"><rect fill="#F1F1F1" height="48" id="Estrategiav002" rx="2.5" ry="2.5" style="stroke:#181818;stroke-width:0.5;" width="131" x="330.5" y="185.309"/><ellipse cx="345.5" cy="201.309" fill="#ADD1B2" rx="11" ry="11" style="stroke:#181818;stroke-width:1.0;"/><path d="M344.9688,208.2309 Q343.2188,208.2309 342.0781,207.4965 Q340.9531,206.7465 340.3906,205.4028 Q339.8438,204.0434 339.8438,202.2465 Q339.8438,200.2153 340.5,198.7621 Q341.1563,197.309 342.4375,196.5278 Q343.7188,195.7465 345.5938,195.7465 Q346.4844,195.7465 347.1563,195.934 Q347.8281,196.1059 348.5156,196.4496 L347.7031,198.4653 Q347.0781,198.1528 346.5313,198.0278 Q346,197.9028 345.5156,197.9028 Q344.3438,197.9028 343.6406,198.434 Q342.9375,198.9653 342.6406,199.9184 Q342.3438,200.8715 342.3438,202.1371 Q342.3438,204.1528 343.0625,205.1215 Q343.7813,206.0746 345.375,206.0746 Q345.9688,206.0746 346.5938,205.9184 Q347.2188,205.7621 348.0469,205.3871 L348.0469,207.6059 Q347.3125,207.9184 346.5156,208.0746 Q345.7344,208.2309 344.9688,208.2309 Z " fill="#000000"/><text fill="#000000" font-family="sans-serif" font-size="14" lengthAdjust="spacing" textLength="99" x="359.5" y="206.741">Estrategiav002</text><line style="stroke:#181818;stroke-width:0.5;" x1="331.5" x2="460.5" y1="217.309" y2="217.309"/><line style="stroke:#181818;stroke-width:0.5;" x1="331.5" x2="460.5" y1="225.309" y2="225.309"/></g><!--MD5=[49909c5969531dd3677644e9583f98a1]
class Planificacionv002--><g id="elem_Planificacionv002"><rect fill="#F1F1F1" height="48" id="Planificacionv002" rx="2.5" ry="2.5" style="stroke:#181818;stroke-width:0.5;" width="148" x="314" y="294.309"/><ellipse cx="329" cy="310.309" fill="#ADD1B2" rx="11" ry="11" style="stroke:#181818;stroke-width:1.0;"/><path d="M328.4688,317.2309 Q326.7188,317.2309 325.5781,316.4965 Q324.4531,315.7465 323.8906,314.4028 Q323.3438,313.0434 323.3438,311.2465 Q323.3438,309.2153 324,307.7621 Q324.6563,306.309 325.9375,305.5278 Q327.2188,304.7465 329.0938,304.7465 Q329.9844,304.7465 330.6563,304.934 Q331.3281,305.1059 332.0156,305.4496 L331.2031,307.4653 Q330.5781,307.1528 330.0313,307.0278 Q329.5,306.9028 329.0156,306.9028 Q327.8438,306.9028 327.1406,307.434 Q326.4375,307.9653 326.1406,308.9184 Q325.8438,309.8715 325.8438,311.1371 Q325.8438,313.1528 326.5625,314.1215 Q327.2813,315.0746 328.875,315.0746 Q329.4688,315.0746 330.0938,314.9184 Q330.7188,314.7621 331.5469,314.3871 L331.5469,316.6059 Q330.8125,316.9184 330.0156,317.0746 Q329.2344,317.2309 328.4688,317.2309 Z " fill="#000000"/><text fill="#000000" font-family="sans-serif" font-size="14" lengthAdjust="spacing" textLength="116" x="343" y="315.741">Planificacionv002</text><line style="stroke:#181818;stroke-width:0.5;" x1="315" x2="461" y1="326.309" y2="326.309"/><line style="stroke:#181818;stroke-width:0.5;" x1="315" x2="461" y1="334.309" y2="334.309"/></g><!--MD5=[297bfc80be8726cb2e4fdd25ad34e9a1]
class Innovación--><g id="elem_Innovación"><rect fill="#F1F1F1" height="48" id="Innovación" rx="2.5" ry="2.5" style="stroke:#181818;stroke-width:0.5;" width="106" x="189" y="185.309"/><ellipse cx="204" cy="201.309" fill="#ADD1B2" rx="11" ry="11" style="stroke:#181818;stroke-width:1.0;"/><path d="M203.4688,208.2309 Q201.7188,208.2309 200.5781,207.4965 Q199.4531,206.7465 198.8906,205.4028 Q198.3438,204.0434 198.3438,202.2465 Q198.3438,200.2153 199,198.7621 Q199.6563,197.309 200.9375,196.5278 Q202.2188,195.7465 204.0938,195.7465 Q204.9844,195.7465 205.6563,195.934 Q206.3281,196.1059 207.0156,196.4496 L206.2031,198.4653 Q205.5781,198.1528 205.0313,198.0278 Q204.5,197.9028 204.0156,197.9028 Q202.8438,197.9028 202.1406,198.434 Q201.4375,198.9653 201.1406,199.9184 Q200.8438,200.8715 200.8438,202.1371 Q200.8438,204.1528 201.5625,205.1215 Q202.2813,206.0746 203.875,206.0746 Q204.4688,206.0746 205.0938,205.9184 Q205.7188,205.7621 206.5469,205.3871 L206.5469,207.6059 Q205.8125,207.9184 205.0156,208.0746 Q204.2344,208.2309 203.4688,208.2309 Z " fill="#000000"/><text fill="#000000" font-family="sans-serif" font-size="14" lengthAdjust="spacing" textLength="74" x="218" y="206.741">Innovación</text><line style="stroke:#181818;stroke-width:0.5;" x1="190" x2="294" y1="217.309" y2="217.309"/><line style="stroke:#181818;stroke-width:0.5;" x1="190" x2="294" y1="225.309" y2="225.309"/></g><!--MD5=[64c39ed157ca38fea95a9e54258d8b01]
link Empresav001 to Empresav002--><g id="link_Empresav001_Empresav002"><path codeLine="3" d="M158.33,100.309 C207.45,100.309 276.22,100.309 326.62,100.309 " fill="none" id="Empresav001-to-Empresav002" style="stroke:#181818;stroke-width:1.0;stroke-dasharray:7.0,7.0;"/><polygon fill="#181818" points="331.75,100.309,322.75,96.309,326.75,100.309,322.75,104.309,331.75,100.309" style="stroke:#181818;stroke-width:1.0;"/><text fill="#000000" font-family="sans-serif" font-size="13" lengthAdjust="spacing" textLength="87" x="201.5" y="22.206">pasa el tiempo</text><text fill="#000000" font-family="sans-serif" font-size="13" lengthAdjust="spacing" textLength="126" x="182" y="39.912">cambia el ecosistema</text><text fill="#000000" font-family="sans-serif" font-size="13" lengthAdjust="spacing" textLength="3" x="243.5" y="57.618"> </text><text fill="#000000" font-family="sans-serif" font-size="13" lengthAdjust="spacing" textLength="3" x="243.5" y="75.3241"> </text><text fill="#000000" font-family="sans-serif" font-size="13" lengthAdjust="spacing" textLength="3" x="243.5" y="93.0301"> </text></g><!--MD5=[1cdf162b52fe4abd647d1fe6035e808e]
reverse link Empresav001 to Estrategiav001--><g id="link_Empresav001_Estrategiav001"><path codeLine="5" d="M94.61,129.739 C93.15,147.049 91.32,168.879 89.95,185.139 " fill="none" id="Empresav001-backto-Estrategiav001" style="stroke:#181818;stroke-width:1.0;"/><polygon fill="#181818" points="95.05,124.529,90.2939,133.1534,94.6218,129.5106,98.2645,133.8385,95.05,124.529" style="stroke:#181818;stroke-width:1.0;"/></g><!--MD5=[6c20abbe62f93253cad426b8db619cdc]
link Estrategiav001 to Planificacionv001--><g id="link_Estrategiav001_Planificacionv001"><path codeLine="6" d="M89.74,233.529 C91.08,251.469 92.93,276.199 94.27,294.139 " fill="none" id="Estrategiav001-Planificacionv001" style="stroke:#181818;stroke-width:1.0;"/></g><!--MD5=[0d5027325036a17c4588caee691ef37e]
reverse link Empresav002 to Estrategiav002--><g id="link_Empresav002_Estrategiav002"><path codeLine="8" d="M393.8,129.739 C394.28,147.049 394.89,168.879 395.35,185.139 " fill="none" id="Empresav002-backto-Estrategiav002" style="stroke:#181818;stroke-width:1.0;"/><polygon fill="#181818" points="393.65,124.529,389.8827,133.6289,393.7785,129.5274,397.88,133.4232,393.65,124.529" style="stroke:#181818;stroke-width:1.0;"/></g><!--MD5=[f21a2d565f2253ce2f613fd97d9cad59]
link Estrategiav002 to Planificacionv002--><g id="link_Estrategiav002_Planificacionv002"><path codeLine="9" d="M394.26,233.529 C392.92,251.469 391.07,276.199 389.73,294.139 " fill="none" id="Estrategiav002-Planificacionv002" style="stroke:#181818;stroke-width:1.0;"/></g><!--MD5=[7e4eca3ac1e54221b2cc8cec71921d90]
link Estrategiav001 to Innovación--><g id="link_Estrategiav001_Innovación"><path codeLine="11" d="M153.57,209.309 C165.31,209.309 177.06,209.309 188.8,209.309 " fill="none" id="Estrategiav001-Innovación" style="stroke:#181818;stroke-width:1.0;"/></g><!--MD5=[b5fbb614630516c912224dda3f53342e]
link Innovación to Estrategiav002--><g id="link_Innovación_Estrategiav002"><path codeLine="12" d="M295.24,209.309 C306.92,209.309 318.59,209.309 330.27,209.309 " fill="none" id="Innovación-Estrategiav002" style="stroke:#181818;stroke-width:1.0;"/></g><!--MD5=[2fa4807942c6d541f032b2abe2d0afe6]
@startuml
package Empresa {

Empresav001 ...r...> Empresav002 : pasa el tiempo\ncambia el ecosistema\n\n\n

Empresav001 <-d- Estrategiav001
Estrategiav001 -d- Planificacionv001

Empresav002 <-d- Estrategiav002
Estrategiav002 -d- Planificacionv002

Estrategiav001 -r- Innovación
Innovación -r- Estrategiav002

}
@enduml

PlantUML version 1.2022.7(Mon Aug 22 19:01:30 CEST 2022)
(GPL source distribution)
Java Runtime: OpenJDK Runtime Environment
JVM: OpenJDK 64-Bit Server VM
Default Encoding: UTF-8
Language: es
Country: ES
--></g></svg>