<?xml version="1.0" encoding="us-ascii" standalone="no"?><svg xmlns="http://www.w3.org/2000/svg" xmlns:xlink="http://www.w3.org/1999/xlink" contentStyleType="text/css" height="897px" preserveAspectRatio="none" style="width:1380px;height:897px;background:#FFFFFF;" version="1.1" viewBox="0 0 1380 897" width="1380px" zoomAndPan="magnify"><defs/><g><!--class CEO--><g id="elem_CEO"><rect codeLine="2" fill="#F1F1F1" height="124.2717" id="CEO" rx="2.5" ry="2.5" style="stroke:#181818;stroke-width:0.5;" width="405" x="7" y="16.5"/><ellipse cx="191.25" cy="32.5" fill="#ADD1B2" rx="11" ry="11" style="stroke:#181818;stroke-width:1.0;"/><path d="M190.7188,39.4219 Q188.9688,39.4219 187.8281,38.6875 Q186.7031,37.9375 186.1406,36.5938 Q185.5938,35.2344 185.5938,33.4375 Q185.5938,31.4063 186.25,29.9531 Q186.9063,28.5 188.1875,27.7188 Q189.4688,26.9375 191.3438,26.9375 Q192.2344,26.9375 192.9063,27.125 Q193.5781,27.2969 194.2656,27.6406 L193.4531,29.6563 Q192.8281,29.3438 192.2813,29.2188 Q191.75,29.0938 191.2656,29.0938 Q190.0938,29.0938 189.3906,29.625 Q188.6875,30.1563 188.3906,31.1094 Q188.0938,32.0625 188.0938,33.3281 Q188.0938,35.3438 188.8125,36.3125 Q189.5313,37.2656 191.125,37.2656 Q191.7188,37.2656 192.3438,37.1094 Q192.9688,36.9531 193.7969,36.5781 L193.7969,38.7969 Q193.0625,39.1094 192.2656,39.2656 Q191.4844,39.4219 190.7188,39.4219 Z " fill="#000000"/><text fill="#000000" font-family="sans-serif" font-size="14" lengthAdjust="spacing" textLength="28" x="211.75" y="37.932">CEO</text><line style="stroke:#181818;stroke-width:0.5;" x1="8" x2="411" y1="48.5" y2="48.5"/><text fill="#000000" font-family="sans-serif" font-size="14" lengthAdjust="spacing" textLength="175" x="13" y="67.4659">CHIEF EXECUTIVE OFFICER</text><text fill="#000000" font-family="sans-serif" font-size="14" lengthAdjust="spacing" textLength="118" x="13" y="86.5339">Director Ejecutivo</text><line style="stroke:#181818;stroke-width:1.0;" x1="8" x2="411" y1="94.6358" y2="94.6358"/><text fill="#000000" font-family="sans-serif" font-size="14" lengthAdjust="spacing" textLength="271" x="13" y="113.6018">Define la visi&#243;n y estrategia empresarial</text><text fill="#000000" font-family="sans-serif" font-size="14" lengthAdjust="spacing" textLength="393" x="13" y="132.6697">Supervisa todas las operaciones y decisiones corporativas.</text></g><!--class COO--><g id="elem_COO"><rect codeLine="10" fill="#F1F1F1" height="124.2717" id="COO" rx="2.5" ry="2.5" style="stroke:#181818;stroke-width:0.5;" width="330" x="447.5" y="16.5"/><ellipse cx="592.75" cy="32.5" fill="#ADD1B2" rx="11" ry="11" style="stroke:#181818;stroke-width:1.0;"/><path d="M592.2188,39.4219 Q590.4688,39.4219 589.3281,38.6875 Q588.2031,37.9375 587.6406,36.5938 Q587.0938,35.2344 587.0938,33.4375 Q587.0938,31.4063 587.75,29.9531 Q588.4063,28.5 589.6875,27.7188 Q590.9688,26.9375 592.8438,26.9375 Q593.7344,26.9375 594.4063,27.125 Q595.0781,27.2969 595.7656,27.6406 L594.9531,29.6563 Q594.3281,29.3438 593.7813,29.2188 Q593.25,29.0938 592.7656,29.0938 Q591.5938,29.0938 590.8906,29.625 Q590.1875,30.1563 589.8906,31.1094 Q589.5938,32.0625 589.5938,33.3281 Q589.5938,35.3438 590.3125,36.3125 Q591.0313,37.2656 592.625,37.2656 Q593.2188,37.2656 593.8438,37.1094 Q594.4688,36.9531 595.2969,36.5781 L595.2969,38.7969 Q594.5625,39.1094 593.7656,39.2656 Q592.9844,39.4219 592.2188,39.4219 Z " fill="#000000"/><text fill="#000000" font-family="sans-serif" font-size="14" lengthAdjust="spacing" textLength="31" x="613.25" y="37.932">COO</text><line style="stroke:#181818;stroke-width:0.5;" x1="448.5" x2="776.5" y1="48.5" y2="48.5"/><text fill="#000000" font-family="sans-serif" font-size="14" lengthAdjust="spacing" textLength="182" x="453.5" y="67.4659">CHIEF OPERATING OFFICER</text><text fill="#000000" font-family="sans-serif" font-size="14" lengthAdjust="spacing" textLength="164" x="453.5" y="86.5339">Director de Operaciones</text><line style="stroke:#181818;stroke-width:1.0;" x1="448.5" x2="776.5" y1="94.6358" y2="94.6358"/><text fill="#000000" font-family="sans-serif" font-size="14" lengthAdjust="spacing" textLength="318" x="453.5" y="113.6018">Gestiona las operaciones diarias de la empresa</text><text fill="#000000" font-family="sans-serif" font-size="14" lengthAdjust="spacing" textLength="208" x="453.5" y="132.6697">ejecuta la estrategia operativa.</text></g><!--class CMO--><g id="elem_CMO"><rect codeLine="18" fill="#F1F1F1" height="143.3396" id="CMO" rx="2.5" ry="2.5" style="stroke:#181818;stroke-width:0.5;" width="301" x="813" y="7"/><ellipse cx="942.75" cy="23" fill="#ADD1B2" rx="11" ry="11" style="stroke:#181818;stroke-width:1.0;"/><path d="M942.2188,29.9219 Q940.4688,29.9219 939.3281,29.1875 Q938.2031,28.4375 937.6406,27.0938 Q937.0938,25.7344 937.0938,23.9375 Q937.0938,21.9063 937.75,20.4531 Q938.4063,19 939.6875,18.2188 Q940.9688,17.4375 942.8438,17.4375 Q943.7344,17.4375 944.4063,17.625 Q945.0781,17.7969 945.7656,18.1406 L944.9531,20.1563 Q944.3281,19.8438 943.7813,19.7188 Q943.25,19.5938 942.7656,19.5938 Q941.5938,19.5938 940.8906,20.125 Q940.1875,20.6563 939.8906,21.6094 Q939.5938,22.5625 939.5938,23.8281 Q939.5938,25.8438 940.3125,26.8125 Q941.0313,27.7656 942.625,27.7656 Q943.2188,27.7656 943.8438,27.6094 Q944.4688,27.4531 945.2969,27.0781 L945.2969,29.2969 Q944.5625,29.6094 943.7656,29.7656 Q942.9844,29.9219 942.2188,29.9219 Z " fill="#000000"/><text fill="#000000" font-family="sans-serif" font-size="14" lengthAdjust="spacing" textLength="33" x="963.25" y="28.432">CMO</text><line style="stroke:#181818;stroke-width:0.5;" x1="814" x2="1113" y1="39" y2="39"/><text fill="#000000" font-family="sans-serif" font-size="14" lengthAdjust="spacing" textLength="185" x="819" y="57.9659">CHIEF MARKETING OFFICER</text><text fill="#000000" font-family="sans-serif" font-size="14" lengthAdjust="spacing" textLength="148" x="819" y="77.0339">Director de Marketing</text><line style="stroke:#181818;stroke-width:1.0;" x1="814" x2="1113" y1="85.1358" y2="85.1358"/><text fill="#000000" font-family="sans-serif" font-size="14" lengthAdjust="spacing" textLength="289" x="819" y="104.1018">Responsable de la planificaci&#243;n, desarrollo</text><text fill="#000000" font-family="sans-serif" font-size="14" lengthAdjust="spacing" textLength="286" x="819" y="123.1697">e implementaci&#243;n de todas las actividades</text><text fill="#000000" font-family="sans-serif" font-size="14" lengthAdjust="spacing" textLength="94" x="819" y="142.2376">de marketing.</text></g><!--class CFO--><g id="elem_CFO"><rect codeLine="27" fill="#F1F1F1" height="143.3396" id="CFO" rx="2.5" ry="2.5" style="stroke:#181818;stroke-width:0.5;" width="224" x="1149.5" y="7"/><ellipse cx="1243.75" cy="23" fill="#ADD1B2" rx="11" ry="11" style="stroke:#181818;stroke-width:1.0;"/><path d="M1243.2188,29.9219 Q1241.4688,29.9219 1240.3281,29.1875 Q1239.2031,28.4375 1238.6406,27.0938 Q1238.0938,25.7344 1238.0938,23.9375 Q1238.0938,21.9063 1238.75,20.4531 Q1239.4063,19 1240.6875,18.2188 Q1241.9688,17.4375 1243.8438,17.4375 Q1244.7344,17.4375 1245.4063,17.625 Q1246.0781,17.7969 1246.7656,18.1406 L1245.9531,20.1563 Q1245.3281,19.8438 1244.7813,19.7188 Q1244.25,19.5938 1243.7656,19.5938 Q1242.5938,19.5938 1241.8906,20.125 Q1241.1875,20.6563 1240.8906,21.6094 Q1240.5938,22.5625 1240.5938,23.8281 Q1240.5938,25.8438 1241.3125,26.8125 Q1242.0313,27.7656 1243.625,27.7656 Q1244.2188,27.7656 1244.8438,27.6094 Q1245.4688,27.4531 1246.2969,27.0781 L1246.2969,29.2969 Q1245.5625,29.6094 1244.7656,29.7656 Q1243.9844,29.9219 1243.2188,29.9219 Z " fill="#000000"/><text fill="#000000" font-family="sans-serif" font-size="14" lengthAdjust="spacing" textLength="27" x="1264.25" y="28.432">CFO</text><line style="stroke:#181818;stroke-width:0.5;" x1="1150.5" x2="1372.5" y1="39" y2="39"/><text fill="#000000" font-family="sans-serif" font-size="14" lengthAdjust="spacing" textLength="176" x="1155.5" y="57.9659">CHIEF FINANCIAL OFFICER</text><text fill="#000000" font-family="sans-serif" font-size="14" lengthAdjust="spacing" textLength="128" x="1155.5" y="77.0339">Director Financiero</text><line style="stroke:#181818;stroke-width:1.0;" x1="1150.5" x2="1372.5" y1="85.1358" y2="85.1358"/><text fill="#000000" font-family="sans-serif" font-size="14" lengthAdjust="spacing" textLength="212" x="1155.5" y="104.1018">Supervisa la gesti&#243;n financiera,</text><text fill="#000000" font-family="sans-serif" font-size="14" lengthAdjust="spacing" textLength="209" x="1155.5" y="123.1697">la planificaci&#243;n presupuestaria</text><text fill="#000000" font-family="sans-serif" font-size="14" lengthAdjust="spacing" textLength="166" x="1155.5" y="142.2376">y los riesgos financieros.</text></g><!--class CIO--><g id="elem_CIO"><rect codeLine="36" fill="#F1F1F1" height="143.3396" id="CIO" rx="2.5" ry="2.5" style="stroke:#181818;stroke-width:0.5;" width="244" x="87.5" y="377"/><ellipse cx="192.75" cy="393" fill="#ADD1B2" rx="11" ry="11" style="stroke:#181818;stroke-width:1.0;"/><path d="M192.2188,399.9219 Q190.4688,399.9219 189.3281,399.1875 Q188.2031,398.4375 187.6406,397.0938 Q187.0938,395.7344 187.0938,393.9375 Q187.0938,391.9063 187.75,390.4531 Q188.4063,389 189.6875,388.2188 Q190.9688,387.4375 192.8438,387.4375 Q193.7344,387.4375 194.4063,387.625 Q195.0781,387.7969 195.7656,388.1406 L194.9531,390.1563 Q194.3281,389.8438 193.7813,389.7188 Q193.25,389.5938 192.7656,389.5938 Q191.5938,389.5938 190.8906,390.125 Q190.1875,390.6563 189.8906,391.6094 Q189.5938,392.5625 189.5938,393.8281 Q189.5938,395.8438 190.3125,396.8125 Q191.0313,397.7656 192.625,397.7656 Q193.2188,397.7656 193.8438,397.6094 Q194.4688,397.4531 195.2969,397.0781 L195.2969,399.2969 Q194.5625,399.6094 193.7656,399.7656 Q192.9844,399.9219 192.2188,399.9219 Z " fill="#000000"/><text fill="#000000" font-family="sans-serif" font-size="14" lengthAdjust="spacing" textLength="25" x="213.25" y="398.432">CIO</text><line style="stroke:#181818;stroke-width:0.5;" x1="88.5" x2="330.5" y1="409" y2="409"/><text fill="#000000" font-family="sans-serif" font-size="14" lengthAdjust="spacing" textLength="203" x="93.5" y="427.9659">CHIEF INFORMATION OFFICER</text><text fill="#000000" font-family="sans-serif" font-size="14" lengthAdjust="spacing" textLength="161" x="93.5" y="447.0339">Director de Informaci&#243;n</text><line style="stroke:#181818;stroke-width:1.0;" x1="88.5" x2="330.5" y1="455.1358" y2="455.1358"/><text fill="#000000" font-family="sans-serif" font-size="14" lengthAdjust="spacing" textLength="232" x="93.5" y="474.1018">Lidera las estrategias tecnol&#243;gicas</text><text fill="#000000" font-family="sans-serif" font-size="14" lengthAdjust="spacing" textLength="218" x="93.5" y="493.1697">y de informaci&#243;n para aumentar</text><text fill="#000000" font-family="sans-serif" font-size="14" lengthAdjust="spacing" textLength="151" x="93.5" y="512.2376">la eficiencia operativa.</text></g><!--class CTO--><g id="elem_CTO"><rect codeLine="45" fill="#F1F1F1" height="143.3396" id="CTO" rx="2.5" ry="2.5" style="stroke:#181818;stroke-width:0.5;" width="250" x="366.5" y="377"/><ellipse cx="473.25" cy="393" fill="#ADD1B2" rx="11" ry="11" style="stroke:#181818;stroke-width:1.0;"/><path d="M472.7188,399.9219 Q470.9688,399.9219 469.8281,399.1875 Q468.7031,398.4375 468.1406,397.0938 Q467.5938,395.7344 467.5938,393.9375 Q467.5938,391.9063 468.25,390.4531 Q468.9063,389 470.1875,388.2188 Q471.4688,387.4375 473.3438,387.4375 Q474.2344,387.4375 474.9063,387.625 Q475.5781,387.7969 476.2656,388.1406 L475.4531,390.1563 Q474.8281,389.8438 474.2813,389.7188 Q473.75,389.5938 473.2656,389.5938 Q472.0938,389.5938 471.3906,390.125 Q470.6875,390.6563 470.3906,391.6094 Q470.0938,392.5625 470.0938,393.8281 Q470.0938,395.8438 470.8125,396.8125 Q471.5313,397.7656 473.125,397.7656 Q473.7188,397.7656 474.3438,397.6094 Q474.9688,397.4531 475.7969,397.0781 L475.7969,399.2969 Q475.0625,399.6094 474.2656,399.7656 Q473.4844,399.9219 472.7188,399.9219 Z " fill="#000000"/><text fill="#000000" font-family="sans-serif" font-size="14" lengthAdjust="spacing" textLength="28" x="493.75" y="398.432">CTO</text><line style="stroke:#181818;stroke-width:0.5;" x1="367.5" x2="615.5" y1="409" y2="409"/><text fill="#000000" font-family="sans-serif" font-size="14" lengthAdjust="spacing" textLength="196" x="372.5" y="427.9659">CHIEF TECHNOLOGY OFFICER</text><text fill="#000000" font-family="sans-serif" font-size="14" lengthAdjust="spacing" textLength="152" x="372.5" y="447.0339">Director de Tecnolog&#237;a</text><line style="stroke:#181818;stroke-width:1.0;" x1="367.5" x2="615.5" y1="455.1358" y2="455.1358"/><text fill="#000000" font-family="sans-serif" font-size="14" lengthAdjust="spacing" textLength="129" x="372.5" y="474.1018">Dirige el desarrollo</text><text fill="#000000" font-family="sans-serif" font-size="14" lengthAdjust="spacing" textLength="238" x="372.5" y="493.1697">y la implementaci&#243;n de tecnolog&#237;as</text><text fill="#000000" font-family="sans-serif" font-size="14" lengthAdjust="spacing" textLength="196" x="372.5" y="512.2376">innovadoras y pol&#237;ticas de TI.</text></g><!--class CCO--><g id="elem_CCO"><rect codeLine="54" fill="#F1F1F1" height="143.3396" id="CCO" rx="2.5" ry="2.5" style="stroke:#181818;stroke-width:0.5;" width="248" x="651.5" y="377"/><ellipse cx="756.75" cy="393" fill="#ADD1B2" rx="11" ry="11" style="stroke:#181818;stroke-width:1.0;"/><path d="M756.2188,399.9219 Q754.4688,399.9219 753.3281,399.1875 Q752.2031,398.4375 751.6406,397.0938 Q751.0938,395.7344 751.0938,393.9375 Q751.0938,391.9063 751.75,390.4531 Q752.4063,389 753.6875,388.2188 Q754.9688,387.4375 756.8438,387.4375 Q757.7344,387.4375 758.4063,387.625 Q759.0781,387.7969 759.7656,388.1406 L758.9531,390.1563 Q758.3281,389.8438 757.7813,389.7188 Q757.25,389.5938 756.7656,389.5938 Q755.5938,389.5938 754.8906,390.125 Q754.1875,390.6563 753.8906,391.6094 Q753.5938,392.5625 753.5938,393.8281 Q753.5938,395.8438 754.3125,396.8125 Q755.0313,397.7656 756.625,397.7656 Q757.2188,397.7656 757.8438,397.6094 Q758.4688,397.4531 759.2969,397.0781 L759.2969,399.2969 Q758.5625,399.6094 757.7656,399.7656 Q756.9844,399.9219 756.2188,399.9219 Z " fill="#000000"/><text fill="#000000" font-family="sans-serif" font-size="14" lengthAdjust="spacing" textLength="29" x="777.25" y="398.432">CCO</text><line style="stroke:#181818;stroke-width:0.5;" x1="652.5" x2="898.5" y1="409" y2="409"/><text fill="#000000" font-family="sans-serif" font-size="14" lengthAdjust="spacing" textLength="236" x="657.5" y="427.9659">CHIEF COMMUNICATIONS OFFICER</text><text fill="#000000" font-family="sans-serif" font-size="14" lengthAdjust="spacing" textLength="189" x="657.5" y="447.0339">Director de Comunicaciones</text><line style="stroke:#181818;stroke-width:1.0;" x1="652.5" x2="898.5" y1="455.1358" y2="455.1358"/><text fill="#000000" font-family="sans-serif" font-size="14" lengthAdjust="spacing" textLength="235" x="657.5" y="474.1018">Gestiona todas las comunicaciones</text><text fill="#000000" font-family="sans-serif" font-size="14" lengthAdjust="spacing" textLength="226" x="657.5" y="493.1697">internas y externas, fortaleciendo</text><text fill="#000000" font-family="sans-serif" font-size="14" lengthAdjust="spacing" textLength="171" x="657.5" y="512.2376">la imagen de la empresa.</text></g><!--class CDO--><g id="elem_CDO"><rect codeLine="63" fill="#F1F1F1" height="477.3583" id="CDO" rx="2.5" ry="2.5" style="stroke:#181818;stroke-width:0.5;" width="280" x="934.5" y="210"/><ellipse cx="1055.25" cy="226" fill="#ADD1B2" rx="11" ry="11" style="stroke:#181818;stroke-width:1.0;"/><path d="M1054.7188,232.9219 Q1052.9688,232.9219 1051.8281,232.1875 Q1050.7031,231.4375 1050.1406,230.0938 Q1049.5938,228.7344 1049.5938,226.9375 Q1049.5938,224.9063 1050.25,223.4531 Q1050.9063,222 1052.1875,221.2188 Q1053.4688,220.4375 1055.3438,220.4375 Q1056.2344,220.4375 1056.9063,220.625 Q1057.5781,220.7969 1058.2656,221.1406 L1057.4531,223.1563 Q1056.8281,222.8438 1056.2813,222.7188 Q1055.75,222.5938 1055.2656,222.5938 Q1054.0938,222.5938 1053.3906,223.125 Q1052.6875,223.6563 1052.3906,224.6094 Q1052.0938,225.5625 1052.0938,226.8281 Q1052.0938,228.8438 1052.8125,229.8125 Q1053.5313,230.7656 1055.125,230.7656 Q1055.7188,230.7656 1056.3438,230.6094 Q1056.9688,230.4531 1057.7969,230.0781 L1057.7969,232.2969 Q1057.0625,232.6094 1056.2656,232.7656 Q1055.4844,232.9219 1054.7188,232.9219 Z " fill="#000000"/><text fill="#000000" font-family="sans-serif" font-size="14" lengthAdjust="spacing" textLength="30" x="1075.75" y="231.432">CDO</text><line style="stroke:#181818;stroke-width:0.5;" x1="935.5" x2="1213.5" y1="242" y2="242"/><text fill="#000000" font-family="sans-serif" font-size="14" lengthAdjust="spacing" textLength="157" x="940.5" y="260.9659">CHIEF DIGITAL OFFICER</text><text fill="#000000" font-family="sans-serif" font-size="14" lengthAdjust="spacing" textLength="102" x="940.5" y="280.0339">Director Digital</text><line style="stroke:#181818;stroke-width:1.0;" x1="935.5" x2="1213.5" y1="288.1358" y2="288.1358"/><text fill="#000000" font-family="sans-serif" font-size="14" lengthAdjust="spacing" textLength="263" x="940.5" y="307.1018">Encargado de la transformaci&#243;n digital</text><text fill="#000000" font-family="sans-serif" font-size="14" lengthAdjust="spacing" textLength="268" x="940.5" y="326.1697">y la integraci&#243;n de tecnolog&#237;as digitales</text><text fill="#000000" font-family="sans-serif" font-size="14" lengthAdjust="spacing" textLength="100" x="940.5" y="345.2376">en la empresa.</text><line style="stroke:#181818;stroke-width:1.0;" x1="935.5" x2="1213.5" y1="353.3396" y2="353.3396"/><text fill="#000000" font-family="sans-serif" font-size="14" lengthAdjust="spacing" textLength="155" x="940.5" y="372.3055">CHIEF DESIGN OFFICER</text><text fill="#000000" font-family="sans-serif" font-size="14" lengthAdjust="spacing" textLength="125" x="940.5" y="391.3734">Director de Dise&#241;o</text><line style="stroke:#181818;stroke-width:1.0;" x1="935.5" x2="1213.5" y1="399.4754" y2="399.4754"/><text fill="#000000" font-family="sans-serif" font-size="14" lengthAdjust="spacing" textLength="253" x="940.5" y="418.4414">Responsable del dise&#241;o de productos</text><text fill="#000000" font-family="sans-serif" font-size="14" lengthAdjust="spacing" textLength="236" x="940.5" y="437.5093">y la experiencia de usuario en toda</text><text fill="#000000" font-family="sans-serif" font-size="14" lengthAdjust="spacing" textLength="107" x="940.5" y="456.5772">la organizaci&#243;n.</text><line style="stroke:#181818;stroke-width:1.0;" x1="935.5" x2="1213.5" y1="464.6792" y2="464.6792"/><text fill="#000000" font-family="sans-serif" font-size="14" lengthAdjust="spacing" textLength="172" x="940.5" y="483.6451">CHIEF DIVERSITY OFFICER</text><text fill="#000000" font-family="sans-serif" font-size="14" lengthAdjust="spacing" textLength="151" x="940.5" y="502.713">Director de Diversidad</text><line style="stroke:#181818;stroke-width:1.0;" x1="935.5" x2="1213.5" y1="510.815" y2="510.815"/><text fill="#000000" font-family="sans-serif" font-size="14" lengthAdjust="spacing" textLength="235" x="940.5" y="529.7809">Promueve la diversidad e inclusi&#243;n</text><text fill="#000000" font-family="sans-serif" font-size="14" lengthAdjust="spacing" textLength="247" x="940.5" y="548.8489">dentro de la empresa, estableciendo</text><text fill="#000000" font-family="sans-serif" font-size="14" lengthAdjust="spacing" textLength="239" x="940.5" y="567.9168">pol&#237;ticas y programas relacionados.</text><line style="stroke:#181818;stroke-width:1.0;" x1="935.5" x2="1213.5" y1="576.0188" y2="576.0188"/><text fill="#000000" font-family="sans-serif" font-size="14" lengthAdjust="spacing" textLength="139" x="940.5" y="594.9847">CHIEF DATA OFFICER</text><text fill="#000000" font-family="sans-serif" font-size="14" lengthAdjust="spacing" textLength="117" x="940.5" y="614.0526">Director de Datos</text><line style="stroke:#181818;stroke-width:1.0;" x1="935.5" x2="1213.5" y1="622.1546" y2="622.1546"/><text fill="#000000" font-family="sans-serif" font-size="14" lengthAdjust="spacing" textLength="235" x="940.5" y="641.1205">Supervisa la estrategia y la gesti&#243;n</text><text fill="#000000" font-family="sans-serif" font-size="14" lengthAdjust="spacing" textLength="216" x="940.5" y="660.1884">de datos para optimizar el uso y</text><text fill="#000000" font-family="sans-serif" font-size="14" lengthAdjust="spacing" textLength="211" x="940.5" y="679.2564">la seguridad de la informaci&#243;n.</text></g><!--class CGO--><g id="elem_CGO"><rect codeLine="93" fill="#F1F1F1" height="143.3396" id="CGO" rx="2.5" ry="2.5" style="stroke:#181818;stroke-width:0.5;" width="272" x="73.5" y="747"/><ellipse cx="190.25" cy="763" fill="#ADD1B2" rx="11" ry="11" style="stroke:#181818;stroke-width:1.0;"/><path d="M189.7188,769.9219 Q187.9688,769.9219 186.8281,769.1875 Q185.7031,768.4375 185.1406,767.0938 Q184.5938,765.7344 184.5938,763.9375 Q184.5938,761.9063 185.25,760.4531 Q185.9063,759 187.1875,758.2188 Q188.4688,757.4375 190.3438,757.4375 Q191.2344,757.4375 191.9063,757.625 Q192.5781,757.7969 193.2656,758.1406 L192.4531,760.1563 Q191.8281,759.8438 191.2813,759.7188 Q190.75,759.5938 190.2656,759.5938 Q189.0938,759.5938 188.3906,760.125 Q187.6875,760.6563 187.3906,761.6094 Q187.0938,762.5625 187.0938,763.8281 Q187.0938,765.8438 187.8125,766.8125 Q188.5313,767.7656 190.125,767.7656 Q190.7188,767.7656 191.3438,767.6094 Q191.9688,767.4531 192.7969,767.0781 L192.7969,769.2969 Q192.0625,769.6094 191.2656,769.7656 Q190.4844,769.9219 189.7188,769.9219 Z " fill="#000000"/><text fill="#000000" font-family="sans-serif" font-size="14" lengthAdjust="spacing" textLength="30" x="210.75" y="768.432">CGO</text><line style="stroke:#181818;stroke-width:0.5;" x1="74.5" x2="344.5" y1="779" y2="779"/><text fill="#000000" font-family="sans-serif" font-size="14" lengthAdjust="spacing" textLength="164" x="79.5" y="797.9659">CHIEF GROWTH OFFICER</text><text fill="#000000" font-family="sans-serif" font-size="14" lengthAdjust="spacing" textLength="194" x="79.5" y="817.0339">Responsable del crecimiento</text><line style="stroke:#181818;stroke-width:1.0;" x1="74.5" x2="344.5" y1="825.1358" y2="825.1358"/><text fill="#000000" font-family="sans-serif" font-size="14" lengthAdjust="spacing" textLength="246" x="79.5" y="844.1018">Enfocado en impulsar el crecimiento</text><text fill="#000000" font-family="sans-serif" font-size="14" lengthAdjust="spacing" textLength="206" x="79.5" y="863.1697">r&#225;pido y sostenible a trav&#233;s de</text><text fill="#000000" font-family="sans-serif" font-size="14" lengthAdjust="spacing" textLength="260" x="79.5" y="882.2376">estrategias comerciales y de producto.</text></g><!--class CXO--><g id="elem_CXO"><rect codeLine="102" fill="#F1F1F1" height="143.3396" id="CXO" rx="2.5" ry="2.5" style="stroke:#181818;stroke-width:0.5;" width="277" x="381" y="747"/><ellipse cx="501.25" cy="763" fill="#ADD1B2" rx="11" ry="11" style="stroke:#181818;stroke-width:1.0;"/><path d="M500.7188,769.9219 Q498.9688,769.9219 497.8281,769.1875 Q496.7031,768.4375 496.1406,767.0938 Q495.5938,765.7344 495.5938,763.9375 Q495.5938,761.9063 496.25,760.4531 Q496.9063,759 498.1875,758.2188 Q499.4688,757.4375 501.3438,757.4375 Q502.2344,757.4375 502.9063,757.625 Q503.5781,757.7969 504.2656,758.1406 L503.4531,760.1563 Q502.8281,759.8438 502.2813,759.7188 Q501.75,759.5938 501.2656,759.5938 Q500.0938,759.5938 499.3906,760.125 Q498.6875,760.6563 498.3906,761.6094 Q498.0938,762.5625 498.0938,763.8281 Q498.0938,765.8438 498.8125,766.8125 Q499.5313,767.7656 501.125,767.7656 Q501.7188,767.7656 502.3438,767.6094 Q502.9688,767.4531 503.7969,767.0781 L503.7969,769.2969 Q503.0625,769.6094 502.2656,769.7656 Q501.4844,769.9219 500.7188,769.9219 Z " fill="#000000"/><text fill="#000000" font-family="sans-serif" font-size="14" lengthAdjust="spacing" textLength="28" x="521.75" y="768.432">CXO</text><line style="stroke:#181818;stroke-width:0.5;" x1="382" x2="657" y1="779" y2="779"/><text fill="#000000" font-family="sans-serif" font-size="14" lengthAdjust="spacing" textLength="265" x="387" y="797.9659">CHIEF CUSTOMER EXPERIENCE OFFICER</text><text fill="#000000" font-family="sans-serif" font-size="14" lengthAdjust="spacing" textLength="233" x="387" y="817.0339">Director de Experiencia del Cliente</text><line style="stroke:#181818;stroke-width:1.0;" x1="382" x2="657" y1="825.1358" y2="825.1358"/><text fill="#000000" font-family="sans-serif" font-size="14" lengthAdjust="spacing" textLength="238" x="387" y="844.1018">Asegura una experiencia de cliente</text><text fill="#000000" font-family="sans-serif" font-size="14" lengthAdjust="spacing" textLength="221" x="387" y="863.1697">excepcional a trav&#233;s de todos los</text><text fill="#000000" font-family="sans-serif" font-size="14" lengthAdjust="spacing" textLength="233" x="387" y="882.2376">puntos de contacto de la empresa.</text></g><!--class CRO--><g id="elem_CRO"><rect codeLine="111" fill="#F1F1F1" height="143.3396" id="CRO" rx="2.5" ry="2.5" style="stroke:#181818;stroke-width:0.5;" width="221" x="693" y="747"/><ellipse cx="784.75" cy="763" fill="#ADD1B2" rx="11" ry="11" style="stroke:#181818;stroke-width:1.0;"/><path d="M784.2188,769.9219 Q782.4688,769.9219 781.3281,769.1875 Q780.2031,768.4375 779.6406,767.0938 Q779.0938,765.7344 779.0938,763.9375 Q779.0938,761.9063 779.75,760.4531 Q780.4063,759 781.6875,758.2188 Q782.9688,757.4375 784.8438,757.4375 Q785.7344,757.4375 786.4063,757.625 Q787.0781,757.7969 787.7656,758.1406 L786.9531,760.1563 Q786.3281,759.8438 785.7813,759.7188 Q785.25,759.5938 784.7656,759.5938 Q783.5938,759.5938 782.8906,760.125 Q782.1875,760.6563 781.8906,761.6094 Q781.5938,762.5625 781.5938,763.8281 Q781.5938,765.8438 782.3125,766.8125 Q783.0313,767.7656 784.625,767.7656 Q785.2188,767.7656 785.8438,767.6094 Q786.4688,767.4531 787.2969,767.0781 L787.2969,769.2969 Q786.5625,769.6094 785.7656,769.7656 Q784.9844,769.9219 784.2188,769.9219 Z " fill="#000000"/><text fill="#000000" font-family="sans-serif" font-size="14" lengthAdjust="spacing" textLength="29" x="805.25" y="768.432">CRO</text><line style="stroke:#181818;stroke-width:0.5;" x1="694" x2="913" y1="779" y2="779"/><text fill="#000000" font-family="sans-serif" font-size="14" lengthAdjust="spacing" textLength="160" x="699" y="797.9659">CHIEF REMOTE OFFICER</text><text fill="#000000" font-family="sans-serif" font-size="14" lengthAdjust="spacing" textLength="152" x="699" y="817.0339">Director de teletrabajo</text><line style="stroke:#181818;stroke-width:1.0;" x1="694" x2="913" y1="825.1358" y2="825.1358"/><text fill="#000000" font-family="sans-serif" font-size="14" lengthAdjust="spacing" textLength="209" x="699" y="844.1018">Desarrolla y supervisa pol&#237;ticas</text><text fill="#000000" font-family="sans-serif" font-size="14" lengthAdjust="spacing" textLength="191" x="699" y="863.1697">y pr&#225;cticas para optimizar la</text><text fill="#000000" font-family="sans-serif" font-size="14" lengthAdjust="spacing" textLength="184" x="699" y="882.2376">eficacia del trabajo remoto.</text></g><!--SRC=[VPR1SjCm48RlUGezGCixP1mdzT34ZED2EGfvun78aaUoCoqC3yEH0mU6HyYBiP9iHqhYzjBMsPM-_VVVTPYWnf0apScF1S6Vv25BroHzJfEdClkOadozpfAqS9-jk0RMAKtIhy3wZX-LUtn_V-y_XWENG0GbHsxuwPyahmHCfsa7DQS4cbQ3ePfJuSBtVGiQ8odfL4KDvXcYy15bN4amc5m1muFSFqpfLk59_4ZDkyNFnO9vxZmFiVCFQR4iiztcDdO593zV4B5l41IVqYkAYbjYOtF5L0DnEU1KeExvkKoNR3b3p6s4kLqMxzCtCRTKVuEEopg2BC2qIXhwHS30qmeg-O4pf4Mzx_0f2goL4Bup10XlMW4DoCw7sBopt9GXAAyeflcIxCVDU7TOm3egO9tjbhiaMpxUBc3D9PMCWuxzSMuuajTMS0jq68FfdMUuAejOpVksnmpR2n_rIeGoH7CmDVwU3b6HExA8EjkjysAB_iXtiy9dyg1qu- -Du1zvXOXEjNEp3Uc0IILE_sg4DICPdiE3SqXBCPFshWjwAXAd1OcHUiOpPGHVfid3Bd_CDvzdsKl7ekhJ7nhF9TUy1W8YiCSa8htfaFD9VaoubEf8Avn0EvSjLlodSnNRQxEGEeaNIP9ljq-xB76gxsVH4zNqqlLxVZBFjcNNqLnseAMZWnV_vnt15dHKW5MvKfFklA4ro7YWmmfMSGMhR9ELSqvVyPftmpuRWLF9gAvHhE4AD8iqWHigdnDs0E5hVLl-CNoSK2GFiSEB1zvqdstc3RxY1av_rHjx1MtYOsnugrNLOwu9SE45xJeu5qDwq-DOAajcMpJfh504oR_xicwIulkbs6VbvpTWZw2DNL1H-WUD1e2ZKxUQGkooaqpq_jMpyDjCTbh5hRwpysjB3MqHEFhLrepTQF1l3SAP39jfRbQmB9SZFBccfwZR_0OCtXclqKOSq4bby_toK6t76zHIsodkZSACKMO3TQzT_RxCSFE4jjx4jjuK-QVo8LB-qWOCIy5RKKDrOV23OjRVs75S7hqmdYk8ztJwzAlbbOKrodGWkJtP3SJnzDlj3c_fO9_YQ8D6OudX2y1amB2KvuiTyxGlyors87t6zt-Mxf9qrb5fv5r14c5v8QflwIIbf9TNNcT1EBmmQ9qxH5mKJW7sJOmpq_RIzj5cAxjaEpM_UuguiYBTvkLyCHq8m7k_qA-NNyI6DM-TPIRF1IOVXhd53Z7_vC9cOloEuz_2NgpXBXoBHlcE_0S0]--></g></svg>